<mxfile host="app.diagrams.net" agent="Mozilla/5.0 (Macintosh; Intel Mac OS X 10_15_7) AppleWebKit/537.36 (KHTML, like Gecko) Chrome/133.0.0.0 Safari/537.36" version="26.0.2">
  <diagram name="第 1 页" id="Xd1qZZC7ssqvjm3YN2iF">
    <mxGraphModel dx="785" dy="482" grid="1" gridSize="10" guides="1" tooltips="1" connect="1" arrows="1" fold="1" page="1" pageScale="1" pageWidth="827" pageHeight="1169" math="0" shadow="0">
      <root>
        <mxCell id="0" />
        <mxCell id="1" parent="0" />
        <mxCell id="pUOc-OPtA9ByPZ5m1enT-70" value="" style="rounded=0;whiteSpace=wrap;html=1;" vertex="1" parent="1">
          <mxGeometry x="855" y="60" width="125" height="270" as="geometry" />
        </mxCell>
        <mxCell id="pUOc-OPtA9ByPZ5m1enT-69" value="" style="rounded=0;whiteSpace=wrap;html=1;" vertex="1" parent="1">
          <mxGeometry x="1150" y="60" width="150" height="270" as="geometry" />
        </mxCell>
        <mxCell id="pUOc-OPtA9ByPZ5m1enT-1" value="" style="rounded=0;whiteSpace=wrap;html=1;" vertex="1" parent="1">
          <mxGeometry x="90" y="150" width="130" height="330" as="geometry" />
        </mxCell>
        <mxCell id="pUOc-OPtA9ByPZ5m1enT-2" value="solve(solver, req )" style="text;html=1;align=center;verticalAlign=middle;whiteSpace=wrap;rounded=0;" vertex="1" parent="1">
          <mxGeometry x="80" y="120" width="120" height="30" as="geometry" />
        </mxCell>
        <mxCell id="pUOc-OPtA9ByPZ5m1enT-3" value="" style="rounded=0;whiteSpace=wrap;html=1;" vertex="1" parent="1">
          <mxGeometry x="100" y="190" width="100" height="60" as="geometry" />
        </mxCell>
        <mxCell id="pUOc-OPtA9ByPZ5m1enT-4" value="" style="endArrow=classic;html=1;rounded=0;" edge="1" parent="1">
          <mxGeometry width="50" height="50" relative="1" as="geometry">
            <mxPoint x="220" y="730" as="sourcePoint" />
            <mxPoint x="490" y="730" as="targetPoint" />
          </mxGeometry>
        </mxCell>
        <mxCell id="pUOc-OPtA9ByPZ5m1enT-5" value="" style="endArrow=classic;html=1;rounded=0;" edge="1" parent="1" source="pUOc-OPtA9ByPZ5m1enT-19">
          <mxGeometry width="50" height="50" relative="1" as="geometry">
            <mxPoint x="220" y="730" as="sourcePoint" />
            <mxPoint x="220" y="550" as="targetPoint" />
          </mxGeometry>
        </mxCell>
        <mxCell id="pUOc-OPtA9ByPZ5m1enT-6" value="e1" style="rounded=0;whiteSpace=wrap;html=1;" vertex="1" parent="1">
          <mxGeometry x="280" y="620" width="20" height="25" as="geometry" />
        </mxCell>
        <mxCell id="pUOc-OPtA9ByPZ5m1enT-11" value="e2" style="rounded=0;whiteSpace=wrap;html=1;" vertex="1" parent="1">
          <mxGeometry x="340" y="620" width="20" height="25" as="geometry" />
        </mxCell>
        <mxCell id="pUOc-OPtA9ByPZ5m1enT-12" value="e3" style="rounded=0;whiteSpace=wrap;html=1;" vertex="1" parent="1">
          <mxGeometry x="300" y="670" width="20" height="25" as="geometry" />
        </mxCell>
        <mxCell id="pUOc-OPtA9ByPZ5m1enT-14" value="" style="endArrow=classic;html=1;rounded=0;" edge="1" parent="1" target="pUOc-OPtA9ByPZ5m1enT-13">
          <mxGeometry width="50" height="50" relative="1" as="geometry">
            <mxPoint x="220" y="730" as="sourcePoint" />
            <mxPoint x="220" y="550" as="targetPoint" />
          </mxGeometry>
        </mxCell>
        <mxCell id="pUOc-OPtA9ByPZ5m1enT-13" value="b5" style="ellipse;whiteSpace=wrap;html=1;aspect=fixed;" vertex="1" parent="1">
          <mxGeometry x="210" y="720" width="20" height="20" as="geometry" />
        </mxCell>
        <mxCell id="pUOc-OPtA9ByPZ5m1enT-16" value="" style="ellipse;whiteSpace=wrap;html=1;aspect=fixed;" vertex="1" parent="1">
          <mxGeometry x="210" y="645" width="20" height="20" as="geometry" />
        </mxCell>
        <mxCell id="pUOc-OPtA9ByPZ5m1enT-20" value="" style="endArrow=none;html=1;rounded=0;strokeColor=default;endFill=0;" edge="1" parent="1" source="pUOc-OPtA9ByPZ5m1enT-13" target="pUOc-OPtA9ByPZ5m1enT-19">
          <mxGeometry width="50" height="50" relative="1" as="geometry">
            <mxPoint x="220" y="720" as="sourcePoint" />
            <mxPoint x="220" y="550" as="targetPoint" />
          </mxGeometry>
        </mxCell>
        <mxCell id="pUOc-OPtA9ByPZ5m1enT-33" value="b4" style="edgeLabel;html=1;align=center;verticalAlign=middle;resizable=0;points=[];" vertex="1" connectable="0" parent="pUOc-OPtA9ByPZ5m1enT-20">
          <mxGeometry x="0.0857" y="5" relative="1" as="geometry">
            <mxPoint x="4" y="2" as="offset" />
          </mxGeometry>
        </mxCell>
        <mxCell id="pUOc-OPtA9ByPZ5m1enT-19" value="b1" style="ellipse;whiteSpace=wrap;html=1;aspect=fixed;" vertex="1" parent="1">
          <mxGeometry x="210" y="575" width="20" height="20" as="geometry" />
        </mxCell>
        <mxCell id="pUOc-OPtA9ByPZ5m1enT-21" value="b2" style="ellipse;whiteSpace=wrap;html=1;aspect=fixed;" vertex="1" parent="1">
          <mxGeometry x="300" y="575" width="20" height="20" as="geometry" />
        </mxCell>
        <mxCell id="pUOc-OPtA9ByPZ5m1enT-22" value="b3" style="ellipse;whiteSpace=wrap;html=1;aspect=fixed;" vertex="1" parent="1">
          <mxGeometry x="380" y="575" width="20" height="20" as="geometry" />
        </mxCell>
        <mxCell id="pUOc-OPtA9ByPZ5m1enT-23" value="" style="endArrow=none;html=1;rounded=0;entryX=1;entryY=0.5;entryDx=0;entryDy=0;exitX=0;exitY=0.25;exitDx=0;exitDy=0;" edge="1" parent="1" source="pUOc-OPtA9ByPZ5m1enT-6" target="pUOc-OPtA9ByPZ5m1enT-19">
          <mxGeometry width="50" height="50" relative="1" as="geometry">
            <mxPoint x="130" y="710" as="sourcePoint" />
            <mxPoint x="180" y="660" as="targetPoint" />
          </mxGeometry>
        </mxCell>
        <mxCell id="pUOc-OPtA9ByPZ5m1enT-24" value="" style="endArrow=none;html=1;rounded=0;entryX=0.5;entryY=1;entryDx=0;entryDy=0;exitX=0.5;exitY=0;exitDx=0;exitDy=0;" edge="1" parent="1" source="pUOc-OPtA9ByPZ5m1enT-6" target="pUOc-OPtA9ByPZ5m1enT-21">
          <mxGeometry width="50" height="50" relative="1" as="geometry">
            <mxPoint x="290" y="636" as="sourcePoint" />
            <mxPoint x="240" y="595" as="targetPoint" />
          </mxGeometry>
        </mxCell>
        <mxCell id="pUOc-OPtA9ByPZ5m1enT-25" value="" style="endArrow=none;html=1;rounded=0;entryX=0.5;entryY=1;entryDx=0;entryDy=0;exitX=0.5;exitY=0;exitDx=0;exitDy=0;" edge="1" parent="1" source="pUOc-OPtA9ByPZ5m1enT-11" target="pUOc-OPtA9ByPZ5m1enT-22">
          <mxGeometry width="50" height="50" relative="1" as="geometry">
            <mxPoint x="300" y="646" as="sourcePoint" />
            <mxPoint x="250" y="605" as="targetPoint" />
          </mxGeometry>
        </mxCell>
        <mxCell id="pUOc-OPtA9ByPZ5m1enT-26" value="" style="endArrow=none;html=1;rounded=0;entryX=1;entryY=0.5;entryDx=0;entryDy=0;exitX=0;exitY=0.5;exitDx=0;exitDy=0;" edge="1" parent="1" source="pUOc-OPtA9ByPZ5m1enT-6" target="pUOc-OPtA9ByPZ5m1enT-16">
          <mxGeometry width="50" height="50" relative="1" as="geometry">
            <mxPoint x="310" y="656" as="sourcePoint" />
            <mxPoint x="260" y="615" as="targetPoint" />
          </mxGeometry>
        </mxCell>
        <mxCell id="pUOc-OPtA9ByPZ5m1enT-27" value="" style="endArrow=none;html=1;rounded=0;entryX=1;entryY=0;entryDx=0;entryDy=0;exitX=0;exitY=1;exitDx=0;exitDy=0;" edge="1" parent="1" source="pUOc-OPtA9ByPZ5m1enT-12" target="pUOc-OPtA9ByPZ5m1enT-13">
          <mxGeometry width="50" height="50" relative="1" as="geometry">
            <mxPoint x="320" y="666" as="sourcePoint" />
            <mxPoint x="270" y="625" as="targetPoint" />
          </mxGeometry>
        </mxCell>
        <mxCell id="pUOc-OPtA9ByPZ5m1enT-28" value="" style="endArrow=none;html=1;rounded=0;entryX=0;entryY=0.5;entryDx=0;entryDy=0;exitX=1;exitY=0.5;exitDx=0;exitDy=0;" edge="1" parent="1" source="pUOc-OPtA9ByPZ5m1enT-12" target="pUOc-OPtA9ByPZ5m1enT-11">
          <mxGeometry width="50" height="50" relative="1" as="geometry">
            <mxPoint x="330" y="676" as="sourcePoint" />
            <mxPoint x="280" y="635" as="targetPoint" />
          </mxGeometry>
        </mxCell>
        <mxCell id="pUOc-OPtA9ByPZ5m1enT-29" value="cloud" style="ellipse;whiteSpace=wrap;html=1;" vertex="1" parent="1">
          <mxGeometry x="510" y="645" width="60" height="30" as="geometry" />
        </mxCell>
        <mxCell id="pUOc-OPtA9ByPZ5m1enT-30" value="" style="endArrow=none;html=1;rounded=0;exitX=1;exitY=0.5;exitDx=0;exitDy=0;entryX=0;entryY=0.5;entryDx=0;entryDy=0;strokeWidth=3;" edge="1" parent="1" source="pUOc-OPtA9ByPZ5m1enT-11" target="pUOc-OPtA9ByPZ5m1enT-29">
          <mxGeometry width="50" height="50" relative="1" as="geometry">
            <mxPoint x="400" y="700" as="sourcePoint" />
            <mxPoint x="450" y="650" as="targetPoint" />
          </mxGeometry>
        </mxCell>
        <mxCell id="pUOc-OPtA9ByPZ5m1enT-31" value="" style="endArrow=none;html=1;rounded=0;entryX=0.5;entryY=1;entryDx=0;entryDy=0;" edge="1" parent="1" target="pUOc-OPtA9ByPZ5m1enT-6">
          <mxGeometry width="50" height="50" relative="1" as="geometry">
            <mxPoint x="310" y="670" as="sourcePoint" />
            <mxPoint x="350" y="643" as="targetPoint" />
          </mxGeometry>
        </mxCell>
        <mxCell id="pUOc-OPtA9ByPZ5m1enT-32" value="" style="endArrow=none;html=1;rounded=0;exitX=1;exitY=0.5;exitDx=0;exitDy=0;entryX=0;entryY=0.5;entryDx=0;entryDy=0;" edge="1" parent="1" source="pUOc-OPtA9ByPZ5m1enT-6" target="pUOc-OPtA9ByPZ5m1enT-11">
          <mxGeometry width="50" height="50" relative="1" as="geometry">
            <mxPoint x="390" y="720" as="sourcePoint" />
            <mxPoint x="440" y="670" as="targetPoint" />
          </mxGeometry>
        </mxCell>
        <mxCell id="pUOc-OPtA9ByPZ5m1enT-34" value="e4" style="rounded=0;whiteSpace=wrap;html=1;" vertex="1" parent="1">
          <mxGeometry x="340" y="670" width="20" height="25" as="geometry" />
        </mxCell>
        <mxCell id="pUOc-OPtA9ByPZ5m1enT-35" value="" style="endArrow=none;html=1;rounded=0;exitX=1;exitY=0.5;exitDx=0;exitDy=0;entryX=0;entryY=0.5;entryDx=0;entryDy=0;" edge="1" parent="1" source="pUOc-OPtA9ByPZ5m1enT-12" target="pUOc-OPtA9ByPZ5m1enT-34">
          <mxGeometry width="50" height="50" relative="1" as="geometry">
            <mxPoint x="370" y="800" as="sourcePoint" />
            <mxPoint x="420" y="750" as="targetPoint" />
          </mxGeometry>
        </mxCell>
        <mxCell id="pUOc-OPtA9ByPZ5m1enT-40" style="rounded=0;orthogonalLoop=1;jettySize=auto;html=1;exitX=0.5;exitY=1;exitDx=0;exitDy=0;entryX=0.5;entryY=0;entryDx=0;entryDy=0;" edge="1" parent="1" source="pUOc-OPtA9ByPZ5m1enT-36" target="pUOc-OPtA9ByPZ5m1enT-38">
          <mxGeometry relative="1" as="geometry" />
        </mxCell>
        <mxCell id="pUOc-OPtA9ByPZ5m1enT-41" style="rounded=0;orthogonalLoop=1;jettySize=auto;html=1;exitX=0.5;exitY=1;exitDx=0;exitDy=0;entryX=0.5;entryY=0;entryDx=0;entryDy=0;" edge="1" parent="1" source="pUOc-OPtA9ByPZ5m1enT-36" target="pUOc-OPtA9ByPZ5m1enT-39">
          <mxGeometry relative="1" as="geometry" />
        </mxCell>
        <mxCell id="pUOc-OPtA9ByPZ5m1enT-36" value="" style="ellipse;whiteSpace=wrap;html=1;aspect=fixed;" vertex="1" parent="1">
          <mxGeometry x="410" y="170" width="30" height="30" as="geometry" />
        </mxCell>
        <mxCell id="pUOc-OPtA9ByPZ5m1enT-46" style="rounded=0;orthogonalLoop=1;jettySize=auto;html=1;exitX=0.5;exitY=1;exitDx=0;exitDy=0;entryX=0.5;entryY=0;entryDx=0;entryDy=0;" edge="1" parent="1" source="pUOc-OPtA9ByPZ5m1enT-38" target="pUOc-OPtA9ByPZ5m1enT-44">
          <mxGeometry relative="1" as="geometry" />
        </mxCell>
        <mxCell id="pUOc-OPtA9ByPZ5m1enT-38" value="" style="ellipse;whiteSpace=wrap;html=1;aspect=fixed;" vertex="1" parent="1">
          <mxGeometry x="380" y="230" width="30" height="30" as="geometry" />
        </mxCell>
        <mxCell id="pUOc-OPtA9ByPZ5m1enT-47" style="rounded=0;orthogonalLoop=1;jettySize=auto;html=1;exitX=0.5;exitY=1;exitDx=0;exitDy=0;entryX=0.5;entryY=0;entryDx=0;entryDy=0;" edge="1" parent="1" source="pUOc-OPtA9ByPZ5m1enT-39" target="pUOc-OPtA9ByPZ5m1enT-45">
          <mxGeometry relative="1" as="geometry" />
        </mxCell>
        <mxCell id="pUOc-OPtA9ByPZ5m1enT-39" value="" style="ellipse;whiteSpace=wrap;html=1;aspect=fixed;" vertex="1" parent="1">
          <mxGeometry x="440" y="230" width="30" height="30" as="geometry" />
        </mxCell>
        <mxCell id="pUOc-OPtA9ByPZ5m1enT-52" style="edgeStyle=orthogonalEdgeStyle;rounded=0;orthogonalLoop=1;jettySize=auto;html=1;exitX=0.5;exitY=1;exitDx=0;exitDy=0;entryX=0.5;entryY=0;entryDx=0;entryDy=0;" edge="1" parent="1" source="pUOc-OPtA9ByPZ5m1enT-42" target="pUOc-OPtA9ByPZ5m1enT-51">
          <mxGeometry relative="1" as="geometry" />
        </mxCell>
        <mxCell id="pUOc-OPtA9ByPZ5m1enT-42" value="" style="ellipse;whiteSpace=wrap;html=1;aspect=fixed;" vertex="1" parent="1">
          <mxGeometry x="500" y="230" width="30" height="30" as="geometry" />
        </mxCell>
        <mxCell id="pUOc-OPtA9ByPZ5m1enT-43" style="rounded=0;orthogonalLoop=1;jettySize=auto;html=1;exitX=0.5;exitY=1;exitDx=0;exitDy=0;entryX=0.5;entryY=0;entryDx=0;entryDy=0;" edge="1" parent="1" source="pUOc-OPtA9ByPZ5m1enT-36" target="pUOc-OPtA9ByPZ5m1enT-42">
          <mxGeometry relative="1" as="geometry">
            <mxPoint x="435" y="210" as="sourcePoint" />
            <mxPoint x="465" y="240" as="targetPoint" />
          </mxGeometry>
        </mxCell>
        <mxCell id="pUOc-OPtA9ByPZ5m1enT-49" style="rounded=0;orthogonalLoop=1;jettySize=auto;html=1;exitX=0.5;exitY=1;exitDx=0;exitDy=0;entryX=0.5;entryY=0;entryDx=0;entryDy=0;" edge="1" parent="1" source="pUOc-OPtA9ByPZ5m1enT-44" target="pUOc-OPtA9ByPZ5m1enT-48">
          <mxGeometry relative="1" as="geometry" />
        </mxCell>
        <mxCell id="pUOc-OPtA9ByPZ5m1enT-44" value="" style="ellipse;whiteSpace=wrap;html=1;aspect=fixed;" vertex="1" parent="1">
          <mxGeometry x="380" y="280" width="30" height="30" as="geometry" />
        </mxCell>
        <mxCell id="pUOc-OPtA9ByPZ5m1enT-50" style="rounded=0;orthogonalLoop=1;jettySize=auto;html=1;exitX=0.5;exitY=1;exitDx=0;exitDy=0;entryX=0.5;entryY=0;entryDx=0;entryDy=0;" edge="1" parent="1" source="pUOc-OPtA9ByPZ5m1enT-45" target="pUOc-OPtA9ByPZ5m1enT-48">
          <mxGeometry relative="1" as="geometry" />
        </mxCell>
        <mxCell id="pUOc-OPtA9ByPZ5m1enT-45" value="" style="ellipse;whiteSpace=wrap;html=1;aspect=fixed;" vertex="1" parent="1">
          <mxGeometry x="440" y="280" width="30" height="30" as="geometry" />
        </mxCell>
        <mxCell id="pUOc-OPtA9ByPZ5m1enT-48" value="" style="ellipse;whiteSpace=wrap;html=1;aspect=fixed;" vertex="1" parent="1">
          <mxGeometry x="410" y="330" width="30" height="30" as="geometry" />
        </mxCell>
        <mxCell id="pUOc-OPtA9ByPZ5m1enT-54" style="edgeStyle=orthogonalEdgeStyle;rounded=0;orthogonalLoop=1;jettySize=auto;html=1;exitX=0.5;exitY=1;exitDx=0;exitDy=0;entryX=0.5;entryY=0;entryDx=0;entryDy=0;" edge="1" parent="1" source="pUOc-OPtA9ByPZ5m1enT-51" target="pUOc-OPtA9ByPZ5m1enT-53">
          <mxGeometry relative="1" as="geometry" />
        </mxCell>
        <mxCell id="pUOc-OPtA9ByPZ5m1enT-51" value="" style="ellipse;whiteSpace=wrap;html=1;aspect=fixed;" vertex="1" parent="1">
          <mxGeometry x="500" y="280" width="30" height="30" as="geometry" />
        </mxCell>
        <mxCell id="pUOc-OPtA9ByPZ5m1enT-53" value="" style="ellipse;whiteSpace=wrap;html=1;aspect=fixed;" vertex="1" parent="1">
          <mxGeometry x="500" y="330" width="30" height="30" as="geometry" />
        </mxCell>
        <mxCell id="pUOc-OPtA9ByPZ5m1enT-64" value="" style="shape=image;verticalLabelPosition=bottom;labelBackgroundColor=default;verticalAlign=top;aspect=fixed;imageAspect=0;image=data:image/png,iVBORw0KGgoAAAANSUhEUgAABPUAAADfCAYAAACeX+a3AAAACXBIWXMAAAsTAAALEwEAmpwYAAAgAElEQVR4nOzdeViUVfvA8e/MsAzLsIOAyL4obiDuK265L1RaqRn6ZmZlaVn5q7dXbdW0sizLrMTSSlvUTNNcwC1zAVER2XdlFxDZUX9/PDCAgCwqA3o+1/Ve7/DMec5zz0jMzD3n3Lfs5s2bNxEEQRAEQRAEQRAEQRAEoc2QazoAQRAEQRAEQRAEQRAEQRCaRiT1BEEQBEEQBEEQhPtaYm4kHx9bxOGEPzUdiiAIwl0jE9tvBUEQBEEQBEEQhPvZx0dfIeTyYQDM9a15pMtcfNoPwUBbpeHIBEEQmk9L0wEIgiAIgiAIgiAIwr1kYWCtvp1dmMbXJ5ehp23AGPdpjHJ/QiT3BEFok8RKPUEQBEEQBEEQBOG+dzhhJ7+FrSO7ML3GcT1tAxxMPPC08qGTlQ/2Ju4iyScIQpsgknqCIAiCIAiCIAjCA+Nwwk7+ivyR5LyYesfYm7jjYOKGg4kHDqbudLL0acEIBUEQGkck9QRBEARBEARBEIQHTnjGaX678DWRmWcaNb5yRZ++jgpHE3cALAxssTSwqTFOJAAFQWgpIqknCIIgCIIgCIIgPLAKyvJJzInkYmYw4RnBJOZGUVxWoOmwmqyjZQ+NXLd6khNqJzrFdmZBuHdEUk8QBEEQBEEQBEEQqknMjSQxN4rTKUHqrrnCnbM3cUdf2xBPKx918k8k/QSh+URSTxAEQRAEQRAEQRDq8E7gMzW25w50HMdgx/FczAxWHysovUpibnSN8xq7pVeQVG5tdjB1w9OyJz7tfTUdkiC0CVqaDkAQ2pLy8htk5VwFZJoOBbiJpZkRCoVc04EIgiAIgiAIwgPB0sAGT6ueeFr11HQo91RibiQFpfmNHp9VmEpmweWq83OiKCirOr+hJGdRWQERmSFEZIawN2oLIG0n7tnel05WPXAw8WjiIxCEB4NYqScIjfTc/zazacshPLu4kZZ5RdPhYGNpQXh4NLOnDeWTtx7TdDiCIAiCIAiCcN8pKMvnt7Cv+Dt6KwB+nZ/mkc5zNRxV25VZcJnMgstczAxWr3DMKrhMdmH6bc/T0zagZ3tferb3Fav4BKEakdQThEZ457M/OXg6iUkTRmk6lFp+3/4X4we78drc1hebIAiCIAiCILR14RmneT9oHiCSevdSeMZpdbOS263sM9e3pqfdEAY7ThAr+IQHnth+KwgNOHYqmsPBCUyaMEbTodTp4clj2LFjJ8P6e9Czq6OmwxEEQRAEQRAEQWiyym3Nj3SWVkhezAgmPOMUFzNCSM6LUY/LLkxjb9QW9kZtwd7EndHuTzDYcbwGIxcEzRFJPUFoQGR8GjpKQ02HcVsGBkZExFwWST1BEARBEARBENo8A22VerstSNt2T18KYk/UjzW26iblRvH1yWX8FraOR7rMFck94YEjKuwLQgNy8gooLC7RdBi3lXetiNyrhZoOQxAEQRAEQRAE4a6zNLBljPs0Ph3/J+89tImH3Kai1DZQ359dmMbXJ5fx0p8TCM84rcFIBaFliZV6gnAHoi/8S07mpVrHXTx7k5oUSeG1PPUxlaklDi7dOfPPLqxsnXDr0g+AqLPHyMpIwtzKnryctDrnMrfqcO8ehCAIgiAIgiAIQhvhYOLBTO9XeaTLswRfCuK3sHXq1XvZhWm8HzSPQY7jmNt7qWYDFYQWIJJ6gnAHgnZ+S3hIYK3j019YxebPF9U45uDuxXNv/cAfm1dSWpTPO9+eBODL957C2s4VM6sO9c4lknqCIAiCIAiCIAhVDLRVDHacwGDHCRxO2FkjuXckYRcWBjaiqYlw3xNJPUG4AzNe/JiykiIO/rGeQ7s2MPeNDdg6eKCvMmHz54tw8vBh7psbAFAoFGhp6zL+8YX8vuFtDv25AblcAcC4aYtw8exT71yCIAiCIAiCIAhC3QY7TsCnvS+/hX3F39FbAdgT9ZNI6gn3PZHUE4Q7oKevQk9fhVJfBYChsRlGplY1xlwvLwNAS1sHgD7Dp7L398/Zv+1LAOxdutHZZzgymazBuQRBEAShLv8Ex/Lyuz8TEV27JERLcHex5av3n6JHZ7GyXBCEB1dxQgLZO3aQu2cP5Xl5DZ8gNJuhlxcmo0ZhPmmS+piBtoqZ3q+qk3pFZQWaCk8QWoxI6gnCPRQfGcybs30AeHLBanr0H4+OjpLhE+fyxw8fADBs4hxkMpkmwxQEQRDasLU/BPLzX2cZOWo0k/yUGokh/1oBLyzbytzH+vPUI/00EoMgCIImlefmcmH0aHT19DC0swNzc02HdH9LTiZ6zhzKUlOxfvZZTUcjCBojknqCUI9jx44xYMCAO5rDysaJcdOk2noObl7q4xfPBFXdPnuY7v3G3NF1BEEQhAdTXn4RbyzfytKlixoefA/p6SmZOmUy8199jxmT+6BQyDUajyAIQku7MH4c5m5u2E2YoOlQHhh2w4fz75uvoGVtjcXkyQA1Ot96WHprKjRBaDEiqScI1RQXF7N+/XpWrlzJY489dsdJPSMzK7r1GVXjWHTYcaLDjjNw9AziLp7ixMFfGD5pLpY2jnd0LUEQBOHBs3n7cYYOu7PXqrtpyKgh/LDtH/wfHajpUARBEFrMtdBQiqKi6fzuu5oO5cGir4/rxKlcWr5cndTLKkxV321pYNvoqULDk/jw670kpGTd9TDvZ07tzZnzxGB8+3a847nyC66ybusqIhPC70JkbYOhvorJw6YxpNfIZs8hknr3iYLwcC6vWUNZRgbXc3I0HU4NSidHlB070eHVVzUdym0lJSXRu3dv0tOljkndu3e/4zlzstM4sucHAFRG5nTvN4ZdP38EwPBJc3Hr0p8Nq55j769rmDH/ozu+niAIgvBgOXsxGS1tPU2HoSaXKwiPuqzpMARBEFpUysqV2A0dpukwHkgW/foR88dWihMSUDo6kllQ9RpkaWDTqDlCw5MYN3s1Q4YMokcvl3sV6n3pypU8Xnn/V75dPhMvT/tmz5NfcJWXV8zGytGETr0c716ArVxxcSnrt3/EtYI8xvk+2qw5RFLvPlAcFUX42LHY9u+PgaMjN+zsNB1STTIZhWfPEj5xAp5/7NR0NPWyt7fnk08+Ydq0aQB069at0efKkbYZyRVV/0kZGJuRnZbI798tk+Z36YaxuTWJUaEMGj0TE3MbjEzbYevgQfCRHUyc8TpGplZ1ztVYfn5+TJo0CX9//yafKwiCILQ9ufklGJtbajoMNSMjFelXrmg6DEEQhBZVHBON9aDBmg7jgWXYzkGd1AvPCFYf72Tp06jz5y/9kWlPPEp723b3KsT7lzN07ezOxDmfkXRsVbOnWffLx1g7mdPV585X/LU1dva2fBWwiqF9RqOvZ9jk80VSr40ru3KF82PG4P3GG5oO5baMAPnRI0Q//TRu33yj6XDqtWnTJr777jvef//9JiX1Rj76PMP95qLQ0lYfe3f9yTrHrtx8AS1tXQDkcjmvrNjJjRvlaGnp1DtXY23btk2d0BOJPUEQhPtfQWEx+ibXNR2G2vUbNygpLtV0GIIgCHdVYm7Ube8viL2I4RPTWiga4VYmrq7kBgVh4utLVkHTtt8mpGRRflMhEnp3QE9PiauzA0H/RjR7G27QiT3MnPfYXY6sbVAqdfHu1Z0jwQcYNXBSwyfcQlQxbuOyfv8dI/vmL3NtSVZ9+pK6baOmw6jXqlWrGD58OLNmzSI0NLRJ58pkskYn4SoTepXkcrk6odfUueoSEBBAUFAQy5Yta/YcgiAIgiAIgiBICsvyb3t/+c1roK/fQtEItdy8CTduAJBdmKY+3Jik3va/QzC3aD0r3tsqXT1Dgv6NaNa5IeH/YmRqdJcjaltMLFUcPxvUrHNFUq+NK01Pw8DCQtNhNI62NgaWLpSkpjY8toWFhoayf/9+Xn75ZQAMDAw0HNGdCQgIwMHBgVmzZmk6FEEQBEEQBEEQhHtLJmtW59usnGuUl924V1E9MGxt2xEdn9Gsc/ML8tHSVtzliNqe8htlzTpPJPXauJvFpVwvbTvbXEqzspDJNB1FTYWFhcyZM4dNmzbVeb+FqSHa8lYW9C20FTIszVQ1jvn7+zNkyBBmzZpFbm6uhiITBEEQBEEQhPtHUzqqCi2rOZ1vy8pv3qtwHih6ekrikpvXOTg6IRwLS9O7HFHbYmffnuikyGadK2rq3WcuZWexLfQsV4uK6OvszDBPT8rLyvglOJjrN6q+gfDu0IHOHToAcDoujjPJyXRt356+rq7qMbvPnuNKwTUAjJRKBru7Y2JYVbgxJz+fv8PDic/KwsPamknduxOflUVQVBR+Xl6YGUlLaH89dQoDHR3G3IVusvfC008/zfLly7GoZ8Vjj66ObNx+us77WovyshJ6dHaoddzf3x9jY2MmT57M9u3bMTEx0UB0giAIQkv5ce1rpCVGIpMr6NJrOMMnz0Mul77D/WLZdMrKSpi/7GfOHPuTw7s21Dh34OgnCdz5DU88vxKA375ZQt/hU+k34nESos7wxw/LefGdLQAEH9nBwT++JivjMl18hjLl6WUo9Wt+uSQIgnC/yKxWp81Cv3EdVYWW15zOt/LWtuLkASWXifVmzSWSeveRhIwM3N56q8axpA/eJ+taATM31Hzj/ta4ceqk3n++/57w1FQ6mJoS9/4HULEqbdLaL2qco1IqOf7663jY2nIuKYkxn31GRn5+jTktDQ15ccsW3Nu1Y1BFUu+lLVuwNjZulUm9H374gQ4dOjB8+PB6x3T1sOOFGYN5e+2vTBw/EjNT4xaM8Pau5OSx4489vPfKBNycresc4+fnh5OTk0jsCYIgPACiw/6hsKAAbR1tdv/8CZbWTnj1H8uVjBRiLpwAID0lhuKia6SnJVFaJL2O6+ipKCy4SlpKDMXXrnIt/wpJsefIzkqhz7ApXMvPIT5S6igYfiaQTWteAcDKxomQo3/Qc8hkOnUXnR8FQbg/VU8WCa1XYk5VQ5PGdr4VhLZOJPXuI9tDzwLw29y5TPTyYl/4BcwNVWRdKwDgv2PHsnj0aAB0taR/+ujUVMJTU1EplSTn5BCalIiXo6N6zgHOLhx4eSGrDx5g8e/b+PHkCZZNnMScTT+QkZ/Pt0/OxM/bi3/iYsm+VkBeUVHLPug7kJCQwFdffcWxY8caHPvw6B5czshl1bqfURnqk5hwqQUivD1H5/YUFBSx+LlxjB/a9bZjvby8WL16NZMnT2b16tV4eXm1UJSCIAhCS/Md54/v+Nm84e9NYuxZvPqPJTHmrPr+pJhzDBw1g4GjZvD1+0+jq6fPUws/IyfrMju+f7/GXAV5V4iLqLla/cD2rzGxsObl97ejMrEgNvwkhkZmLfLYBEEQBKE+BQ00NBGE+5FI6t1HdLWk4pJfHz2Kt709I7vUTPSU37xBaXm5NFZX6sC6raLL65fTpjHju+/4/UxojaSeXCFDoa2NRztp+bK2QovE7GxCEpMY5tGRmQMHADCqazdpnoMHAbicm0tylrSnvqiseQUf77Xp06ezefPmRo9/YeYwXpg5jMLCUuQKzS/TvnH9Jvr6Og0PrODl5cX27dtFYk8QBI0rz88nZcUKCsPC4HrrfI1QurrTbs4cDDw9NR1Ks+gqDdDRU6GQS2/1EqND6eTly7W8TOIjg+k7fGqDc+joSdtpQ//ZTUfvIQCUlZYQd/EUE6a/hspEKlvh4tn7Hj0KQRCE1sdAR5QaaK2yqm2T9rTqedfmLbyWR9S5Y2RlJOHg5oVb574AXE6K5EpGinqceTt7cq+kcv2Wz7+mFra0d+xU59zpKTFkpiWCTIaVjSNWts615jYyscTetVuN83KyLnPxzCFkMhke3QdhZtkegLwr6STHhanHmVm2x9TClotnD+PetR8Kubb6tqHKvM5zlPqGuHr2oby8lJCjO7mam0n3vmOwtK5d7qk1yM26yj97QlFoyxk4xgcDIz0unIqhuLBEPcalcwdMLKSdhOGnY8nJuopX/44YGOkBcCUjj/iL0vOtq6dDR2/nGs07Mi9f4czRi+jo6NB/tBfaulqcPHgeWwcrOrhKO+YunIxGoa2go7dzSz10QCT17itP9O7N6gMH2HvhAs5vvsmrDz3E+5Mnq+9f/tcelv+1B4Dk5SuwNjVh84kT9HCw57FevZj3449sOvEvb0+apN6CG5qcQv8PlnMqIZ4OpqbM6t+P6IxMAHwc7OuNZcZ3393DR3rnXn75ZebPn49jtQRmYzUlkdbamJiYqBN7S5cuxdfXV9MhCYLwgLlRUsLZPn0wd3XFqn17bt5snQWqb169StzMmXT44ANMRo7UdDhNEnHmEClxYZQW5ePepT8AceEn6dJzJAX5OZw7vbdR82jraNO150hOHflD/QHmaq7U2c7GwYOo8/8QcmwnAMMnP9tq3+wLgiDcqaKyAvVtBxMPDUYi3E52YdpdnzP3Shqf/vdRcrOq5p4w43WGTZzDtg1vq0tbAPQe+ignA3+tNYdXv7E8tfCzOuf/7btlRIcdV/88aeYb+I6fXWvuPsOm8PizHwCQEn+Bj16fpL5PR0/FS+/8jK29B6cObWPXT6vU93kPGE9f3yn8sHoB/gvXoKdvpL7dvd8YgFrnmFhYs2TtUTavWUTo8d0A7Nu2jhUbzzTuSWtBJUWlvDltNVnpUmPIi8HxvPDe47z99Noa4154dxqDJvTk5s2bfPjiNxQVlDBv2RP4Tu4FwJGdp/jxs93q8Y7uNizb+CJKfV0Soy7z2pSq5yf0nwjmLXuMj18OYMz0Qfi/5gfA+vd+wcDIgPd+eOleP+waRFLvPmJiaMjZt95i7aFDvLt7Nyv//ptudnZ0tpFW2U3x8eHxntI3FlYqQ2LS0ghPTeVRnx7svRBGN9v2HIuLrbUF18LQAIDhHTvS3tyCxOwrABSUFtcby8IRI+hkLWWsn6mnq6ymHDhwgKysLB5//HFNh6IRlYm9BQsWkJCQgL+/v6ZDEgThAXJ+0CC6P/cc6LT+L0jM+vQh9sMPQanEZNAgTYejFhERgY2NDcbGddd4TYo9B0DH7oNw7z6A4qJrJMdfYOwTiyi8lsvhPRu5mpOBkalVg9fy7juWfw9sIeLcUQDKKl77FTItMi7HceLgLwB07ztaJPUEQbhvJeVGNTxI0Kgc7UL17Q7GrrcZ2TQ/r11MblYaBsZm2Dt142JoEMmx5wG4XrELzrVzHwBsHTpi6+BBeWkpGanxgFR71tyqQ73zl5eVAuDk4UN8ZDA7vn+fPkMfVc/dsfsgIs4e4cTBXxg+aS6WNo5srqhra23nSll5Gdlpify5aSXPvPENZWXS6jRzawcUMrl6Bd/tVJ7j5OGDQksLE3MbsjOSCT2+G3NrB5zcvTl9eDs3btxQN99qLU7uP0dWei4dezijo6tFwdUCrld0NDY2M6S9czsAzKyluvLpydkUFUiPNzY8SZ3UKymRnu8uvd2IvZBEQlQqx/eeZahfb75c8jMAFu1MKCsrJ+5CUos+xoaIpN795MZNlEolL48aRSdrayauXcuF1MvqpF7X9u2Z2KOHevj2iq23vwaH8GtwiPp49S24Xh3s+GP+fMZ/9hkBx4/z4rBhOFlIy3R3nj3P6qnXkSmkZallpaXqOSZ068YgD+lbrP/u2HHvHnMTZWVlsXjxYg4dOqTpUDTKxMSEgIAAdUJPJPYEQWgJaRs2oKun1yYSepXMnJ25tGpVq0rqnT9/nkGDBvHuu+/Wef/wSXO5fr2MoD+/I+9KOplpCQBs+fr/KKv48JAUe44uPUc0eC2XLn3Q0VMR8o/07XXlltvszGQGjppBtz6jWPJMv7vwqARBENq+K1evsmzXTv6NT+BhL29eHz2a/+34A3NDQ14aKf3NXfzrrziam/PskCE8t3kzRRV/l2UyGWufmIZSqeRsYiIr9u4lOSeH10eNZpRnJ54KCODpgQMZ5unJ10FBHI+LZcPs/9QZx/6w82w+eRKZTIa1kTHzh/piY2auPl5pVOcuPN6nD98fPcYXh4OwURmz5onH6WBmVmds648eJSQpEZlMRmdbW+YPHcb6I0c4f+kSX82cqZ534c8/093ODv+BA9kfdp6vDh9hep8++Pn4MPf77yktr7k99emBg/giKIjZ/fsxoqKE1G+nT/Pt0aNcv3GTWQP683gfKXH2dVAQpxISWDZxArZm5vwbE8PHZ87wwqCqL5b079IW6eyMZCLPHcXKxomFH/yOUl/FlYwUIiu+6AIpsfb8kqqSTkPG+kvPwVRXfAZNYsb8jxq8jpWNEy++s4XfvlvK0T2buJwYoT4+980N/P3b5/y1ZTVpyTGUl5eRlhKDR7eBzH1zA2WlxXz46nguhgZRcC1HPeeLy35Sf3kXdbbhGvIAsxatRWUsfdaPCD0CwNjHF9Kj/3h8x/+n1SX0AFKTpB0EL7w3DUtbMxKjqpraDBjbg6denVxjfHxE1Xbp6POJteabv3wGqQkZLJ39BcmxqVxKyCA+PAVHdxve+3EB5WU32Lkx6N48mGYSSb37yJzvN6KjpcVAV1d+CZY61PXoULVF9nhcHF8FBkrH7e356dQprFQqzvxX6phbXFaKy3//W7UFt5r5Q33Ze+ECXx85wprp05nUvTs7zp5l6KqPmOTtzfG4WNqbmOBu1fC3/po0c+ZM1q9fj76+vqZDaRUCAgJYsGABs2bNYsMtHZIFQRDutuzt22nXxmrUmXbtSuSvrWPFeWZmJjExMcTHx5OVlcWzzz6LeTtXJsz5uMY4hbYOfYZNIejP74g8d5SruVLZDFNz6dv6+LwrJESeaVRST6HQot+wRzm0S3qN0DcwwcDYjOP7fqLXEL+7/AgFQRDasOvXmfTll/wbFwdASGISg93c2BV2HgczM3VSb+e583S3a8+03r1Zf/RojSmW+z3ClcIChn78MfnF0spovy/XcnnFCn4JDqafszP9nJ15/qef6OXoVG8o+yMi2XSiKnm34+w5LixdUuu4Sqmks40N//nhe/WxwcFuPD1wYJ2xBRw/zrmUqqRIYnY2Sm0dvj12jOUPP4yJoSGlpaV8HhjI2xMnArDldDA7zp6l9Pp1/Ly9+a6OJoUDXN34JTiYvk7OjOjSld1nz/H4+vXq+w9GRqCvrc3EHj1Yd+QI51JSsDE24W2/yUSmpbHt0iWeVpSrxzuYuNX73DRF1Ll/ABjx8HMo9aVEoZmVHf1G3JsdX3ZOXQAoKSmocbydrQsAN66XEV/RvKr/yCeQyWTo6OrRY8B49v32BZmXE+5aLDe5AUBqYgT0H19vTUBNq1jQyKX4DCxtzXBwt6WkqLTe8fHh0u/voHE+HNkVTElRKbp6Nb9stra3lOYuu07kmQQARj42CC1tbbS0Ycq8Ube9RksTSb37yEBXV57+4Qe+PiJl1V8eMQI/b28SKhpW/BUWxl9hUgHM5319OZeSwvyhQ7Eyqdq+M8XHh1+Cg4nNSEelVKJdUWD7Ic/OWKlUbD55kjXTp7P+ySfR1lLwa3AIx+JiUSmV/DBrNpfzpL3s2gpF9dDQ1dK+54+/IStXrmTkyJGiQcQtVq9eTUBAgEjsCYJwzxXHxqHb9fbdulsdHR0UMiUlqanoVqx8v9fCwsKIjY0lLCyM6OhoIiMjiYyMREdHBxcXF0pKpG0jZmZmePZ7pM45LG0cMbGw5uKZQ5SWFNGtz2hmvfI5AGvffrJWR9vb6d53jDqpJ5PJ8B03m10/ruKj1ydhYt4yz4kgCEJr4GHpXe99QVFR/BsXRy9HJ14ZOYKP9u1vVMPA/wwYgJ+39PnESmXIO7t2kV9czJN9+zCiYyde/e03yq5XJay2nJb+fr8ysuEvZvYtWMDSP3ZyLC6W89WScX++8DwALpZW/H5GqpO296WXSLmSU+P8W2MD6OFgz5JxE5jx3bd8eegwP8yeDUBYyiUGdvQg/LK0UqqHvbTl9J84aRvq0ZgYQMZPTz9NZn4+L27ZwlQfH8Z17YpXh5rbU9/dLa0OX//kkxSUlLBg61bWBAbW2HW25fQp3varWoWVqsxT3zbQMWrwuWmMqznpADh36klZaYk62aara4C2jtR4Mj//Cv8e2ApAtz6j0DesuzRGYxTkS8+/voGJ+lhZaQnnTu0DwKxdB9JTYgGw7lCVuLRuL203LizIrXZeMaWlxSgUjU/5nD60DT0DIxw9vNVbhvdv+wodHQNGPPwsMpnmm0Xeytpe2kGw+tWNvPThTLwHViUf48JTOPD7CbS1FQyeIJUhizybgGdPF1y7OXBkVzBJ0Zdw61aVIL9x/QanAqXt1dYdzMnNkn6vnDrVvY054kw8v677G4DczHwMjAzu/oNsgEjqtRE5OTksX76ciRMnMmDAgDrHPDVwIE/27UtG/jUsDQ1QaEuJNEcrK8rWras1/uMpU5DLaybffnz6aX6YNQuFtjZXPv4YKv7DlSkUXFqxQj3OVKXip2fmsrm8nOyCAixVKqhYjvufAQOQa1X9al1asUI9j6aEhoZy4MAB9uzZo9E4WqvK7bd+fn5s2LABExOT258gCILQDNeLCtExaPk3O3dKx8SU8itX7mpSLyUlRZ2si4qKUt8uLCzE2dkZV1dX3N3dGTNmDC+++CLu7u4YGkofqCIiIujbty9BQUH83+rAmrFq6yGXSa/tnt7DOHtSet0bMelZ9RiXTr3Y84tUsFuuUCCveMNf+Z5ApqWo8f7Awc0LWwcP8ipW/A0d/x+y0hI5cfAX0lJiMLd2wMqm/hUjgiAIbVlibmSNn2NjYzl37hwXLlwgPT2dNWvWALAtVCpn9M2TM/C0s2Nsly6NagbVtX17RnWt6my66cQJVEol62c8iUJbmxGdPFFqV322WhMYSAdTUx7xrj/BWMm3UycWFhVxbF0smdeuqY9Xv15qnpS0GOzmhlbF58erBQV1xgbQ3tiEsd274d+vH2sCA3GzlFY1nb8sJfXCKpJ63e3suVZYSFR6Gt3s7KMoPTYAACAASURBVDiXkkJCViaP9upF3rVrvLhlC/1cXJjWr5/6egCpV7I5lRDPc76D8R84EIDAyEh2nD1LUXFVTfe4rCzCqyUqq7M0sL3t8+Lt7U1gYGCDn3mu5kqLYwyNzAncuZ6/tqwGajatKMi7wpZ1bwDQzs4VJ48edU92GwWFeZw9/hcHd0qrEy1spK3EGanxvDajMwAO7l60d/TkdNA2APXKQQBtHamDa9G1q+pj784fBsDoKQtwcm/4dwXgj03LARg3bREjJj+LW5d+RIcdZ/eWjygsyGHSzDea/Njq4+/vz4IFC+54wU3vYV34fqUuRQUlLH9+PYs+mUW3flIZsIiQOCJCpJWzg8b7cOP6dSJC4pg4axgO7tLvSHzE5RpJvXkjlwGgZ6BL34e82LlRep9loNKr8/rx4Snq1X+aIpJ6rVxxcTGffvopH3zwAXl5ebzxxu3/Q5JraWFt2riETPXEW9VBOYrKvfK3rLar9XPFHJa3FOquNW8d57Wk/Px85syZw19//aXROFo7f39/vLy8mDx5Mtu3bxeJPUEQ7rqbZWWtttvt7dwsL4dmxF1QUKBebRcdHU1ERASxsbFcunQJBwcHXFxccHd3p1evXjzxxBN06tQJI6OGVxdYWFiwf/9+unbtCtRM6r320W51ku6R/yzFb9Z/AVAoqlbMP/TofIb7SUm+WYu+UH/zbmzWjpU/hqOlJW1D6dpb6vorl8t5deUubtyQtuIotLR5/NkP8PN/i8JreZiYW7fKb+8FQRDuhoLSfPXtsrIyXF2rmjAsWrRIfTs6PRMrlQpPOzsA9JTKqjlKSknLkVZRlVdbdQdQdv0GN8rLkctkIJMRl5XFjD691Qs0rEyM1UmvwMhIzqWksObxxxv9GSunUGogYVQtnhsVexblWlpYVnxh9Opvv/HJlCk15q0R2y3Xyy6Q5q1cZReSJDUPOJuSgkqpxNrUhGNRUoOR54YM4dnNmzmTnIxjA+WaEiqaMg5176g+NsjNnR1nz5KZL/1b9HJ04lRCPDvPncO64nUzTj9bPd5C//ZfwoWGhuLt7c22bdtuO67S9fIydPUM0dFTUVqUT0lRVRJSR0+Fz4BxAM1evV6Qd4WAT+YDUsLQUGVWa8yIyfOQy+XIFNJn9Rs3rqvvu3lTuq2to6x1XlP0HDwZbR0l9i5SInfmwk/57sN5xEcGE/Tndwwc/eRtm340RUJCAr6+vne8U8zQWJ//fTOP5c9/Q96VawQs38aqba8BYONogWdPd7S1FchkMi7FS19OOnZsj72r9G8VG5YEU2svmhr2cF/MrIy5cV16/3e94j3QrYzNDHHsKK3iO/tPZJ1j7jWR1GvlAgICWLx4MQDOzs61Ot0pjFXI21B9OMOOHeFGy36g8/f3Z/ny5VhYWLToddsiLy8vVq9eLRJ7giAITVB9i2zlqru0tDRUKhVubm64urri5ubGmDFjcHNzw9zc/I6uZ2FhUe9rmqJauQu5XI5cXrspiUwmUyfubt2WU3n81rkq56tOV6mPrrLtvAcRBEG4U9ra2owdO5bdFdtDZ8yYob7vUm4uDuZ1/20+GBlBh8Wvq3/2cahq6vDqb7/y6m+/MqFbN76taDZhZ1Y7qQOw85zU3fypfo1rUPTs99+zNTgYlVKJV4cO/BoirSbUfV7afnvq//6Phzw9WbJzJ58HBhKdkcH2efPqjO33inNCk5OZ/vXXbA0Oxs/bG4W2NgOcXTiZkABAcFIivu7u0u1EKdE31ceHZzdvJjgpET8fn9vGXJm4s672udfSUFrlf6UiuTnAxZnE7CzWHT6Mt71UQ/5Sbh5UbAbYtOFHdIt33fY6lUml4ZOeAe2OdY4xqmgOlXsljSFj/Rky1p+FU2t21jUzb8fUZ+puXNUUHbsPwrlTT4ZOnKM+ZmXjxPQXP+aT//Pj8O4AuvQcjr6+9LwUXsvDxMwagPw8KaFpYFT1e7Pow52ojM1R6qtIiAihMSY++X/qRhkAhioznlvyAxtWPU94SCApsWH1JvWu5qSREnGQZcsa3nIOkJiYSF5eHg8//DCP+fth17P57yecPe1ZsXURr09dRVZ6LlevSL8n3gM9azTKiL94CYAfP97J719LW2YvBsfVmOvDXxbx0cIN7PrhEI89PwYjU+mXKj/nGjjWTkj3H+ON/2tSjeEFk95v9mO4EyKp18o9++yzBAUFsWfPHnzq+AOo296OK7t2004DsTVZYSEFcfFoW1u32CU3btyIm5sbw4cPb7FrtnXVE3urV68WNQgFQRCAzOxsQo4cUSfuoqKiSElJQaFQ4OjoiJubG25ubvTr1w83NzcsK7YjCYIgCPcPSwNbLC2lAvmenp50795dfV9+cTGmes1LTFipVJjo63GtomaqbgN10CLS0vB2dGxw3m8rmlL88swz6q21ldcD0NHSwsvOjrfGjeOdXbvYe+ECqw8c4JlqHd8rY6uUnJNDckVTxtVTpwDQ29mJT/bvp6SkhCPRMeomGSfi4xjg7ILKwABPGxv+iY1tMObKOoRa1b5IqlwNXvn/cpmMx3r2ZE1gIPamUiKrvH3VSiqdIiNu0riFJMVFRVBP+ffKlXfhIYHY2ns0ar7mqOxyWxd7l67qbbBFhfkYGEuP91J8uDqmyjq5xqZVSSeVsbm6++2d0NLSod/IJwgPCaSsrKSB0TebtSOjsKAIuLMvCU0tjRg8sRc7AwIpKy2vc0zsBSnJnJWeC1K5RNJTsrl2tVA9xthche/k3mz5/C8izsRjYiH9txIZEkdHb2cArpfXPb+miKReK/fzzz/Trl07wsLCCAmpnWG3euIJYua/SPHgSyjb1128sbWI3rIFm3lzkbVQK+yEhAS+/vprjtXRYUm4PS8vL7Zv3y4Se4IgCEDBjRu8+867ePbuhYuLCxMnTsTFxQWbFmqccTsdbMwplWu2zEV1Wgo5tjammg5DEAThrskqTFXfPnPsHPHx2RgbGzN9+vQa4yyNVGQWFNx6OgDjunTl93lS2YNOS5bUuG/11Kk8X7EAoaCoCIDseuZ5sm8ffvj3BN8dO8aaRiT11s2YwdxNm/g7PJzJ1RaIXFq1qsa4/02ciLOFBbM2buT3M6HqpF712Cr1cLBngLMLawIDORIdw2N9zOlRsVquciVhZZOM43FxaCsULP71V4rLyjgSHQPXr3M7ZgZScudqtfp5lbdNq+1Qm+zlxZrAwFrPuVLbgKVLl972GsuWLcPY2JigoCC2/B3HmajcOsd18h4CwK4fV2Hn2BlLW8daY8rKy9Rd5nV09VDqGd722s3h3nUA0WHHSYgKwblTLwD2/74WJ48eZKTGEXL0D6xsnLCwdmhgpipZ6UmkxF9At1q8+bmZ3Lx5A4VCi7BT+ykuusaAh6aRECklcY3N6l9KZGRqjV3H4Sxd2ri6e0FBQeTk5LB69WrKDfKIyDjV6Nir++6D3/EZ0plOPZyJCk2Q4jSXHlPRtWJys6Q6gwZG+kSdS8DG0YL57z8JwNHdwezedJjEiEs15uzcU1qNeeFULEMn9wZg27cH6NjDhfKycrZ8sYc3v5rbrHjvBZHUa8USEhL47LPP+OcfqZW2XUV9hlv1S0/jpJMTKltbDNu350a1P4CtgUKppLCwEOMpj2L78istdt2ZM2eyefPmFrve/cbExITt27cza9YsJk2apG6mIQiCcKde/HEzpxOT+eyxqfR0lr71/PnECT47GMjTAwcwe9AgSktLef7HH/ntzBnc2lnxyaNT6O/uzrBVK5nSw4d5w6QC0OsPHWLfxYv0cnAgKj2d9f7+PL0hgPOp0hs0Ax0dDi56tVYMOfn5+H70ERv9/Sm9fp35W35GIVPgaW3NM4MH0dvFRT3WQC5n8+pPMOjSpQWenaYxM1ZyNi6Lrty7FQRNkZqaQademk92CoIg3C2ZBZfVt5OTU9i79zDz589nZsVW2Uo2KmN2JZ4nv6AA1S1NoeRymbruuNZtVuEZ6Eo10f6Jq3tFm3cHeyLSMvjq8GE+fOSRGnX76jJ70CB+OnmSn0+fZu0tSchbzejfn2+OHCX1at5tx7U3NuEDPz/WBAby25kzPNanD14Vn1MDjh8HwMvOnqy8PJJzpG6uH+3bpz7/Yloatsb1d4g1M5ASMhcuX2aYpycApyu29lauMAQY5OaGSqkkKj0NM8eqZJ+Diftt4wfo1q0bhw4dwsTEhC1/x9U7zsjUip6DJ3P68HbWvT9LfVxe7d8wOy2RJc9I26F7+z7CE8+tqDXPnXLqKCVkYy+cZPz0V7F18OByYiTvvViVcB005qkmzfnnjyv588eVWNu50q3vGABWvjoeAANjM0b6Pcf2je+xfeN7gFQ70N61W73zNZWpqSlBQUF4eXnxzS+fNnue7PRc3p9X1RS0e38PdHSlpZeB208SuP0kAM8smUJ8eArDH+mLS2cp6Xwtr5Ddmw4Te0ujC6dO0u/zuX8jmPbSWDy8nIgMjed//lJTnHZ2d1ZG5W4TSb1WbObMmfz4448NjpMpFPROSCDz118pSUpE1tqSeuYWWHXsiOnQoS12zYULF7Jw4UIcG/ENllA/ExMTtm3bpk7oicSeIAh3w5/nzpOck8PG48fVSb3PDgZyKiEen4pv95/b/CMb/z1OB1NTQhKTGPLRR1JXdqSVAJVJvV3nzqOvq0NCdjYR6dJeioOREeQWFWFjXH9d0KKyUsJTU8ktKiIzP5+QxCSsVCpOJcSz8d/jhLz5Jl0rVh60Zr59PQg8uVfTYahduZKNb5+We71virLyUiLjL4imHoAMOZ538cOZIDwoZsyYgVKp5J133sH6lpJCA91c2RV2ng/27GHphAl8degwPg5NfB2RyxjZqRP7Ll5kR0gIwzt2ZOHWrbw9cYJ6yJyBAziVEM+vISE82b9/g1OO6tyZoKgoztfTKfajvXuY6tMTW2NjUq/m0b4RTRd1dXUZ2akT+y9ehOvX6VjxXOy9cAErlYp2pibsCzsPwAd+fjiamxOVns6SnTs5k5SEbdeu9c7duWIV/OeBgfj360dyTg4Bx48zyM0VZbUkpkyh4BFvbwKOH0dLv2kr1isTeo0xZc47lBQXcv6kVINNR0+FV0USTGVSs9TGrTvSqteprY9CSwstndrjqh/v4Cx9qZiWEgPA7EVf8uV7s8hOSwRg4OgZDBg1veKaFR3tqzWvrGy6otDWQd+o5uPW1tZFZWR+yzEdOnYfhIGxGQV5UuOSGc9/iK6yZrL6TjS2SUlDBo7z4XRgGAAW7Ux46nU/tHUU6BlIHXErFeZLOZLKhB6Ag4fUATcjJQszK+l50dJSoKPUpktvN8JORgPw0odP8s4za0lNkLohj/f3RV7RsESrWmdqpb4SHZ2WT7GJpF4r9fzzz/PKK680Oiklk8uxmjr13gbVRhw4cICcnBz8/Pw0Hcp9IyAgAH9/f/Ly8njppZc0HY4gCPeJg5FSV7zCoiJOJcSrj18tKGDjv8d5zncwnz4xnYPh4Yz69FN2nD3LAFdXvggMghs3ABmHY6JZNmECEWlpNeZ+ecQI/jthAk2R8P77XExLw+e99/g8KIh1t6zCaI1GDurCJ98dJCsrBwsLzW57vXw5A0dbI/r5uDY8uIWFJ5xlzptTcHV2o7C4SNPhaJyVpSW5WXlseG8HOtq6mg5HEFq1s2fPqj81mxpKjRNuTegBPNqjB/+3bRsr//6blX9LCaDd819ocP4FW7eyYOtWAC6t+JCZ/fqx7+JFHl1XtfpoyfhxNa7zzKZNfHnocKOSegMruvUejo5WH9OeK20dfGHoUOIzs1j8+zZUSiX5xcU1mnDcGlt1vh4e7Lt4kXOXLtHNXtqSeywuln4VX9ZVNsl4wdcXpVJJ3rVrLNm5k1OJiYy7TVJPqVQy1ceHrcHBmL38svr40wMG1hr7cEVSz7TaSj1Pq9s34gCa1AxQR1eP2YvWUlRwlau5mVi0s1c3kpr1yuf1nrdy84UaK/rq8+x/NzZ4XEdXj5WbLyCrKLdh3s6e/352gOyMZAxUpjW2/I7wew7f8U+jrVP1t93FszcrfjiPjq5UG/GTrTG1rjdw9Ixax5Z+eZSstERMLdq32sZY/UZ2p/vR98jJyse6gxmKimRmwD8f1Br70NQB6OpVJVBNzFX8cGIFCi0ZcoWC8TN90VFK/7ZvfDmHyoa35u1MWL3jDTIuXcFApYeBkfQ8bjr1IQqtqkTuu9+/hEzWsk1BQST1WqVt27Yhl8uZNGmSpkNpc9LS0li8eDGHDh26o3nikjKITcxo6Ua994SlmYoeXRpfX6E+AQEBrF69mlmzZt1x63FBEIRhHh05GBlB9tU8zl+StjZVdssLTU4GwL/fAGlsx46olEoi0tPo6+TC8uI9xGZkoKulIL+4mD5OTrWSes3Vzd6eGX16ExQZeVfmawm7N7zIQ099QmmZgusyzdTXKy8txsZcn9+/ek4j17+dfcd2sjv4J156fV7Dgx8gpaUlPPP2I3z62iaMVaLbvSDUZcuWLRw9cQjbAVJC43ZbOx2trNjo789TAQGAVHuuj5MzulraaCmq/jZryWXoainQr2N1FsDjvXpzPC6GtUGHAfDv1w/Tii2pOlpaqAwM8O/Xj4DjxykuLq6xeq2STrVkUmW9u/OXLuHWrmbjhBs3rzO1pw+7ws6TX1xMX2dnXhw2DKV23Z0jdLW00a1YmTTYzQ2A8NRUKann7sqxuFj6ViT1YjIy8bSxUcdnbGiIs4UFkWlpyCtWTGtXPC+KihVuOlrSz2unTSMmK5OQisTgwhEjmFaRbNTV0ka7YtyITp3oYGqKiVE9nS7uIj0DI/QMjBo9XqvaFyZXMlI4+++eWmMcPXrg5NGjzvNrdaev4wuYujrRymSyGgm9SpUJvabQ0tLB2s6tyee1NH2VHvqqhh9f9YRepcok3q23FVpa3PqOyqp9za7U2jq3/htp5j2YSOq1MgkJCXzyySccPnxY06G0SdOnT2f9+vXo6zf/m4Sxs1dz5kIy7i725OVfu4vRacbNmzcx0FGw89v5mJveWeHWBQsWEBAQIBJ7giDcsYGuLhyMjODfuARCkhIZ5OaKQcWb0Iz8fAAczCrePMnlOFlYkJ53lZ4O0pcUZ5KTUWpLb868OnRgY0Udn0rL/vyTLw8d4j8DBvK23+QmxeZpY8umEyfv5OG1uL0BC9i2N4TL6Tkaub59ewsmjmidTZW++GkFYx8d3vDAB4yOji42DpZ8/evHvDrrbU2HIwitzu7du1m8eDHTvxxEwtWLjTpnWr9+TO3Zk8u5udibm4NczrHXXqX6pv/Qt96SygDI5ZRVW41X3adPTOfdiZMpKivHykSqP1f0+efqenzrZ87kq+nT1dsqb/X2pIksnSDVR9PR0aH488+lxJlCwSujRtcaP6FbN64UFuJgbgFyKdq6Yqv+WPq6ulKwZg06FavW3ps0mSXjxqt//mbmk7X6z0a8Lf2tkSkUNR6PgZ5ejZ+NDQ058cabpOXkYqynrFE78Nhrr6rLKGjr6BD3/gd8krOJs0jbKztZNrxSr6Ulx57nj03Lax0fNumZepN6gtBYIqnXysycOZPvv/9e02G0SStWrGDChAl31KnV79m16Bvb8Pqipm3Zau2KiovpM/l9Qnf/D0OD2xfUbUhlXT1fX1+2b9/epOXrgiAIlUz09elmZ8c/8bEci4phaEcPziRJK/RKy8uBqm/uq7M2NcFKpSIkKQmltjY9HOzRqWO1g7OFBZ2sbbA3ezA6scpkMh4e3fo+yGhaXHI02rpamJiJ16q6uHg4sXdbkKbDEIRW5/Dhw8ydO5fDhw+zKaH2Nr7b0dLWxt6yqtaaTFFz9c6tP9dHZWCAqtrPWtUTeHI5CrmcdUFBJOdcqXFex3bWzOjfH3m119D6kn81rmXQcL20W2Ov8forl9f8WaHg1gqm1c/XuiWmW38G6TW/oRiQy8g1vH1HXU1z8PBm6jPv1TrewaX1NeAS2h6R1GtFFi5c2KQ6ekKV0NBQAgMD2bOn9rLmxvpj3xkKSuSMHd7zLkbWOugplQwY2Jc3V23j0yVP3PF8/v7+eHl5MXnyZLZv305CQgK5ubn4+vreebCCIDwwBru5sf3MWaLS03hz3Bh1Us/cUPpgkXntGsaGhnDjJvFZWYztKr359XV355+YWAz1lAx2rXtbyJN9+za5pl6lhOxs3NvVrpcktD1pWSmYPSCJ3eYwMlZRXFzIzZs3RQMRQajw77//8vjjj3PgwAGcnJwgQdMR1e+zg4FEpdcsPzGyUydmNKLW3v2kRPuG+raDaevoBl+diZk1/UY8pukwhPuUSOq1Ert376a0tFTU0WuG/Px85s2bx86dO+9onqiEDAxUja+T0NZYWZkTeSH5rs3n5eXF6tWrmTx5MomJiXh5eYmkniAITdLXyYnPAwMB6O3oxBdI9VA7mErbbvdeuICrtTUn4+PILy6mi43Upay/i4u6cLd/tYLed0NmXh4/nTp12yLeQttRWFRI+c0bDQ98gOVfy6eopBD9u9jVUBDaqnPnzuHn58eff/5Jp06dat3vadW6vvzf9uxcrhYX1zhm3ogVd/ebNLOqlXoG2qrbjBSE+49I6rUCKSkpfPjhhwQFBWk6lDbJ39+flStXYmFhcUfz5OVdo6Sk9C5F1RrJiI5Pvaszenl5IZPJSEhIUP9PrDQVBKGxelf8vXBvZy2tyKvgaWeHeztrFmzdyrHYWPZcuABINX8AelX7O1NZY+9WP506TWR6OroKLb6Z5d+oeKas+5rDMdHkFxfz3JAhTX9AgiAIQpt18eJFxowZw7Zt2/DxqSpnkJQbpcGobs/d1lbTIWhciaxEfdtcv12TzxeLlO8eU5Pm1bV3c/TkUNhfdzmatiUjPRNbq/bNOlck9VoBf39/Aiq6JAlNExAQgIeHBwMH1m5xfi9dTookJS4MfUMTuvSsKr598+ZNzp/aR3FhPo7u3ljZOhN2ej+F1/LUY1SmlnTqPpikmHOkpUit5XV19bFx8MDK1lk97vTh7RgYmdLJq+qDZULUGS4lhGNj74FzR81/UxgaGsrNm1UlcAMCAli6dKnmAhIEoU3QVijQVihwsrTCSqVilKe0GkJLIVd3CPzxP7MZu2YNvwQHo1Iq2b9gAfp6Umczrw5StzcrlQpHC6lukY6WFtoKqX6QpZGKkMQk9ZakupJ6WnLpLZBCLsdIT6o1uivsPN3s7Pi/0aPp51a1rfdicSmyuDh8uojaN4IgCPej+Ph4HnroITZu3Ejfvn1r3FdUVqChqITGSFRkq29bGDQ9yamjXbt+r9B0MdEJ9Oxs36xzVQYqykrK7nJEbUtpSSmGes3bNSiSehq2ePFi5s+fL1Y3NUN0dDTr16/n2LFjLX7tvb+s4dwJqX7f3Dc20NFrEAAR546wYdVzAAwe/RR+s9/i2w+frXGug7sXnboPZt+2tYSd2l/jvl6+DzP1mXfR0tJh8+eLcPLwqZHU2/LV/5GWEoOJhTX/++JIk+rfBG7/lCuXcwgNDb2jZiLVeXl5qVeYBgUFERoaelfmFQSh7du3bx9ubm51vr5FvP02Mpkc5DIurVih/pr817lz1be7Ozhw6cOVpOXlYW1sBNUKfuvo6FC6dq1UgLuiS98nU6dCxZcMJ954s8H4rEyMKfniC+Ra0luh+joQAlhqyZn31lvsGzIEY2Pjxjx8oZWKv5jM+nd/xcHNlrlLpfpGJUWlrFr4HSVFZbzx1TMo9XQJORzO1i/3kJaYycBxPfB/bTJbv9hLVnoOL37wJAAx55P4cslPvLr6P6xc8C3PvTONmLBEArdXdU5+aflMbBxq7yTYu+UogdtPIpfLcHCzZfrLE5DL5bw3bx3Xy6VtZN36uAM0+ZrPvPUoX/z3J2a8PBHvgZ04svM02zccYNmG+Rga6/P9qh3oGSiZMm/UvXmSBaGNSU1NZdiwYaxbt44RI0Y0aw5jl14UJyejrPjSSdAMy2Yk9SY/1IO1mz9h9CixQv9O5BdcxdXBvVnnujl4kpiQRHFxCUql7l2OrG24mptPd/fmLVQSaWkNOnDgAPn5+aKOXjPNnDmTzZs3a+TaN26Uq2+f+edP9e3gwzvUt29Wa+Lu5OHD8u/Psfz7c7ywpGbM7357ildX7aKTly+ngn7nyF8/1HnN9JQY0lJi0NFTkZuVRnJcWJNi7jdqNtpKYwICAvDz82PWrFls3LiRhISEJs1TH19fXxYsWHBX5hIEoW26fPkyo0aNQk9Pj4ceeggzM7M6x8kUCnUyDoWiKmFX/TaAXCZ1vqujC65MoZDGq8fKa/5czZyAAPp/sLzG/84kJKgTeg2x0NJi5eLFTJ06tVHjhdbrckIGsWHJHNx2guz0XAAizsRz7ngUkaHxFFwtIiUunRXzvyE+PAUdXW32bT3O71/vQ0dPh2O7z1BeJq0miAiNIzstF4WWnJTYdArzi0iMSiM+PIXiwmKKC4u5caPuen6V467lFnJw2wm2fP4XhflFxJxL5EpaLsWFxZQUlzXrmto6OqTEphNXUUf34pk4UmLTSYmTVq6GHLlwr59mQWgzMjMz8fX1Zfny5YwdO/a2Y2+3tVPLwoLi7Ox67xfunYtal9W3LQ1smny+l6c9WgoZMXGJdzOsB0pRUTGZ6Zn4P9q8pJTKwIhh/Udx5uSDu0AkJjyBIb0eata5IqmnIWlpaXzwwQd88cUXmg6lTXrppZd47bXXNLrCUUdPRdfeD3Ey6DdKS4ooLswn+MgO+gybUuf46+VlXC8vQyav+aFTqWeIrb0H0+avACD0n111nn/uxD4Apj69FIDzJ/c2KV6lngqVlQerV69m27ZtLFmyhJs3b7J06VJ8fX1ZuHAhO3bsIDc3t0nzCoIgVLK1tSUrK4vi4mLGjx+PkVHraD5kamCAtZGqxv906kkA1qdn1648/PDDvPbaa/coSqGlTJyzrQAAIABJREFURZ1NACDiTGyN44d3BgPw2a43+XLf//DwcmL/r//i4mkHQHKMlByLOZ+MZ0/XWqvmPbycWL3jDVbveIP2Tlb1Xt/Dy4lP/3wDz54uRJ2JUx+fv3wGq3e8wazFfrh07tDka3ZwtcalSwdSEzMBSIyW6uleTsiivOw6qQlZ2Lk0ve6UINxv8vLy8PX1ZdGiRTz2WN2dSTMLqhJGt9vaaTF1KpcOH77rMQoNK72ar76t38wmGWvfnsGm738Rib1muJKTx+6/9vP6s2PuaJ6nJj5H6Kkwws9F3KXI2oareVfZtzOIrq69sDRt3muz2H6rIbNnz+abb77RdBht0oEDB7h69Sp+fn6aDgWvvmM4f/JvIs8epaS4oOLYWE4c/KXGuPjIYN6cLRXcfXLBanr0H19rLkOVOebWDqRdjq/zWiHHdtDBqTPeA8az9ZulnD6ynbGPv9KkLbjVOTo64u/vj7+/PyDVxwsKCiIgIICcnBy8vb2ZPHkyQ+ooFt+ULbxBJ/aw++jvZOdmUn79esMnCHVS6ioxNTJnwpCpDOgxVNPhCEK97O3tCQkJ4dFHH9V0KGofTqn7y5ammjt3Lv7+/mzZsqXeD4BC2+Dh5URkaDz9HvLi3L/RdO/vwdl/IgGICImlx2BP2tmZAzBwfA++ffc3bBykBF1CRCpOnToQHRrPQ48PuKM4ZDIZJhYqigpL6rzfxbNDs67p4GZLfOQlAC7FSgnBlNhUslJzAGjvJJJ6woPt2rVrDB8+nHnz5jFnzpx6x1VP6t2Otb8/Ma/MF1twNSAyLxqspM9DDibN2/45+aEefPS/abz18TbyM3LuZnj3PZWVKcte9uM/U++sxr27oyfrlm3lrS9eZO+fB+9SdK2fUqnH6METeH32u82eQyT1NOB///sfc+fOFXX0miEtLY233nqL/fv3Nzy4BXTylhJeIcd2UlyYj4GxGY7utZNdVjZOjJu2CAAHt/qTYfl5VzAxqV17J/1SLGkpMXTrM5qIs4dpb+9OfGQwyXFh2Lt0vSuPxcvLCy8vL/UW2tDQULZv386SJUuQyWTqBF/lGCcnJzZs2HDbOQNP7WbLwW+xc7bGrrNHjaYaQtPIZHLycvP47s9PQHaTAd7DNB2SINSydOlS+vbtS0ZGBg8//LCmw7knAgICGDx4MO7u7nh7e2s6HKGZOvZwIfjQeYoLS4g5l8hjL4xRJ/Vys67i0qXqQ7m5lYn6djs7c2IvJOIzxJOs9FxcutQuCh75/+ydeUBN6f/HX/e2d0u3VRFtiFBZxjqI7HtjnTEIw4wxtll8fzNmppphFswozAzDKMY2tuz7UnZRKkRCN0JRKu3r/f1xdZOitLjFef117nPO83k+59a995z3+Syh0Uzp/j3mDU35Yc30F/oQd+cRf/+4lTMHQhk2paiO12+zfdHU0uBjz1G06da8Qms2aGTOMf/zPH6YQmZ6Ng5t7Yi9FUfc3QQALKxMX/1NExB4Q8jKymLAgAEMGjSIzz77rMrstti2m7Dhg2g0aDjGTk6gW7FOoALlI+vuXWL27iVzbFHkvUSzYpF6AJNGdWHSqC5V4ZpABWli7cB/C2vGfX5tQhD1XjOnTp3i0aNHQh29CjJmzBhWrlyJbg35kdSR1KF5G1dCz+4DwHXIxyXSawHqGJnh2P7lBalvhJ0mJzOVes4ln3JcvqBIvQ0/f0DZoAMUKbhVJeo9T6HIV4i/vz9+fn6EhoYSGBhIYGAgMpkMf39/pFJpiflB4afYcPBveg0Wis5WFeb1zLB3aMxqfx/0devgaK/6DsgCAoVs3LiRmJgYfH19+fDDD9HXL3lhrWlqiqiU+ng1HQ0DA2UDD4Bt27bRt29fDhw4gKmpII7URpo4NWTn6iOEnIgAoHFLK+W+rIzsYlHwym0RNGtjS1SYjJgbiugdm6aWZKZnFbOtI9HCrkVDjOu+vKlKyuM0jm49g45Ei8ETXElLyQCgno0ZBkb66NVRXOtUZM36tuYAXL0QBUAbl+bsWn2M+FhF6q2GpnALIPD2MmjQIBwdHfHw8HileZIyUjulLi7Yr/qX2AULuL7LrxIeCpQHLW0LpD1ceWwVA3mZAFhJ7VXslYDA60f4RX+NJCQk4OHhwdGjR1XtSq3kl19+YciQITRv3rxK7AUEBBAYGIi1tTXW1tbEREcArx4u79yxH1eDFX9Txw59Sz0mKTGOkwcUDTD06xjj3KmoEG/gXl+SEu9z6sA6AHq9N63E/EundyMxMOKrX3cDkJebzbzpPSqdgvsquLm54ebmRkBAAN27K9I/AwIC8PT0xNvbu8Txxy8cwLSeYbX79TZiVFefExePCKKeQI3h7Nmz+Pn5cfCgotZn/fr1Sz1Onp9P9pMn6L6ggUZNJf3eHTTMimqjmZqasmrVKoYNG8YJoYZSrcT2aVrr5r/2Y+NgiY5EW7nPyFxKcuIT5eukRykA1DHUo3FLKwJ2XuBa8E0s7eoiqaNTQmBr2Lge/1v6UZk+2LVowJCJrvz+uR9hZyOVqbbvzxhAy/ZFKWQVWbOwll9w4DVsHCxpYGdByuM0IkOjsbJ/9e6QAgJvCm5ublhYWLB06dJXnmtlWHZqp8nQoZgMHVoR1wQqSObmd1TtgoCAShFEvdfIxIkTWbFihardqJUEBQUREBDAgQMHyj64nFhbWyvFKYCuvUcisS6fqKeurqHcbtZaEYlmbG5FA9sW5OYoLrTFT4uwSwyMSIyLYftqLwAa2jni3Kk/Ej2F4LV7/QIkBkY4tO5On+HTqWfVFFA04lBTV+dJ0kPux0TSpe84DIyKauA4d+xH6Nn9PHoQjVk924q+Da9MUlISixcvxsXF5aV19ZKeJCJtWDOK5L9p1JHqkfA4XtVuCAgAIJPJmDVrFocPHy7zWImDA9lJSejWpvITWVmoS+qgYVK8NEKrVq2YNm0an3zyCcuXL1eRcwIVxcjMAJO6Uh7IEhgwtnhEeV1LY66ciyIrMxttHS3OHwnHpK4UXT1tbJ+m5e5bf5J3+7eulA/q6uq069ESAyM9ggOuKkW956nImsbmigj6swcv0XVgW2W67el9l/hg5oBK+S0gUFsZPXo0WlparF27ttxzrj0KrkaPBCrLszUP7U2FkhgCbyeCqPeamDdvHh9++CGNGjVStSu1jtTUVKZNm8b+/furzKZMJsPHxwcDAwNSUlIYOnQoLTqPJDgqtezJwNiZPsjlBQBI9AxZtPE6IpEIkUiEppYOizZcQ6ym+HjNWxlUqo3RU39m9NSfX7jGT6svIBKJEIvVWLghAjU1jWL7x870Ycxni1DX0CqXz1VFeRuUZOfmUFAgfMVUBwUFkJuXq2o3BAR48uQJo0aN4r///itXp1sjNzceLvwNw1pUiy4hJIQ6nTuXGhE9atQozp8/z5o1axg/frwKvBOoDA7vNOLEnovYt7IpNt6hlxPnDoXhMW4JelI9rgRFMWqaoqtfw0aKtNbM9GwatbAu1e6dqPv4/E8hGoyePkDZcKM0RCIRbbo15+yhUIZ/3BuA7X8f5tj2c9g6NGDQ+O4VXrOwGYilrRkmFkVlMiztzMt4ZwQE3jymTJlCamoqe/fuVbUrAlVIeRuZCAi8yQh33K+BU6dOERsby7fffqtqV2ol7u7uLF68GBOTkg0kXpXQ0FB8fHxITk5m5syZdO3aFU9PT3x9ffltVfnTosViMVBUF0pNrfhHSU1dg8ryrE11dc1SfRCLX6+gVxnycnMJPR3JvVtxSAz0aN+zJfpSCQD3ZA+5HhJNSsIT6jY0oU1XB7R1Fed2J+oBt6/Gom+oS5tuRanXcrmcC8eukJGaRWNnK+pbm3Hp1DVSEtIAMDDRw6GNHVo6Re/dy9bJysjm7MEwEuKSMLc0pn0vJzS1NbgYcIW05EylDampPs6dm77wPKOv3SUmUtFpUEuiSbPWtkiNi2qwPHmcxuWgKOJiHmFkJqVlh8aYWCiiNgvy8wk+cY2YG/fRl+rSvqcTaSkZ3Ay/U2yNB/fvU0fnxTeJAgKvi2HDhuHt7V3uxk+mI0YQ//ff5KekoGbw8npjNYWkO3do4OPzwv2///47/fr1o1mzZrRr1+41eiZQEQqj6AGatVWIeo1bWinTbcViMe1dW+I6vBNHt54BoENvJwa5KyL71TU0aNGuMVeComjk2PCpTfHTuSL09LXJTM/mzIFQAAaOdSlV1FNXFyMSK4TiFh2acMz/PKnJ6QBEXLwFQHZmLoPGd6/wmo1aNiQyNJoGjeshFouVIl+DRhZV9XYKCNQKvvrqK6Kjo8sVUS5Qu0jIeKDctpI2VqEnAgKqQyQX2lFWK8nJyQwbNoy9e/eira390mMzoqLIuHyZ/NTyRYu9Sajp10GvbRu0Gxbv6Obr68vNmzeZP39+pewHBATg5eWFlZUVnp6exW5AQ0NDcXZ25rtF2wiOSqV3zzez69G9+/Hs2bOPa4cr3i77VZi9YBKmNro0srcl7UkGP01dwa0rd5X7GzlaMf/fmRzdfp6/vf4rNreupTEeq6dhXFfK75/7cf5oOADf/PUxTp0UBXBDT1/n50//BqDfmC64z3FjlNPnJez8sHYGUmP9l65Tx1CPb8csRnbjAToSLTLTs5nx61g6921Vwmah3y/it9m+BB27XGzM0/czmrW25eblO8z7+C8y07OL7f92xSe07NCEVfO3cHjzWeV4rxEdMbcy5d9Fu0qs49ihGWFnI17oh4BAdTNx4kR69uzJBx988Mpzwzt2REtDHb36lvA06rmmIS+QkxgZSeN169Bt+fKGRCkpKfTp0wd/f38sLATBpCZx5MxeNh77mz6DXZRjebn5qGuoPd3ORV1Do8Q2QEZaFgUFBcqGFYXk5+VRUECxZhPPzy2LgoIC5AUFqKkrbORk5aKp/eL5FVlTLpeTl5uvnFOQn09BAcpzL+TPRavY93cQutqScvsvIFBbmD9/Pnv27OH48eNl3ouVxrarK/C/ugqAb1z+wsFMqGdck3j27+PW/COGNf9YxR4JCLx+hEi9amby5MmsWLGizB+RxF27iPP2RtvQkNzk5NfkXc1BXV+fuGVLafDjjxh07gxAVFQUa9eu5fjx4xW2u2bNGn7//Xfc3Nxe2KW1sC5cXVMpeRGJFV6rppOekYmlhWqK0+9cfYxbV+7Sa0RHRn7aj8T4JC4GRPA4PoW/vf7DpK6UOcs+oq6lMbv8jrNtxSH8Vx7mo29HkF9QdMN/5kCIUtQ7tbeoxsmzmoC9sw3f/DWFzX8eYO+/gZzeF0LH3s4vXafbkHbIbjxQioOyyFi0dbSL21w+BQA1tZLdjZ+l4OlzktUn5xN+LhLvr9ay2+849s7WrPzhPzLTs/nSeyKOHZpw+fwNFs5czcoft/Dbtjkc3nwW6yYW/LRxNk+SMngYm4hNM0s6923NteBb+PzvX0Z+2pcGDsaQXjM6QAu8nSxcuJD69etXSNADaBEQQNyaNWRev468oGaKetoNLGm6eDFaL2j68SwGBgasWbOG4cOHc/r06dfgnUBleFbUelYUe14g09Ur/dpNTV2d538JXiSuRYVH4/vrjmJj1vb1mfL9SHimE/TLBL1XXbMQkUhUTAQUq6khfvlPmIDAG8WyZcvYvHkzp0+frpCgBxCTdKOKvRKoStJzipoaCZ1vBd5WBFGvGlmwYAEjRowos47eoy1biFuwgGaTJ78mz2ouVz/9lIa//46hqyvjxo1jy5Ytr2wjOTkZHx8fjh8/jru7O4GBgaWKec/Tua0dWw+FV8TtWkH8gzgGuLRQydqBOxV1BT/8fDDaulrUMdLDplkDjvsrxt0m98SqiaIbn9tHPdm24hDhZ4suonQkWrRs34SAnReY+PUw8vMLOLk3mB5u7Tnmf77YWiKxCG1dLVp2aMLefwPJzswh7EzkS9dxHdYBgJDACDr0cqJpq5KNR/Jy8wHQ0CjfHZGmtgZOnRRpupnpWcTffYzsxgM69mnFO90Vf4e2Li1w7uxA6OkIUpIUaVeyGw84tS+Ud/s7Y2haR2lL31ARQSEx0EXfUI+cfOHrW0A17Nmzh6CgoAp9Pxci1tKi3pQpVeiV6rG3t+fLL79k9OjRbNq0SdXuCNQQ1NTVkBoXrzcpqVOzHsrcu5ZIeFg4Hdp3VLUrAgJVxr///stff/3FyZMn0dPTq7Cd9Ny3L4OqNhGTHKXc1tWo+N9ZQKA2I9wVVhNBQUHcvn2bOXPmvPQ4uVxO7C+/4DB69GvyrGZjN3Qot+fNw9DVFW9vbywtLcs9t7D5hUwmY8iQIQQEBLzS2q2aW/PFRFe+99lMd5d3qWtmwpuQnZ6ZnkHUrWjq6OQxa2Lv175+dmYOKY/TsG5ioaxfV8ij+wkA1LMp6uqroamOpV1dYm8V7+7aobcjQccuE342kqyn6asdejuXEPXSUtK5cOwyO3yPAdDY0YprwTdfuo51U0va9WhJ0LHLeLgvw7mzA9Pmj6aOoeLiIDI0mkldFDUxC9NyyyL01DWCA68C0KyNHQkPHgPQwK5useMsrI0JPQ0piU+Y8PV7+P68nT+/24D/P4eY8ctYbJuVryOzgMDrIDw8nAULFnDixAlVu1IjcXNzIywsjMWLFzN79mxVuyNQA7B1aMicJZNU7cZLqWsnZc5X/2PJkiUv7WovIFBb8Pf3x8vLi7Nnz2JkpJosFYHXj6mknqpdEBBQCYKoVw0kJyfz3XffsXPnzjKPLUhNRV1Do9YUDK9utC3qIU9TNDpo3759ueY83/zCxcWlwusPcnUkPT2TX1bsJzMrl/i4xxW2VVNo2LAubj2d8PpCNZ0Z1dQVhcAzM3JK7FPXVKQO5ebkFRvPSsvGwKj40zbnzg4AnD4QSkZqBgZGejR2tCphM/ZWPItm+wLwwYz+tOzQhKjLMS9dRyQSMfu38Zw7FMampfsIPR3BRp+9fOw5CgALaxPenzEQgMYtS65ZGoU+dO7fisETuhN97d5TH/KLHZeTpehiq62nTd/R72LnUJ/Nfx4k/OwNfpvpy7KD35XadVNA4HUTGxvLpEmTqrQT+ZuIp6cnAwcOxNHREVdXV1W7IyBQJuqaamzYvJEPRo/B29tbEPYEajX79u3jiy++IDAwEFNT0yq1LYhGNY/IR5eU28LfR+BtRRD1qoHJkyfzxx9/lK92g1xOStTV6neq1iAn+XZIuY58WfOLyjB6cHtGDy6foChQNuoaGtS1NCY+NpF7sofUtzYDFGKWaT1F19eIizeVtfJib8eTEJ+MY8cmxexI6ujQpltzzh5U/HgPmdADsVpJscvGwZL/LfkIA2O9p12KKXMduVyOWCymU99WOHa0Z1LXb4mJuq+0aWhiQHtXx1c6b5/d32BiYaCseWRirkgBDz93nVGf9UUkEpGbk0fYqesKH80NkcvlNHa04es/p/DNGG+iI2LJyshGR1KxOjACAlVFeno6bm5urF27tko6kb/pbNq0CVdXVzZu3Iitbcl0foHXh0Sih6ig9kfdVxdyuRwNDQ3qmddnx44dDB06VBD2BGotJ06c4OOPP+bEiRM0aFA1mQ4J6UXdVQXRqOairSE0+hF4exFEvSrGx8enXHX0Xsa1e/cIjonBWCKhn5NT0Y4CObvDwkjJzKCjrS125ubKXTtDQniUmkovBwesnj6VSsvIYHNwMB1sbHCwtCQhJYWdYWF0tLXFSKLHkWvFO2f2bd4ckxdEDBbk5bE5OJi8/HzUxGLsTE1pZ2NTrMjzuZs3uRgTQ05eHi3r16OXQ3Pl/qysLDZfDOZO0mMamZkxvHVr/C9dIjuveOQUcjkWZVx8l6f5hUDNov/Yrvj+7M9PU5bTc2Qnkh49ITLkFh6+09GRaLHjn6MUFMgxMNZj/7+KtL6B47qXsNOhl5MypbV9L6cS+wG0tDWVtegKadOtxUvXCdhxgbOHLtGxdyvuyRRpv3bNizoxJ8Ylc2DTKQAMjPTo2Lvsmx1jcynqGkVfsab1jHDqZE/YmUi856ylWRs7zh8OIyE+GbePevEoLomFM1fRe8S7qGmIiY6Ipa6lsSDoCdQIhg8fzk8//USzZs1U7UqtQE9Pj40bN/L+++9z9OjRStVzEng1kpOTCQwMJCAggMWLF2NhXJ/s7LyyJ76lPElJxdJcEYEulUqVwt6OHTuE6yuBWsW5c+cYPXo0R48excbGpsrsJmbEVZktgaol4uFF5baVtMlLjhQQeLMRRL0qJDQ0lOvXrzNz5sxK2flh7x62Biui1Q7OnEkPB0Xa4ZGIK7y3/C8AZvTowW+jFKmBCSkpDF+xAoBJnTuzfNw4AKITEvh43Tq8Bg3CoV59Jq5dy/4rV9g//TNOREUx/blC3odnzcLlBaLetQcPGLt6dbGxQY6ObJ/6KQCT167B7+zZYvv7tWjBrmnTyM/Pp/PChYTHxqKvrU1qVhbqYjEf/PNPqWutryMuMVbY/GL79u3Mnj273M0vBGoGPYd14kliKtv+PsKmpfsAGPZxb3T1tJm74hOWe2xi19MaeAZGesz4ZYwyou7ZLoWtuyo+C3UtjbF1sFSmrqqpK/5ndCRaqKuXbGRR1jq3rt5l45I9yoYaTp3sGflpX+Vx8bGJ+P68HQC7Fg1eKuoV+ltayuwnXqNZNW8r5w6Fce5QGABDJvZk+Cc9yc7MQ1tXmzULFV0SLaxNmPHzh8q5hV13S4tOFBCoTmbMmMHIkSPp1auXql2pVdja2vLTTz8xevRo9uzZo2p33gr8/f157733ABg6dCgA1paNyM3K5dHDBEzNhCjT57l5LZp3WnRWvpZKpfj5+QnCnkCtIjw8HDc3N/bs2SM8fHpLkWjoq9oFAQGVIYh6VURqaipz585l27ZtlbaVm1dUc2tjUJBS1FsfFKQcf7aBw+5wRcdWfW1tNgcH88f776P2NOWvkA3nz7H/yhU+696dni1aEnVMIWzsm/4ZXRsrnmxoPTfnWQqervfdgAFM794dtz//Ynd4OKF3YohNTsHv7Fn6tWiB7/hxiBAxzs+P/VeusDU4GBsTE8JjY5VC5NW7d5FoafFw0SLyCgoY+McyQmLucH/BAkQFBVxf8LVyXZlMhpeXF8nJyYwbNw4PD48KvacCqkVdQ42R0/ozfGpfUhLT0DPQRUNT8fXTuKUVv23/H5npWeTm5CmbUxQy89exyAsKANAz0GVD8AJEIhEikQgtHU3WX1yoFPX+OfEjInFJUbisdeyaN2D5UU+SE1LR1tVCV68oOu7v4z+Uaq+0JioikYiZv45lxs9jUCtFXDQyM2DOkknk5ebyJCkDQ9M6SvFPXUODXzZ+zpOkNORyOQZGxS9OHNrasf7ir6hraHDtSmSpPgkIVDW+vr6IRCImTJigaldqJa6urly6dIkffviB77//XtXuvPF0794dAwMDUlJSGDJkiHJ81rjv2HB4Ofpd9NDWEaKfC0lOSuHBnUfM85pVbNza2hpvb29B2BOoFURFRdGvXz/8/f1p06ZNta0jpHfWPGKSbyi3rQyFSD2BtxdB1Ksipk6dio+PT/nq6JUDfW1tejZrht/Zs/zxwQfk5eez7nwQkzp35p/Tp4sdu+nCRWxNTJjcpQtf+/tzPPI6PVu0VO6PefyYRYcP42Bhwa9Pn2AXkpdfQE5eHhpqasVSaV+EuliMob4+Xewbc/r2LdJzcth+KRiAhcOGYVxHEennNWgQB69e5UTUDezrKrp97gkPZ0SbNnR4LjVZR00hJpoaGEBBASIUIoe3tzehoaG4u7tXqvmFQM1BLBaXSI0tREeijU4p10tisbjY/6aaevGvrWcj+Z7f96rrGJmVr2HN/0YsRHbjQYnxkZ/2ZdjHvcv8LKlraLxwredFzefnCQi8Lg4fPszmzZuFxhiV5Msvv+T9999n//799OvXT9XuvNHIZDLldmGkHkAHp67YNmzMqFm9MDExIT0jTQXe1Szq17NEU6zD2vl7S93v7OwsCHsCNZ7o6Gh69+7NmjVr6NChQ7WuJaR31jwyclNV7YKAQI1AEPWqgL/++ovBgwdXqo5eaYx4WnfuUMQ10rKzABjZtm0xUS/xSQrHIq/zv759GOzoyNf+/mwNuVRM1Fv99HivQYPQ1NQstsbgP/8EwNbEhMj588v0KTL+IZvOn+eP4wEAtKxfn6iHjwBo8lS8K7QHcCcxiZaWDXBr1Qr/S5fosnAh/Vq0YO2ECUjLqDE0a9asl+4XqNmYGpmhpp6pajeqhYlzh5OWklFivL5N3VKOrnrU1dXRryOkkQlUH9euXcPDw4PDhw+r2pU3go0bN9K1a1dsbW2xt7dXtTtvJKGhocyaNYvQ0FA8PT1LiFBmhhYcX3OFe3ExiNVKRlK/jViYWr50vyDsCdR05s+fj7e3Nz179lS1KwICAgIqQxD1KsnVq1cJDw/nr7/+qnLb/Vq0AGBj0HlSsrIw09enw3OFX3eHXwZAR0OT6MQEADYHB/PnBx8oj+nTvDkHr17l54MHGOrsDM9czHoOGkTLevUw0NEpl08bgs6zIeg8Zvr6bPxoEnUkEnQ1FEJhdm4u2k9tZ+RkA2CkpwtiEZunTGFbSAjf+Puz/8oV/m/7dmXtP4HaS3JyMmFhYQQEBJRIjTY3qs+NhGBs7FTkXDVi71x1BZgrQkpiKtYNhM6EAtVDQkIC48aNY/fu3UgkQrpRVfHff/8xePBgjhw5gsEL6tcKVIzk5GRmzZqlFJ68vb1feGz9p00hBMqHs7Mznp6ezJ49G19fX1W7I6Bi0h6FknBrJ8n3AlTtCgCTeuSjk+fN9cM7MLEbiontkLInCQgICLxhCKJeJcjIyODbb79l48aN1WJfT1eXQY6ObA5WpLf+r28f1J5L69t8UdH1x3P3buVYalYWx65fo+7TVNhOtrY0MTNj6fHjLAsI4DNXV+WxLk2a0LlJ+cPJZ7m68m3//hg8E2VnZ2rCsUg4dTNKGSF4KOISu5pnAAAgAElEQVQaAA4W9aBADmIxw9q2pVezZhh//jnh9+6/ylshUMNITk7G2tqalJQUAMaPH1/imHGDP6bPlLY4tXVATU34qqkqsrNyuHD+EgumrlG1KwJvKO+99x7//PMP5s90WBeoPBYWFixevJiRI0dy8OBBVbvzxpCcnMzQoUPx9vZWRpIJEWVVi4uLCzKZjAkTJgjC3ltM2qNQru1zw9BAD6m2lqrdAUBaWPUo5zJ3z54g4eZWmvb+V6U+CQgICLxuhDvtSjB9+nQWLlxYZXX0SmNEmzbKRhjDW7Uuti8pNZXD164xok0bvEcqOuFekMkY+tefbA25xLRn6tB5DRqE39mzzN68GTdnJ+X41pAQLt+7B8BgJ0fqGRm/1B9DXd1igh6Ae6dOrDx1ipErV/HdgIGkZ2fh9bTT36TOnVl75gybQ4IZ2boN1+MVbeHfsW5QgXdDoKYglUpxd3fHx8cHAE9PzxLHqKtrsGvZKSZ7DENbXwsdfS3k+fkljhMoH2rqGqSlZJD5JJt9y8+p2h2BN5QRI0YwZ84cHB0dVe3KG8m7776Lm5sbc+bMYcGCBap2541gwoQJeHt74+wsRC9XJ+7u7gCCsPcWc23/CFq1dQENzTKPVQWWwM2rl0i4pYjaq2oS0h+w/erfmEjqYSqxqHL7lUFXQw8rqVDaQUDgbUUQ9SqIr68v3bp1q/I6egCazxT7H9BSEflma2KCc0MrcvJyAVBXUyPwhqLjz6i2bTGTGjw9vgX62trsDg9n5tOIPHU1NfQlElaMGcMH//yD99FjtG7YEIBlx48r17IxMX6hqFcYIaheSh2adnZ2+I4fz4z//mPOtq0AtLZqyMoPx2Kor4+jZX2+3uHPwatXAUU68A+DisLjNdTV0K9GYVSg6vHz8yM0NBRHR0dsbW2xtrYu9TiJrj5rft7DqeBjPHwcV2rHWIHyoSZWw8zYgs6tu6MuRD4KVANz586lffv2DBw4UNWuvNF88sknuLu7899//zFq1ChVu1OrmTBhAkOGDBEEvdeEIOy9vcRF+GEoldZYQa8Qa9tGXA9ZUC2iXmJGHNuvrqxyu9VBU9OiQBArw8ZINBRN6qykTdDV1AfARNcCU0k9lfgnICBQtYjkwl32KxMVFcWPP/7I2rVrK20rPyWFs7aWdPj5t6LBggKQy4tq3+Xng0ik7Kgpz89HJBI/PTQf8fMdP/PzkQMiNTXFsc8Iccq5YlHpDhW84N9BLCphqzSSUlPR0dAoGb1YUMDDJ6noaWmi+3z9vmfPt6CA03On0S1RiOiqiSQnJzN79mysrKzw9PREJpMhk8mE7sQCArWcDRs2cOTIEVavXq1qV94aunbtio+PD61atVK1K7WSWbNm4ezsrBSaBF4ffn5+yGSyUqP0Bd5Mruzsg2VdLfSMalaEWmlcOLGTjh/FVZm9tZcWcihqc5XZq4noaEiKRfo5mLVRbj8rBDaUNkGiof/a/XsR266uwP/qKgDcmn/EsOYfq9gjAQHVIIR7vCJZWVnMmTOH9evXV98iz9XN4zkh7VlhTSwu5U+opoaolGNLe/0sqenpGH3+ean7jn3+OV3K0bHPUP8FX/RisTKasLR9AjUfmUyGu7s7np6eShHP2tr6hVF6AgICtYOzZ8/i6+srdLp9zWzbto2+ffty4MABTE1NVe1OrcLPzw9AEPRUhLu7O+7u7vj5+eHi4sKOHTuYNWuWqt0SqEZysxKB2hHVpa0jITk2AKmlS5XYG9fqK7rZDOZR+gNikiNJz3lCTHJUldiuShLS75OYEV+huZm56Vx/FKJ8/ez2izDWNS810k9XUx9rafnqtT8rGJZFM9M2ZR8kIPCWIoh6r8jnn3/O/Pnz0dXVrRJ7crkcTT2jKrFVWfR1dNjz2bRSUySdLS1fmx+a6qbI5XJEohdEEwq8dvz9/fHx8cHPz6/CIl5MTAwmJiZCN00BgRpEVFQUs2bNEgQ9FWBqasqqVasYNmwYJ06cULU7tQY/Pz8CAgKUwp6AavDz81PW1i3sPizw5pL++Bp6rd5eUcVKao+V1J629V1U7Uq5SM9NJSYpUvn62qNg5XbEw6LtmOQbZOWmV2iNxIw4EjNKj4gMuRdYIZsCAgIVQxD1XoFNmzbRtm1bHBwcqsymulRKTloCZGWBquvKicX0aana4ui5jx8j1lAXBL0axOzZs0lKSiIgIKDCNrZv3467uzv379eMrscymUyIMBR460lKSmLUqFFs376dOnXqqNqdt5JWrVoxbdo0PvnkE5YvX65qd2o8MpmMnTt34u/vr2pXBABvb28MDQ0BCA0NFWobvsHk5WSo2gWBV0CioY+DWVvl62e3hzUvfc6j9Ps8Sldcp2fkphGTXCQKVpUQWJ10tR6kahcEBFSGIOqVk6ioKA4ePFgthYHNR4zl4cULmL3bpcpt1zYehYRQd+xY5QW7m5tbta957Mw1PJfsJjMrj+g7VVeDozZibmqIlpY6X3zUh/5dmyiLkFc0xSktLY2pU6eybt06APSe65ysKtzd3SslUgoIvAkMHTqUP/74QxC4VcyoUaM4f/48a9asYfz48WUefyvmIYdPXSU9I/s1eFezeJwQTxuXMfy28kC5jjfQ12Vo71aYGNWcGlBvEt7e3sptPz+/Yq8FBARqF6aSesXSaZ+NSnyREKhIR059oc2EjAdKobAsYpJukJ77YluFZOSkcjflZrExt+YfCU0/BN5qhEYZ5cTNzY3169dXWdrt80QMHkQd/TroWVjwNsaoyfPzeRIXR46ODo2eFmr39PQkLCyMxYsXV9tNZ1B4DKNn/k3/vq5YmJtSkF9QLevUFkQiMfGPEjiwZzt59w7hv+2/Sj153717N+PHjycpKQmgxnS/LawLKDT4EHhbGTNmDAMGDOCDDz6o3oXkcuQ5OdW7Rg1DpKVVoXn9+vXDy8uLdu3avfCYgPNRfPLdOho3akRaWlpFXXxr0NXVJUYWg/+KqTS2EuoWVgcBAQGEhoYik8kEUe8NJsBHxLv9pqjajXJx+cIRbLr9U2U19QQEBARqOoKoVw5mzZrFlClTqjTttjTu/PoLmVeuknnzZtkHv2HoNGqEpG1bLGfOLDZe2Jyhe/fuzJw5E6lUWmVrxj9KYcBHf/Dhh6OqzOabQOA+P25ePYe2RTdWzP+Q1i2sK2Vv2bJlrF69mtu3b5OcnFw1TlaSgIAAAgIChM59Am8lP/30Ezk5OdX+/x+7aCEPff1Ii3u7ftM0NY1oun490h49XmleSkoKffr0wd/fHwuLkh0mj56J4Oe/Axg4oE9VufrWsHHTNrb4TKShpYmqXREQqJUIop6AgIBAzUVIvy0Df39/WrRoUe2CHkDD//1fta9R27C2tiYgIAB/f3+GDh3KzJkzqywl90TQDdTVNavE1ptCZvoTkMuZ9NVy9uw9QuD5G5UW9fbt20dISAgXL16sGierABcXF0HQE3gr2bZtG5cuXWLLli3Vus7VgQOoo18Hx08/BQ2Nal2rppGflET0vHmknj9Hg6+/Kfc8AwMD1qxZw/Dhwzl9+nSJ/cvXn6Bx48ZV6epbQ4OGVvy1IZCf5wxTtSsCAgICAgICAlWKIOqVwfXr1/n6669V7cZLsbGxQSaTKV8fP378jUsrdHNzo3v37nh7e7NkyRJ8fX0rnZL7MPEJOtWUTl1b0ZHUoduACYptXV0ePEqplL3FixczY8YMANq2bVvG0QJvM9lp90i8tZPc7KTXvrZITRM9k5YYWfWtFvsPVq8mNWAHuY9e/7lp1LPAsO8ITEeM4OLFiyxevJhTp05V65pxvr6opaZhMXhIta5TU1EzNKTR6NGEeHliPHwEuq8gxNnb2/Pll18yZswY1q9fz5kzZ+jUqRMAhwPD+eqrd6vL7Tcay/rmHAgIEEQ9AYEqJigkjoysfFw61AOxiMSETE6HxDG4hxWoiwGIjU3l0OlY0jJy6N/Nika2UtKe5HDgZAyuHRtgaKT9Ujs7j0ZjbqJH+zZ1ATh57j4F8gK6dbRU5akLCAgI1BgEUa8MarqgBzB+/Hi8vLwA8PDweOMEvUKkUimenp7IZDJmz56Ns7MzHh4eqnZL4AWkp6dz6NAhZs+erWpXSsXFxYWAgIA39vNSm8h4fI3IgyMwMTGmIOv11wlT01An5upSsh2nYuFctd/5UR+NpuDGDkxbZVOgJ65S2+VBTQPil+wl/pg/Uy9GsX///mpfM3HrNqxfMfX0TaRhn77E+/lhM3/+K81zc3Pj8uXLzJ8/nz/++IMrV64gVtemSeMGSHR1qsnbNxsTY6M34r27sOs2t4MTSEvOUrUrNR4jcz06jbajro2Bql15Y5HnFtD5/V0A7PyzF/1dbTh27h4ffHGMeyfGYFZXwslz9+kxfo9yzhe/nOf0xsFkZOXz/ufH2eLTkyGu1i+186nnGTKz83kcNI6c3AJ6jN9Dny4NBFFPQEBA4CmCqFeLCQgIwMfHBycnJwwMDHB2dq6VKYUrV65k+PDhGBoalut4a2tr/P398ff3V6ZRVqcwcyHQHz0DI5o5dwMgNyebiyd2UM/KHqvGzmRnpRN6Zh9JiQ8wqdsQpw790NDU4srFI2SkFUW66Rua0sypa7FxbR09bB3eQU/f6IXrx8feJOZmWIlxUwsbbOxbI7txiXuyCCwa2mPbtHg03JPkR9yMOE/CPRk6enWwa96eeg3tq+JtKZNFixbxzTflTz173QiiXs0gMzWa6ICJtGzTWaV+1LN15mHsEe5eyKXBO99Xic078z3QSvHHYkxhowjVNOLRc8ggYsNmVrr9gIlJ9dcUSzi3D/tBA6t9nZqOtpERcUePwiuKegDff/89Xbt25cGDB+zbt49+A4Zy41ZsNXj5diASwdXIGFW7USm2eFwkLjKLhrZWqGvmqdqdGo88ScS/X1xg8FctadKxrqrdeSPJzSv6TftvfzT9XW2K7c9Kz2XIp4cAcLQ3wkBPk5PBcVy+kYhdQ2m57Yzqb8vSdVc5FRxPemYuAIO6N6jy8xEQEBCordRaUS/t0SUyEiPIy60Z3d+09CwxatgLkVr112h7Vszz9fVFKpUilUoZOnRota9dHTg5OTFu3Dh27979SvMKU3I9PT3x8fGpti65G/74ikbN2ytFvfS0JDb/PZcufcdR37oZS74byf2YSDR19MnJTEWsrk7rTgP5Z8EnxexYNXGmmVPXEuOaOvrMmrcZiwalp2hFXApk178/lxhv330ENvat+W/518TF3kRqYs73f5xEJFL0T74SfIx/l3xBTmbx9vD/+30/5pbVW5cpJSWFsLCwGh1JKdTVqxk8vrkNU6OaEUFjVs+a0KB/adD2WxBVPqou+eB2mg6tGTffjXvmE33CH6pZaM+KicG4SXsQv/6oxJqGrpkZapoVuyZISUnhypUrAOzdu5d+A2rn77tA1RCwJoKMeE069RDKWLwKVo2s2fbzXqau6o7UTCi3Up1s2H2Tf+Z3LTa246iM1PQcxg5pxOpfu4NIxIlz95HLC3hRm8bS7AzpacXSdVfZeUxGVrbiN3VQd+tqOAsBAQGB2kmtFPUehHnz+NY6dHW0yc18rGp3AHicB7LTBTgOP42GtnG1rBEQEICXlxdWVlYlBKxZs2ZVy5qvg3bt2tG+fXuWLVvGZ5999kpzpVIp3t7ehIaGqiQl957sGvdjIunadzxuE7/jnuwamtpFF4429m34eK4vAGpqasXGP/1+LYF7/dizYSEhp3Yx4P0vSl2jc58xtHl3ELeuXWCt90z6jZhFh54j0dTWJT72JnGxN9HU0Sc5IY67t6/Q0K4lqSmJ/LtEYW/KN//QuEVH0p485mLgDjQ0tKrxHVEwb948QTATKBep8RdpYPbiSNXXilgdeX4GaYmX0TNxqpSp3MePSY24iWiMaqLznkfDTETChdfQrCYvj/Q7tTsiqqoQicWkRlyr0NyMjAzc3d3ZsmXLa0mZFqjZXD1+Hycn1UYz11asbBpxcfdtek5qoWpX3lj0JZqkpudw/PyDYuP7T9wFwOOztopwWaBrh3oABJy5V247XdvWQ1+iyYZdN8nMzuedlmbUq6dXHaciICAgUCupdaJe7KVFpN76B3vHrmUf/LqR5xO0tgntJ9xBTUNSZWafFfOqokFETeTbb7/F1dWV7t2707x581ee7+zsjL+/P35+fjg5OeHj4/Na0irV1BVdHa+GBuB0vV+J9FeA/DxFqoC6RlHEhkgsRl1DC7N6tsXslIampjaamtpI9BXpyTr6BtQxNAPg5PnDAIz8yJN1S7/gctBBGtq1JCL4GDmZqQyb6KmMMJQamdPT7ZNS16hK4uLiuH//Po6OjtW+VmURUnBVjxo5aOmWL/X+dWBoZkd2amylRb3s2FgMHfSBmlL7So6RQxOyY2PRshTqENV0LCws+P333/n99985ceIEiYmJqnZJQEVkp+cScz2eDp1qRkRzbUOiq8ut4Ch6TlK1J28uQ1wbsm7XTXYdk9G1rYVyPOZeKg3M9bBqWIes9FyychQPuaR1Sr/mfZEdkYaYkf2t+WfLDQBGD7Apdb6AgIDA20otE/Xk3A/zoXWH3qp2pHREaljbOnDn4i/YdPyx0ubeBjHvWdavX8+QIUM4fvw4uhXsSuvu7s7QoUOVKbmF6cnVRX1rB1q2683loEMs/X40zZxd+GD6AmWNvOjIYOZObAPA2FnetO6kqDMVK7vO4q/f486tcKQm5rRzqVhHvpDTO2lg05xWnQeyeZUnF0/uoP/oL3j4IBpQpPw+vH8b30WfKudMmrMCE3Orypz2S5k3bx7fffddtdmvSlxcXAgNDRVEPRWSmXYfqDmiXnbmEwryMittRySXkxFbeTtVSXrUg7IPEqhxdO3alcQkRamRnOxMtv3jSej5Q9jZt2HMjIVI9Aw5smM5pw+tQ01dC5f+E3i374fkZGey4qeJqKmpM/7zJUj0FJ+zHWvmE309mGGTPAHYuvI7RGI1TOvZMPCDL5EaWxRbp655Q4aMn4udQzvycrPZtPwbgk/upKlTFyZ89RdBx7YSdHyL0t+xs3wwtbAucR4b/pxDXEwkIrEaLd5xxXXoVHKy0ln+0wQKchUPv5o4vkv0jRCcO/SjS79xAJw+tJ7I8NO822sMO9f9xOyftnPu6JZia3YdOJHDW5fxmddG9KUmbFvtSXJiHJO+Wo5cLuevH8aQI6+dNbiS4tJo2EQQ4iuKxEAftVS1sg8UqDDtHM04dOoe63fdoqNzUf3CB48yqG+uuJ4fNPUAAU8j8P5d2B1zk5LX+S+yA9CvSwOlqNerU+38LAsICAhUF7Wq6E1BXiYSfQsQ11wtUiIxJCflRqVsyGQyJkyYgJ+fH76+vvj5+b3xgh6Aubk5Hh4er5yC+zyFKbkeHh5MmDABHx+fSvtWUPBMCt0zhUBEIhHuny9j3CwfjM2tuBYawJ71C5X7zSxsmPDFH0z44g/smr5TzKbkqfDXpEVnjEzrv7JP8fduERd7E0OzBlwPO0H9hk2UKbjqT1Nss7PS0ZEY0LyNKzoSA+JibxZr3lHVxMbGkpGRQdOmTattjarExcWFwMBAVbshICAgUC62+/5AUMA2AK6FBnDrahBBAdvYu2ERubk5pKY8ZttqT26EnSY9NYnb1y4QdeUskeGnAcjKSCVwry93boWT8PAOCXEx3I2+Snp6CsEnd7LpL0X3563/eBAUsA1diYS70VdZ5vkBGWkpBJ/aTfDJndg2e4frYSdJS0nk/p3r3I2+SnZWBtlZGRQU5Jfqe9SVM8TH3SExIZZ9mxYTfu4AmRmpxNwI5fHjB2RnZZCTrRDCrwYfU86LCAlATU2NtNTH3I+JpKCgoMSa6moaPHwQTfz9WwBcuXiEKxeOkJ+XS2pKAveiL4Oo5l47vhwRSfHJqnai9lIgJ+Fe9V33CChKqH4wuBGp6TmcDokvti8jU1EDz7BOUemX9IwcSuNldq5EpTyzXTNKLwkICAjUFGqVqAeQllKza/UUUEBW2t0KzS0U8zw9PfHw8HhrxLxn6d+/PxKJBH9//0rbKkzJNTAwUKZZgqLBRnJy+S+QpSbmxN+/RX6+4sLk8SNFHRB9qTFyuRyxWEyrTgOY/dNWAB7ERCrn1jEyw7F9Hxzb98HAqOipo6V1U6Z8s4qmTl0ICthGbPTVVz6/yxcUqbfh5w+w8ufJREcGK8aDDmJu2QiAi4E70DcwZuCYr2jm7PLKa7wqHh4e/PDDD9W+joCAgMDbRkF+FuePbcG5Yz9+8Qth5rwtGJlZcvrgeupZ2eP550nmeh9EU0efi6d3FpsbfV1RT1F2I7RU23MW7qFr3/FEhp/iSfJDLgRsp3OfMXj8eYqPv1HUhb1y8Qix0Vcws7BhutdGvl12nDqGpoCiTuzXPof52ucwdevbvfAcXAa4M9fnKAAxt4q6uo+b4c3XPod5b+L32Ni3JjoqjIKCAuRyOTevXcSqcasStp5ds6lzFwAS4mLIyc4kOSEOgMSHd0mMuwOAmnbNiQgWEHjTGOpqDcCOwzLlmIWpLtGxaVAgZ/Oy3oTtKjsrpTQ7ABv23FRubzsUXVl3BQQEBN4oautjyzcKmUyGl5cXcrkcT0/Pt07Ie56lS5fSsWNHWrVqVSXvRWFK7qxZs/Dy8iIgIAAnJydMbbuUa769YxfOH9vCuiWf06h5e07s9QOgcYtOBB3fSujZfTh37E/8/dsANGjUUjk3KTGOkwf+BUC/jjHOnfoXs92l/ziuh53k7JH/GDH51cSwS6d3IzEw4qtfFV2D83KzmTe9BxdP7uCb4dMxs7Dh/PEtZKSn0KRFJ66FBryS/Vfl+vXr6OrqYlnL6nU5OTkRGhqKs7Ozql0RAKZ9f5IbsmS2L+2DvoEmE746xsDuVgzrbwf5BXgsCeHfHTfIzsln2ocOfDOtDe9NPciAbpaMHWJP74l7aWpnwPJ5LmRn5NJp9E62+PRkxMwjTBjWhM/GO7Jlz01++TuUYP/3QK1mPdtadEDEjXg5f4+HyWvg8j0wlkCXxjCnd40OVH8hXX79lZz8oi7AUm1dfhwymOn/bVKO/V+fvhy7fp3H6emsnzKFm3FxDFu+nDHt2rEt9FIxe3P79mNw69Yl1vE+dJgf9u7BwkDKzk+n8jg9vcQa9aVS5VgDqSE/DB7MzYcP+W7XLs7/3/+hra1NTk4OHX/9Fc+Bg/h25w7WuLvjbG2N7OFDPl63ngsxMj569108Bgyg79KlynPr1awZ89zeq9L37lnyMxV19Tr2fB+RSIR1k1bk5mRz51Y4Q8Z9g7qGFnUMzXBwfpe4Zx4uNW7RkRthiki96MhgGrfoSNSVsyXs122geBh09+lDpnbdFDfgTRw7o6mjz8N7t1F7GhEXHRmCjX3Jv0F50NKWoKmjj9oL/pmtGjlzdMcKEuJkqKtrkpOZilVjZ5IelSysX4i2rj5SE3MSHsSQEFf08Pfh/dtkpKWgqa1bpbWOBQQEitO5dV30JZo8fFxUdsK2gT6nQ+IJCo2nXWvzCtu5fuMxN6KTmTPJiT2BMWw7GE1Wei7akhfXoxYQEBB4m6hZdzOviDy3gP923WDr3ijycxTpHjmZeazZeg1ZTFGYdm5WHvuPxbDo70ss+vsSJ87dhwJFCuXGnZEcftqdKeFRBuu2R3LkRFGk3Z27T1iz9RpZ6bms2x7Jpl1Ryn03biaxamME8fHpFfJfiMx7MWvXrmXMmDFVZq8wJVcmkwHg5eVFbMzNl096ysAxX+LQujuhZ/exdZUHyckJjJj8I9ZNWmFh1ZS7sqtsWv41x3etpKlTF/qNVHQilhgYkRgXw/bVXmxf7cXx3asAFDczaoqbGfuW7yIxMOLiqd1l+iF+2j1XLBbzJOkh92Miad1xIAZGdTEwqotx3YY4d+xHckIcSY/uMdXjXxzb9+Vy0CG2rfYkOjKYBjbNkZpYlLFSxfjhhx+YO3dutdiuTp6N4hRQPfsD7xJw/gHbDilE8vDIx8Q9UnzHfrv4Aj8tDyE7Jx8tTTU8lgSTmZpDaEQi9+IzSEjK4nRIPP9sucHN28nk5MoJj3xMWkYeFmYSfl99BeRy/toQgYmhdo0T9ABkiXKuP806OhoJUQ/h8DX4fhe4r1GtbxWiQM7tR48IiblDSMwdouIfIktMICYxkZCYOySnZ5CWlUN2Xh42JiZsDg7mbkICmy9eJOLBA3Q0NYmKf1hsflp2dollbsXF8dW2rdiYmJCckU5wTEypaxSOpWXlsDMsjBF/r8RQIiHiwQPC7ylEoyv37hEeG4tES5OIBw9IzsyE/Hz6+PhwLPI6OhoaLD5yhJuPHnHu9m1iHyeRlpVDRnbpKWVVhTwvAwDjukX1pNJTFWloRmZFD1OkJvV4/LiofqJts3d4+CCatNTHRF05i12z9iVs5+RkEBESgKaOPtmZis+b4dOyEGKxGBOzeqSmJGDv9C4AS74byelD65XzoyOD+XZyO5Z8N+ql53D9UiD/LPiYnMxUmrTopBz/Z9E0vp3cjisXj9LATtGlNFYWwT2ZontwfetmJWw9v2Z9q+bE37/Fo/vRSE3MkZqY8/DebR49iKa+9as34BIQEHgF1MWMHmBbbMitlzUAk787wY2bSdy6U4406FLs7DwqA2CQqzWj+isigQ+djq20ywICAgJvCrXwmX8REbeS+PCrAAB+nJnG/33ainvx6Xw09ySr5nfB2sqAW7eTGfzpIW5EF0+3XDmvK+4jmjJuTiCdW9elV9cGbDt0m89+OANA4LrBdHrHnMCgB3w09yTvtrZg+2EZu4/FYGakQ493LZk0N5BzoQ8Z1OPVmg4IkXll07hxYyZPnszXX3/Nzz//XCU2jx8/jpWVFVZWViQlJbFtw1/UbzulzHl6+sZM/r+V5GRnkpWRir7UFJFIBEBDu5b8sOIcqcmP0NLWRVtXXzlv3sqgUu39tPoCIo1sGdgAACAASURBVJFCTFBT18Br+RnlPvkz9foKKVyrkUN7Fm6IQF1d0UV34YYI1NSKP6UcO9OHMZ8tUtbUm/DFMvLz80hNSUBbRw9tHb0yz7cihIeHY2lpibl5+Z7E1iRcXFzw8fFh1qxZqnZF4BnW747CfURRbcb01Fx+XRnGAJeG7PijN4hF/Ot/Ay2t0gugbzkQzWdjim7kPxzciLFfHcf/QDQng+Pw/blbtfidnJxcpc15Pu8Fc/vB5H9hzVmYN0RMQ5OCsifWFMQi7i1aRHB0NB1++YUzc+bQtH59tgQpvh+veHigoan4TrubkMD/tm9na8gl1gddwL1jR6b37Mn0nj0ZvHQp+lparJ9S+nf25aeC3IEZM9DT0iI1K5vAG5El1ihc99K3c1l06BAeu3djY6yobxpy5w7t7Oy4dFfxYK+RqanSfsCNG9xOSGDZ++/zsYsL686cQfLU5oZJk+jWrKToVBU8251bLlc8vBQ/E+GWm5vzdOzFArVVY0Un5xuXzxAdGUzvYSXr1n43SSH09R0xg/ynTStKs9nMuRv9R89m36bFbF3lgY29ohGUpo4+VnZOSI1f/tDozq1wAJo6daGJU2eSEu4DYF7PBj0DYyR6UqTGFkgMjIi9fRUNDS0a2DRHU6tk59fn16xn3ZSQ03t4+OA29a2aIxKLiLt3k6yMNCwa2pMU91LXBAQEKskQV2tWbr6ufN2/mxUNzPWIuJlM8wFFjW1e9n1Vmp0Ne26iL9Gkg5MputqKB3r+h6MZ3FvogisgICAAtVzUKygoEkAWrApj2pjnnsQWyJk0N5Ab0cl4f9OBie81pQARu4/LMJZql2KvaPvbxUEc2zC42H6v6W3YfSwGj6WK2jTnQh/y+YSW1K1bvpQOQcx7Ndzd3Rk2bBhHjx7F1dW10vbc3Nxwc3NTvv5j7VG2Ho58yYziaGrplHpjIRaLi9XLK4vCKL3nXy/8agD3Y0r602/ELHqPUNyEFQp6z28/64tYrFVsTE1NHalR9YpthZGmAgJVgW0DfQLOPyAuLk05Fnz1EQDfTm0F6oobgrHD7F8432/7daZ94KAcG9TdGoBJc08AMMS1em4Gunfvjr+/P6ZlH1p+xPB1XxFrzsoJuVNAQ5OqNF5zaGBiQmdbO37cu4fUrCyWjn551NezqD/9Ht104QLTe/ZER7vkb/zzmBsYACDVleBgYUGQLJpP6M4FmYxezZqh/kwk59nbisjR8R06APBhp07cf5xYbv8qSvfu3fH09OSzGV8gUlec05Pkhxg+jbiW6CkE5LSUosLxT5IeYWxSFLkn0TfCzMKGg/8pmkYVinzP0r7HCGzs2/BOt/e4HqZoHpT25DESfUPkcjkJD+/TrJULAL3em4a5ZRNWL5rK7WuK66H6DZsw+f9Wlnk+rkM+Jj8/l4A9q0l5XFQIf8AHX9KkZVHkXmOHDsgiQ9DS1sXWoV2ptp5f07x+IxLjYoiNvoa5ZSNEYjGRoSfIzsrAzqEjEXGPyvSvtpCW+YTpS/qQm5eDRLsOo3vMoHsrN8JunWHhpunK44a8O5H/ji3hu3G+ONkp3l8vP3esLByQF+RzJ/4GX4zyUdoCaN+sF4b6pgRdP8qS6fvIL8hn4oKOdG81HPc+c5DFRTJn+Xv8OfsIJgYlRdx/Dy1i1d4fMJVasGjqTrzWTFDaBtDTlbJ89lFOXd7L8l3fc/dhFP06fMgXI7zRUNfEy8+dqHuXUVNTo6vjECb0/VopAn38W3dy8rJY+eVJ5Wc+OS2RBZumcfryPkylFnzm9itt7XsozykvL5/6Ejv+j8ElfBWoHGpqiofOGuqKh2s9O9XHtoE+t++moq+rgZqmGgHrBjLokwNE3FQEVzSxkdK1rQXxiVkAaGmqvdRObm4+ETeTmTKqGaiLcXQwpoG5HodOvTgdX0BAQOBto1aLeoV0bl2X0yHx+KwNZ8ygxsrxW7IUTofE49bLmmnjHZXjowc3Ls1MMXsng+MIPFs8tLulgwkj+tqy5cBths84AsCcj8quw1Uo5kVHR+Pp6al86i5QNn5+fvTo0YP9+/djYlK1d7L6Ei309HSr1GZlGP7Rj6SnlWzg8bKi49WJpqYGJtKyI/tOnjxJq1atMHh6g1wbEerq1SxG9bfj5xWhbDt4Wzl2/6EiJdDBzpAV669w6VoCGupqLP22c4n5owc05qflIVy8UnQTL9HXYGQ/Wzbvv82IvrboG5QUxQHuPcxmzZItSEyuIpVKX+l/olu3bsr/o02//UZVfmPZmooAOXEpYqAWReqVgfU33wAQ/v13GNcxYGzHDnyyfj362tr0sC9dtC2NTrYKkfbzLVsIuxvLqnFjS12jkP9t386as2fpYGuLnq4uXRs35lBEBKAQ8Ea2bVvM/oOUZBoYGqJdiljotnw5OhoarBo7ln5OJQUzUJR8qCienp4cPnoUkZpCKv5/9s48rqb8jePvu7TvixaVVkqWItmX7OtQyJihsQzGzG+sM2ZlZMaMZWbIWMYyyL4NmjGWrFmyJQqJUBESRam01++PW7fSjVBuct6vl5fbOd/v833OqXvvOZ/zLBfPBGLt4EJaahKZT9NR1dAh4vxhWnYeREb6Ey6HHqHpM/Vb7Zybc/rQFmpbO6KhpVtmjf4jfpA/tNI3lAk1V8OPY2phT2zUBbIzUjG3qkfCnRuYWjrgWNiYAtHLHYtERZUWnbwJ+m8V1y6eoG7DVgrH2Tg2JcB/JgDuHV9cXB/AxEKWsnfxzD4GfzobiUTKwZ1/yvbVtofzNUnUS+ZS9GlMDSy5evs8oVFB/DfrNveTbnH19nlqG9uhKpWiIlUn9n4UF64fxcW+Nbl5uew6tYZvPlxCVFwYsQlX5bYMdUzQ1dInM+spIh0RJy/vJTsni6Qn94mICUFDTYfh3b/i5r3LRMdfQVuj7Hd+7P1rLNg+BQeLxjx6cp8rsee4+zCaR6kPANBS10FPuxYx8ZFMXNQHAEMdE/4O+hN9zVqM7TeDs1cPkZaRgpqKBn/+MxVr03p0cfPmXmIsoVFBAMTEX6GuZWMKCgqYsKgnETEh2JjV42FyPKv3/YJTnabyY9JU0yVHvWpT499VJKoSMi6ORKoqkf987cBgKADEhRktVrqE7x7E/ftp5OTmY2WhAyIR9naQHjYSVQ3Zrejz7DwNH4lK4T5EIm4eHKwws0VAQEDgXaVGiHqjvJ24HvuEGYvO061N8dPpG7efANDeXRal1HpgAOkZsi/2GeOa4dnDrqwx4NtPmtDnk31M/yOUjwc6ldr35ceN2bYvmtT0bMYNbYCRcdnIrSIEMe/10dHRYcWKFQwdOpR9+/ZVqm27OiakPA6pVJuvw6sWHa8qUp8kY1dH8XukJL/88gt///33G/Co6iiqqyeIetWDutZ6tGlqyoZd0UgLn9w/zZA1I5BKxRw9e59t+2SC35wvytYH69e5Dr8sPc/fJURBgJxcmRj2NDO3zJxnKSgo4PHjxxw5ckTh/tjYWHmNzmdJSUlh8KRJ7DTIe+E6FaZQPBGJataNjJu1NWJEqBZG3eTkFZ+z3Px8pBLF6dXPYqiry55xn/P+ir9Yc/oUzW1tMNDUVLgGwKLC3+t8b28AWtjasvTYMe4mJXIlPp7mNqXLajzNykGlHF+czMwx0dbGUKv8qP3XvQHV1dFFomZAbWtHDv+znHuxkcTFRjBgxHTc2/clOHADy38ZRVLCLbIzUmnWrl+p+Tb1mnD60BYc6rd84Vq1rZ0wMbclwH8msddCuRJ2AoAGbp3wnzcOkUiESCQ7FxY2zty7dZW7t6NYu0BWwqD34MkYmdYp134tcxv0jc2IvHBULuod2LGY04e3YmXbkI59R1HHvvhBrJVdI4V2nl3TpHbx95WJuS0SlWLh3tjcFjj9wmN/2/hh2GqkYimfzOtIVFxxZ+Ot0y+jriq7Pt15fBkRMbJrnVsJsmwAZ2v3UuMBZn68keb1ZVkRwZf3AnAvKZaEx7J09MhYmY3bCVHUNrZDXbXsQ9Gbdy8BsGjCPjTUtHmamcr+3xK4HHOG4bNbsvKrkzhYNGTRzm8BCJh5EzPDOnzyuwc7ji/lk76+AHzYaRJDuk3GY6I+l2PO0MXNm8uxZ+TrRMSepa5lY85HHSUiJoRxXrMZ1uNrMrLSOXxhR6ljqlurKedCjr/K6RWoAFK1Z24lRSKFYr+ZWdmHxEWC3ovsqKiX3idSEb/s8wQBAQGBGk2NEPU01KX8OKEpY6cHs2DtZfl2tcKnOqnpspuE9zpZczkqia17o7kdn1quPdf6RvKIDotnUmsPniyO3tt99Dbzvm0lTwUr4t6DLPxGjBDEvErC1dWVzp07M2/ePCZPnlxpdtu618Pe+iSBB47RvWv7SrNbEzgXeom87HQG9lKc9lTE3r176d69O1rPuZl9GxDq6lU/hrxXl89mnEBHS3Zjbl5LdgMZezeVjQu68H7gTQaOP6RwroGuGt497Ni8u1jUS3mcxc4DsZgYarA76DaPkp5iaFT2ptTCRI0pXb2pVXfgK/ktEono0KEDG2bOJP6jnq9kQxHxhUG8Zro1S9Tb/skn8np3AKtPncRER4cHqansvxJJL5fGz5ldmq4NG3Fh6lSazJxJUFQUXoUi/bNrAIRPm4bLTz+xKSSEZnZ2uBeWw/A/JRN+3OpYk5mbIx9vqq9LdGIi5OXBM+LeLM9+L6yp5+vrW+HjKMmMGTOYP38+PsNGYd/ha4aMm8eSn3y4Gn4cfWMzrOwaUq9Ra+7ERMg7nPf5cAr2zs3l6a1isRibek0AWdOMIiQiCQVi2d9TUZ3XIoZOmM+yWSMJO7UXVQ0dPp22FnVNHRxd2vHvOlmd29ZdP8TWsSkR5w6RnZHKheD/APDoPVKhqKeqooG4UAx0btKJ8LP75NGBNyJkgk12ZgYd+46SN8bQ0jPEuNCWWFwcqaOppadwTTNLB+7fuUEtC1t5iQojM2s0td/eSPIXoactiwkur06Zi31b9p2RNTW5FifrJO1goVgoLcLWTHb+7zy8wb1HsQCkZ6aSnJbE7YQonK3dFM4rKicSGLKZIV0moaWuo3DchevHadOoN5a1ZEJszxZDmL3xM9IyihspaKrpoKVe3CU5Ivo0rRv25NGTBMJvBOPZdhSh12Wp4u93Gg+AhpoWvVv6cP/R7ecen4CAgICAQE2iRoh6AMP7O/Hzn+Fs3Vt8E+dkJ7uIW//vdb4a1ZhvP2vC6dCEUmPKY/rnbmzdG11q7JPkLGYvv4izgz6dW1mwcF0E6/+9ztD+xSlCc1ZGcfZiEj/M/V0Q8yqRKVOm0KNHDzp16lSp0VSr5wyn35hF/LHoLxztbUhKqUBnrhqMjpYmN6LjsLUy5sjGL184ft68eRw4cOANeCbwruHV1YbPZpwgNV0WXV3fXlY7bNmWSH7/vvXzpgLwQR87eTQfwI4Dstcbfu9E1xG72bE/llEfOJc3/ZWZPn06vr6+pIeHE//i4RVm5QlZlKFz1TSvfm1KNnR4Va7Hx3P+1m02jx7N+M2b2XDmdIVFvbjERGrr6WFdqxaNa1u8cLyDiQk+LVuwOSSE370H4VjY5Of3AwewMzbGUFe3VM08e2NZ6mvglQi6N2rMlTt3UJdW/SXUkSNH8PDwIOmxrL5k7TqO/LT8DCmPE9DRM5aLKBNn/s2T5Ieoa+qgqipLEdYzNC3dXGlDhLyJ0m8bI5FIZY2WGjXvKn9dhJVdQ9k6j+6ja2AiF9Q6vvcxzTv2p6AgH20dIwD6DJlCnyFTXngsX/2+B3GhvwM+9sVrxFSkUlXmby3biV5VTYPfNkaCSCRvFuXaupfc1/LW/PLX/6CgQH48RTYyM2tm+uXO48uJvS+Lvmto25IzV/YD0Pc7GwA2/XCRBjbN2XhwPgmP73D19nlc7NugqqJWxtaUpV6oqWgw1ecv2jbqDUDcg+vEPbiJWz0PQqOCiHtwnej7EbRv9J5CfxrbyT6b52+bzI074Xzv85e89l1JHqbE09CmWGA20Zdl2SSnJQJwMnIvV+JCSc9MpXn9LgCEXj+Gh2s/ktOSOFIYjZfwKI4Gtu6oq2owd9M4snIysDN3prPbQPkxSSUa9Gs4GoSaegICAgICNZQaI+pJVCVMH9eEUd8Xh9ibmWkz5v36LN8SSevB/zLkPTsirpetWaaIeg4GDO3rwPp/iy82f199idT0bH4c346WrmYsXBfBDwtC+bCPA+LCqMAPelnyQQ9jXARBr9JZv349PXv25OjRo2hqVl4tvH+Wf05UdDzXou+Tl1+zomBeFrEIHGxMca774pvibdu28f77FS9kX90R6upVL4xradK9nRWBx2WpXzbWenRpY8Efay9z5eZj7iWkP3d+97alI4XW7IzCo4U5Hq0tcHbQZ/2/16tE1HvViKzy2HQWAiPgdDR0coK61VTUK2ro8PXQoS81b5i/PxKxmKEtmnPuliy6pk+jRpyJiWH+wYMsz8hAS6P8MhdFbA4JYf2ZMzS3sSE4+iaz+xc3RSq5Rkm6OTdg3ekzXI2/h5OFBd0bNCAwIoIBTZqUsd/PpTGfrIc+ixbTu2Ejdl++xOlvvgFg5p49/BUcjFsdayZ26/pSx/8iFAmlIpFIYfMjXf2y7VlKNVcqIeSUFPGeFfRKraOgm62WtsFzfT6xbz0hR3eU2tay8/u06lL8fSFr6qS4ruXz/CrPV/n+ZxtRycfXTFHvYKiso+g4r9noaxvJtztZuyESiVGRqOJsLasPGRUXxqXoUzStq7jzt425E/raJuhqGSIWi2lk15JbD6KIvX+Ndo37EBoVRMz9SCJiQhje/VuFNgx1TVgwbg/frXifXafW4GzbHO8On5UZl5mVBiWiQ4uiDIsE3KJ04VYNutOifhfSM1O5evs8n3vNIiUtic2H/yAxJZ6M7DR59Ofu02tIz0ylga27XNSzMXdCW8UADVXFEYMCFUfLwIHcjFSkGsK5FBAQEKhuvNWiXlG3pMKSS/j0rceSjVc5H/EQfR3ZxeL8b1thqKfO4g0RfDFblt5hZaaNa33Zxa+OlioqKuJCezI74sKLiumfu/HPodukpmcjkYj4Zel5nB306dfFFiRiJg5rhN+aS+w6Eku/7rJmBnXMNbl9N/ONHP+7hrGxMbNnz+bjjz9m06ZNlWq7np059eyq6d1yNWX58uU1KkrPw8ODgIAAwsPD6dChg9CdWkmoqIjkn+1jB9cn8HgcejoyMWLdnI54fb6fg8GyrnedWtZGU1OKhoYUqVSMtHCeWCxCVUPKxOGN8PO/RH5+PsHnE/jrZ1lx/2Gejnz92xlSU7LLbZihLFSloFL4XWSiDedvg446DHaHxR+8nu2snCzmz5tPll7ZRgmVga+vL4f37mWagj4e0sKb9qIaeboasmiybaGhALhb27DjwgWGtmiOmpoag9zcmH/wIMevR9GjsQtSsVhhxE8Rbezt+S4ggCvx8bjb2PJJu/YE37xRZg0rQ5kgJRaJ6FDXAYBzt27hZGFBOwcHAiMiaOPgUOizbD2JWIyRrh4bP/6YD1euZPflS3RydMLa0BCAoKgoANKzsipd1HsbUVXXQOcZgVFFtWxkmMDrM2fMNtYf/J1dp1YxrMfX8u1zP9kur6mno6mPlroO4TeDuRR9mo+6faXQ1v/6zZLX1AOoa9GYmHuRXL0dytAuk2lg687ZSFmTOFvz8tPN2zTsyYapFxgyswmh14IUinomBpYkPbkv//lh8j0A9LVlfzfDun9Nbl4OGw7O42HyPW4nyN5jP639WN5JNyI2BBN9S4Iv7SE/P5+jC57w66bxXL5VXDvxf/1mCTX1Kgmpuj6ZGWlovw2inkgVdV0bZXshICAg8MZ4q0U9Z0cjsi+PQlQoyolVJZzZ4QX5BfKuS6oaUn76wp2fvnAnKTEDqUSMnkHxxeWjsx/JC7GO+bAho72d5fZsrPV4FDpM3n0p+/IoRBKR3Pav37Vi9pfNkahWrJC3wOvTuXNnAgMDWbduHT4+Pi+eIFAlrF69mpEjRyrbjUrD39+fBQsWEBYmKxwudFVTHlf3vo9IKvuM7dPFhpzI0fLPXONamhzf4snjR7IHJwaGMmHo8q6B8s/mrEsfyyOnf/22Fb9+3RLEIjIvfSz/rJ482oUJwxpWy8/ueYPEsu8c8jn9XeXaloqktGzVEmqVjeiqLNq1aIFOXNl6Vi7W1mQtXoy4MGW1e6PG5CxbVmrMuE4d5ZE6zezsyFy0SB55tWPsWFnh9HJoXa8e6QsXkpSWirm+IYhFCtcAyF6yBJFEgrmhkcynwtTSr3v0ZHKXLvL6eyb6eqV89m7enAFNm5KYlo6Jvqy8hyL7VUFBQQGmJs+PkKsuNPcYQHOPinWsfVOIxGLMTAyV7Ualo62pj1e7Mfy4ZiRxD8qmMYMs+q2ZYye2BS0GoL51M4XjnsXeohE7ji8HoI5JPRxqN+af4JUAWNayVzjnbmIMtfRqY1nLHgeL8lPnLWvZczbyIBlZ6WioaXH4wnZMDSzR1pA9cFCVqNGvzcdsODiP01f2k/REVszAzFDWwOZR6gMu3jyJfe2GpGemEhQWQKem/St0XAKvho5JczIzrqBN9X8AnpZ8WxD1BAQE3ineOlFPKimdelEkwJVCrPjCX2Gn2meaXJSxV6L7kqK1nr0pFCNGLBaeSFclc+fOpU2bNrRr106IplISGzdurFFRep6envImGY0bV7wwv0DlU+ZzVsHneZGYp2iO+FmhrnD+s5/V1VHQA0CUr7BzYGUgkUpo1qoVapaWLx78kujp6REQEEBLKyvC/96mcIz4BTXoRM80oJColPi+L7FvtL8/EfH3S41d/MFgmtjYYG5oxIsouU4pn8SiMg01nvVZLJXKBb03ibGhDvHR98jPL0BczjWOQPk8eZJKbu6Lu16/jbjV8wDgbORBtDVkf5u+/sMQi8X0auFD20a9aWzXiqPh/2CoY4KZoZVCOyv3zCQgeAX16zTDp9uX2Jg5yffVNrbBrnYDABwsGpe5Fi9if8hm9p5ZTwOb5oTfDGac12yF47q4eXMwdBsj5rRGX8eYc1cP82nfH0uNqWNaF1MDS05e3sfT7DQ6NR3A3E/+BmDs/M6E3TjBx72m8tuW8Xy1bABd3Lw5FbEPG/Niv1fumYmuuiHqeTp8I9TUey0sm07hRmB/jF9cnUWpJD+8h7nzcGW7ISAgIPBGUdwqq5oikqiRnvpI2W48l4zMJ6hola11I1C5bNiwgSFDhijbjXeShQsXMn78eGW7Uano6+sTFBSEnp4eTRTU0xIQEHg+YWFhb6w5lIGWFma6OqX+qUqqqUhbibRo05DklCfKduOt5MmTVNq511O2G5VGUUdYqViKhbEttY3tuBxzBq3CSLeDodvYH7KFW4VNNBrbyxpYFDWdAJBKVJFKVVBXlXWvD40KYn/IFi4UdpS1r90QAKc6TZFKVKhn6QKAi335jYpc7NsQHX+FXaf8aWDrTv/2n5T2tzDytmOT/vRvN4Ybdy9y7uphurh541OYFqyhpolYIrs9aduoD6FRR4iMDcHFrnjdpnXbE34zGE11bRZN2I+hjgkHQ7eRnplKmwa9Sx3TkYs7uPXoyiucZYGSqOvaINVx4v7ta8p2pVzSHsVzPTIUy6YvbtwjICAgUJMQFbxleWaRu/tR2ygfLcPaynZFITcizmLiOgNDW+GJYFWzefNmTp8+jZ+fn7JdeWfIzMzEy8uLvXv3KtuVKsHf35/k5GR51J5A1XPx75Y4N2wA4uoROH7t4hlMXKZSq+7A17KTHh5OpFdbXL5OqyTPXp/Q6To0OXelSiL1isi8eZPw9u1wm+5bZWu8LRQ8eULI7Dm0TnxYKfZ+/yuQwJO36NWz84sHC5Rizbot/DypD706vn2R2PdvJrPis6P0GtCv1Pac3GxUChuh5ObJohCfV3cyKycTFYmqvClFfn4++QX5z52Tk5uNWCxBUpiinpWTiapUTZ4mr4jM7KckpyVhamBZalxJf4tIy3hCfn4eulrFqeW5eTlIxFJEIhH5+fnk5Rcdm4rcXkFBAbl5OaXsJTy+g7aGHlrqpWu+PU58zLmQ43yzU7gurwyu7vuQ+9cqt67167LvLPRoDlqGjtTvsRntWkLDMwEBgXeL6nEX9RI49dhG+BY3amdloKVtQHVRJLOz0nmU9AijeqMEQe8NMXjwYPbs2cOhQ4fo3Fm4yXkTzJs3j+++q+RCX9WI4cOHK9uFdw6puj4UVJ90QhU1DUSVIDAWiMVoWWkB1UfU03aq/dy6dALVmy9GdWdn4GyOHjtNE9eGQu3PCpBfUMCpMyG4OJq/lYLe8ygpaD1PmCtCTaV02QKxWIz4BQk7z4pwJW3M8B9B9P2IUvu/GryYBjbumBlqvtAWIK+hV5KSqb3ldUkWiURl7JkaVN3DCoFinHpsxKHjEtIehinbFTkLDs2gmekQPAaPUrYrAgICAkrhrRP1RBJVXD+8RMyJL0m6f520R9UjDFxd24xaTp9Rq/5HynblnWLp0qV06NCBXbt2YWYmpD1XJSkpKZw7d65Gi3oCSqBARG5OJlKJlrI9ASA9JQFTDePXtqNubU3S5cc4VIJPlUK+mEeXolCzqOKCSBIJWrZ2VbvGW0JBfj46DZwr1eaJbd8w449dBAYGcv3GnUq1XRNp4GTNiIGt+ah/K2W78hoUYGSqr2wnyqCjZYCRjmmpbSqS6tVNHGQCoLHFm6+DWZORqumjb+mhbDfk7PzXg9atW+Pg1AxXVyFKT0BA4N3jrRP1irBt+5uyXQBkDQMePnzIR30+wsDg7ehMV5PQ1NRkxYoVDBkyhEOHDinbnRrNnDlz+Pbbb5XthkANQ7tWE7KzriBVrx6inlRNF3Vd29e3o6uLrnM9ch9fRloNvhoy7+Vj3NqjytdRt7EhKTIYEB5wZSQmkpueXul2p49/j+nj36t0uwLVE31TEO/6mAAAIABJREFUbWKv36VFW2V7UprJ3vOU7UKFSE9NJTenZjZJEShm+/bt9OnTh3379lGrCju8CwgICFRH3lpRr7rQu3dvNm3ahKenJ4aGhvj4+NC/f39lu/VO4erqSt++fZk1a5YgOlURSUlJ3LhxA3d39yqxn5z6iGMhB3j4KKFK7NdkdLX1qWNhT4tGbZTtyiuhZ9WDuODtOLqavnhwFZOccAuRmhlq2pUTzWb0wac8OPIdtbukVIq91yHhgjHGPmPfyFrG7t3JfvAAVROTN7JedSXrcTL6HTtWiq20tDS0tbUrxZbA24W6tgrW9c3IyshCTUNN2e68dWSkZ2DX7N3+LHoXMDc3Z+XKlQwYMIBjx44p2x0BAQGBN8pb1yijOhMTE8Pq1avZvXs3LVq04KOPPqJly5bKduudwdPTk++++47mzZsr25Uax/jx4/nss89wcnKqdNuPU5L4fNYQdPQ10NAWblheFjV1VdKTc3B3bMdH732mbHdeici9g1DPi8W8jnK6U4pFIlKSE4gMO0r7cZlA5dWduzdvKonr/DBxeUpe5pv/upWqi0gI18bsi/mYDP34jax5b9Ei0rZtw+4d71B+YeZMnPfsQathw9ey4+fnx/79+9mzZ08lefb2Exsbi42NjbLdeGMcWnWFuyF5NGjSSNmuvHXs3/UfY//qiIFp9YgGF6hatm3bxrZt29i6dauyXREQEBB4Ywii3nNIS0tj0qRJrFix4qXnHjt2jLVr1xIWFoanpyfDhg3DysqqCrwUKCI5OZmuXbty+PBhdHR0XjxBoELcuXOH7777jrVr11a67ccpSXhP6sSYicMr3fa7xsHdR3G1bcVng79WtiuvRMKVVTyMWktq4tU3vraqhgFqOrY07LubyhT0ini0fz9PTpwg98mTSrf9IqQGBhh06YJemzcbyXmxfXtMHRwwehcfbGVmcjswELGzMza//vrKZs6dO8cHH3zAjRs3+Oyzz1i8eHElOvn2Ehsby/DhwwkICEBfv/rVmqsqNk8NITE6Gxt7W/Ly8pTtTrWnoKCAm1FR9J7YAKd25sp2R+ANMm3aNDQ1NYXsHQEBgXcGQdR7Afv37yc8PJwpU6a80vzMzEwCAgJYt24dmZmZDBkyhEGDBglpNFXEiRMnmD9/Ptu3b6/Q+IKCAvLzhbfA8wgI2Enjxi7Y2b24+L1E8vxOes+yeNNc4tIjadq8ZnUlVAa5uTmsXbqVvctCEAkdTgWqAbFTppC4axc5iYnKduWNkk8Wjov/wvj991/Lzt27d2nQoAEpKSksW7aMMWPGVJKHbz9hYWFMnDjxnRP2zuy4yc2QB6QmZyjblWqPkYUubT90wMzu3fn7ECjGy8uLESNG0LdvX2W7IiAgIFDlCKJeBfjhhx/o2bMnrVq9Xve0xMRE1q5dy7Zt27C1tcXHx4eePXtWkpcCRUybNg1ra2tGjSq/tf2tO4l8+sMGHiSlEXXp5hv0rmZTx9EKFycrVs8Zjqrqi0t2/rjsSzTM8rC2rfMGvKv5HAg4wYKv1qJZTZpOCAjkZ2SQm5KsbDfeKKpmlRcV1KNHDwIDAzlz5oxQWuIZwsLCmDFjBjt37lS2KwICAtWMjIwM2rVrx9q1a3F2rtwu5AICAgLVDUHUqyCDBw/Gz88PMzOzSrEXGRnJypUrOXz4MB07duSjjz7CxcWlUmwLQIcOHfjrr7+oW7dumX1x95LoNWoxvXt1w8xU6JBVmeTl5XE77h4njp3g5N9fo6am8tzxE2Z9hFk9fezrvn63UQFYu3QTf88/irqahrJdEagGJCcnv1NRTDWNzZs3k5+fz759+1i6dCmamprKdqna4e/vz9GjR1m9erWyXREQEKhmxMXF4enpKXTEFRAQqPEIol4FSUpKYuzYsWzbtq3Sbe/bt4+1a9cSHR2Nt7c3Pj4+mLzjXQNflzt37uDt7c2RI0dQV1cvta+LzzzaduiIvp6ukryr+URdjyEz+Q6r5g5/7jhB1KtcBFFPoCQ7d+7k33//FQSPt5CnT58ybNiwKrnmqGm8jrCX+DiB3NzcKvCqeqGiooqRfuWJGkePHpW/1tPTw9XVtdJsCwhUJiEhIUycOJHg4GBluyIgICBQZQii3ksQGhrKli1bmDt3bpXYT0tLY+vWrWzYsAE1NTV8fHzw8vIqI0oJVIydO3dy4MABlixZIt92N/4RHkPm8b9PRyjRs5pP+tMM1qzZSNThX547bsKsjzC21eHBzWTy8goQS0SYWhlRt7E1YnFxfb6rF6KJjogjNycPq7rmuLR2lO9/eO8RIYcv8TQ9i7qNrHFp7Ujw3lBysvLLrNequwtqGqoKfcl8msWpwHAS7z/GzNKIFl1dCDly8bl27sY+4Or5GFISn2Baxxi39s6oa8o6+J4LukxaYd0jDR016je1Q9eguJZmdmYOx3efo6BARNteTeTzirhzM4Goi7d49CAZQxN9mrR1wqCWLkkJyVw6db3UWNe2jugb6wqinkAZhEimt5NvvvmG4cOHV0nH8ZqIr68vNjY2DB8+vMJzfl7xNbfu3SD+/p2qc6yaYFKrNs72LnwxzLdS7Lm4uHDx4kUAVq9e/VLnXUDgTbN+/XoCAwNZt26dsl0REBAQqBJeXPRKQI6bmxsnTpxg165dvPfee5VuX1tbm5EjRzJy5Eji4uJYs2YN7u7utGjRgqFDh+Lh4VFq/LVr13B0dKx0P2oKXl5e7N27lz179tCrVy8AklMzyMnJUbJnNR8NdTXu375fobEP7jxi0dTNpba5dWjAlAUjAVg6fTNB/4SU2u/axpmvF47gwd3HTHivtHC4OHAaf3yzQeFaTk1tMatjXGZ7TnYu04f9QWxUPBpaamSkZyFWkTzXTsS5myyfsaXUdlNLI6av+h9Gpvr8OmFVqX0aWmr8tHYCVg6yFP4LwZEs/1EWhaOmJqXde83kY/9etp9tS/aVme9/chYhRy6zetaOUvumLhuLvrEQeSpQlqKb7REjRgjC3ltCdHQ0mZmZgqD3Evj6+sr/1isiME2cPQyrBrXo0qJt1TpWjbgdc4cpv43m1y9XvLYtLy8vLl68+NJCqoCAMhg6dCjh4eHMmzePyZMnK9sdAQEBgUrn5VpVCjBhwgR27NjBjRs3qnQdKysrpk6dyqVLlxg1ahRbt26ladOmTJs2jZiYGG7dukWLFi2IiIioUj/edhYsWMCPP/7InTuyJ/FPnz5VskcCz1IUKjxgTBdWHPkRR1dbQo9GEH3lDueOXCbonxBc2ziz7PAMlh+ZgUtrR8KCr3DqwEVCjlwCYPK84Wy68BvfLB6Njp4WK478yNKDvtg6WwKw9KAvyw75YmplpNCH2Gt3iY2Kp+eQdvifnMWcrZOxd7Yq146KmpTlM7ZgbKrP3G1fsubULAZ80o2EO0nsXHFAbtfR1Zb1IXMZMqE3GelZBO+9IN935mC4/PWpA8WvL52OYtuSfdg6W/Lr9q/YGDqXX7d/RddBbUqdsW8Wj2bN6VmsOT2LBs0dXut3IFCzGT58OB06dGDECCFC+W3gq6++wtfXV9luvHX4+/sTFBREUFDQc8ftD95FWm4yVtYWb8axakIdW0uS0u9z9Oz+17KzYMEC+TmePn16JXgmIFD1/Prrrxw8eJDAwEBluyIgICBQ6QiReq/A4sWLGTx4MJs3b34jhatbtmxJy5YtAdi+fTsTJkzg2LFjpKSk0KVLF06ePImtrVCTTBEaGhqsWrWKESNG0L17d0IvXAZMeZqWQvjpvVjXdaW2tSwa4nHiPSIvHKV+Ew+0dQ0JP72X/Pw8AHT1TbB3bo6KqhoZ6U8IO7Wn1NznkZ+fR8S5I9y7dRUtHX1cWvZAR9+Yc8cC0NI1oL5rBwAe3r/F9UsnaeDWCT1DUwDSUpOIunSKxLux6BmZUq9xGwyMawOQnBRP1KWTAIjFEozNrLGp14SEOze4dSO8jB+1zG0xMDaXzynCybU9AFfDjqFjUIv6LrKfkxJucz3iNE1a90YslpY6HwAWNs6Y1LZTeJ4k0uc3yFCEWCpF11Abp6b2XAuLISsjm7OHZKLd0Ml90DfSAcD7sx6En7xGZOgNLO1lUW+H/j6FrZMFTdrWB5Cn2KqqyvwwqPX8KDapVPZ84/zRK7Ts6oJTE7tS+5+1c2TnWQC8RnfBup7s9+E1qgvbl+3n4qko+TyRWISKqhRzG1mNTEnhOlkZ2QTvuUDnga15eDeR0KMRpD15irauJsd2nQNgrO8g6hRG9dVxMGPIxD6lfMrPyyc3Jw+pVFIqVVlAQBHDhw8nNjYWPz8/Jk6cqGx3BMrh33//pWfPnkKDk1fE398fDw8P/Pz8yq3zdjz0AHUb2LxZx6oJDs42HD2/nw7Nu7303OTkZCZNmoSenh5BQUF4eXkJUXoCbxVbt26lQ4cO2NraUq9ePWW7IyAgIFBpCKLeK6CpqcmcOXMYO3Ysa9eurfL1CvLzERXetA8YMIABAwbQv39/du7cyf379+nSpQunTp0SmmuUg7OzM/n5+UyZMgW3Zi1A3ZRHD+LYunwqPb0nyoW52KgLbFsxjeGTFmFkZsWGRV+WsmNm6cCkWTtJKpzbw3t8hUS9Hat+JHh/cRpnfFwU3qN/ZMOiL7Gr7y4X9aKvnGXbimnoGpqiZ2jKrRvhLPlpONkZqaXsffr9Guq5tOFSyEF2rJpRal+rLoOpZW7Lv+tmlfGjRUdvLGydy8z59Ps1PIiPYfsqXwA+992IvXNzblw5y5al32Hn1IzsrIwy56PbgM9p1LyrwvM04eftLzwvz3IvNoHju86xf8txAOrUNefe7YcAmFsXF/g2tZBF2yXdT2HQZz3Zs+4Y4SevMa7Xz7w3vCMfjOuJRPpyH202TpY079SIs4cvMX34IlzbOPO/nweXqoFXkof3EgGobWsq36aiKsXS3pQ7NxPk225du8t3Q+Zz83Icxqb6ePRzB+DiqWsAuHdsQNL9FC6eiuLC0Su0e68ZcdGytGXrehYE7w1lx4qDAGjraTFj9edy23PHr5SdD0sj/tj9/Usdr8C7SVGKor+/v3AzXk1Zvnw5//33n7LdeKsJCAjA09NTLuw92wX6dkIMzZ1dlOih8tDW0eLSpZfPNAkLC2PixIlMmDABLy8vQFa3WEDgbUJbW5u///6bgQMHcvDgQQwMDJTtkoCAgEClIIh6r0j9+vXp27cvixYt4vPPP3/xhFcgfsUK7sydg0gk5mnSTfn29PwC0p6IGKUiwlYqos7DWK7WN+dqlXjxdqJVqy76nTtjv3gx8+fP5/DhwwBEXYvE0KVDhe10GziOjn1GsmHxFC6HHCQ68hzaeoYVnp+Xl0vw/g3UtnZk8ux/SH/yiKSEuBfOy8/PZ+uy78jOSGXkl0txdGlD1KVgVs4dy9aVP/Cd334o7HHz6fdrqGVhyx8/DOLUwc38uOI0bm3f42ZkCGv9JtDTeyItuwxCVV2TkCBZLbYx363EzkkmMKmoqpNwr/jva8+W+YybsUmhX10H/I/O/T4BQKqiSvztawrPU0xUaIXPURHBey4QvOcCeobajJ/tg7aeJurqsoi73JxcpCoSALIyswHQ1tVE10Cbudu+ZP+WYHasOMAu/yNYO5iXqk9XEUQiEZN+H8bp/eFsXriHsOArbFqwm09831c4XloYuZeTXbprYmZaFnqGpYVAHT1ZhGHDlnWpVVv2t3PqQJhsfEY2BQX5hdvCafdeM3lUYG5OHiaWxri1b0DQP2dLiYUA3p92x6quOZraQiMdgYpTUtAThL3qha+vr5DOWAno6+vLhT1/f39GjBjBkSNH5PsfJyfJP2ffNVTVVHmU8uCl5vj7+8v/2djYVI1jAgJvCFtbW/744w88PT1LdXEWEBAQeJsRRL3XYODAgUyYMIHQ0FDc3Nwq1XbS9u0kLluG85ChqJmZldnftVJXq3kUPH3K48irXOnVi0l79tC6dWu++OILgoOD0c1Kq7AdsUiCuqYORiZWsp8lkpfyQySSRVjeu3WN8yd20bTte+gaFEdU5mZnkfRAJvKlPkmSb09KuM29W9dwbdWLRs27ANCwWRfqu3oQGRbEk+SHxWtIJegZmqKjY0Ry4n1U1TRRU9dES0f2BFJDR6/UmgB5ubnk5eYgkUpLpW7aOroRHRlSJkW3iPw82TwANfXi1PMy5+kVynX2Gtqe/qO7oqOvJd9mamXE5bPXuXohBtc2sqjIoig3S3tTCgoKUNdUo++ITljYmTJ3/Eriol/uhgWgoKAAsVhM6x5NaNzKkY/bT+XW9Xvljq9VW3Zur5y7gUtrWbOaO9EJJCYk07hVcUqHtaMF3y4ZxS+fLiPonxB6fNCW2jamBO+R1dbz+3KNfGxRCm6demZcC4vhVGAY7d9rRt1G1tyMiCPlbOmOt87NHHBuZv/SxyogIAh71Y+4uDgSEhJwd3dXtis1An19ffz8/OjYsSOxsbHExsYKgtRL8my6rYBATaFNmzb4+PgwevRoVqx4/cYxAgICAspGEPVekwULFuDp6cnKlSsxMlJchP9lSb1wgYQlS6g/Zkyl2HsXEWlrY+jejJysTG75+tLC15cTJ06w8M9VzFoRXGE7x/ev5eLZvdy7dY26DVth79xcHp1WEcRiMf1HTmfHqhlsXDyFgzuW4DNhPpZ2DQG4ffMiMz/vWGbe4wd3ATC3LF3zo5aZNZHAk0fFwtWOlb5kZqaRnHifHt7jS4lt5bFyrizazsjMmql/HJJv79J/LCtmjWbf1gW06ORdZt6hgGUcClgGwPQ/j8u3P3ue7JybAy/3BFRLV7OUoAfQoa87h7afxm/KGvqP6UZWRjZ/L5UVOe7o2YKl0zcjUVHBydWG04XNJmzr136pdQGCAkI4tf8Crbo14W6sLCLOvkGdcse7dWiIhpYaASsPkZ9fgJ6RNnvXHQOgz0dlf589PmhH+MlrHNp+GtfCun8ffdmPVt1lNZ8CN58gYOUhLhy9Qh+fjhzYeorFUzcSHRmHWZ1axN2IL2Pz9IFwbhdub9ahAcbmQhqJQMURhL3qxffff8+8efOU7UaNomRNvYCAAKGW5EugKN1WQKAmMWrUKMLDw1myZAmfffaZst0REBAQeC0EUa8SWLx4MaNGjaq0+iJp586hpqZWKbbedXQsLbl17Jj8506du/P7xmvyjqsFJcYWlPpJhp5+cS235h4DkEhe/i3TrocPVnYN2bd1AdcunmDlb2P5YbFMEDMys6ZzX5l4ezPyLKHH/wFAoipLO83JzSplKzsnEwB1zeIUT30jc+JiZV2QG7fsWSGfeniPx7yOI+qaOqW217auj2urXoSd2iNv1lES11Y9adJa1rBBW8+ItCePgNc7T2KxCACJpGx0n6OrLZ/O+AD/uTvYMH8XALbOloz5wRtdQ20cm9izzHczh/6WRRb29ulAiy6N5fMlUjEaWi9+L9WpZ86mP/4j/KRMsHVp7cigz3qUa0dTW53vl41l6fTN/LtaltotSxseIo/c09BSQyqVRXY2buWInqE2J/acl0d7turuiqGJHgCtezQhYOUhLp6Oot17zZi5bhwrZ+1k74Zi4bRV9yaytbU0AJkQWIRJbUNB1BN4aQRhr3pw6NAh3NzcMDY2VrYrNYqgoCAeP34MyB7ACqJexRDSbQXeFRYuXEjXrl2pX78+HTuWfSD7quQmJ5MeXrZhnUDVo+XiglRoNCXwDiKIepWAhYUFn376KVOnTmXmzJmvbS/nQQJi8culeQooRkVNnYxbt8ps19KWfeA/iI+Wb0uKl6XBausXR1w2bt6TDr2HMf3T9mxbOQOXCopmJSkoKMCmXhPGfLcKv2+9iIuJICszHQA9AxNadZHVbROLxXJRr6jDbdTFYHoNnoxIJCI3J4ur4UcL91vI7Xfy/ASpVJU/pg1i75b5jPxyyQt9sm/QAgfnFgr3dfceR9ipPYSd2lNmn7mlI41bdC+z/dnz1Kh52THlYW5tzIZzv8pr5j2Lh6c7Hp7uPHmUhqq6CuqaxeJaJ6/mtO/ThJRH6egaaKOiWvojbdrysRQUFIu1JV+XxL6BFUsP+ZKcmIq6plqZOnXP2gGo28ia33d8TUZ6JjnZuWWaaqw89pO8wY1URcKfB34AZPX7hk3pW6qZh3W92mw49ytFmdB1G9sye9NksjNzSE1JR89QC6mKrAZU+/ea0f4lawYKCJSHIOwpn3nz5rF7925lu1Hj8PDwIDk5mbCwMIKCgso0zBAojZBuK/Ausn37dtq1a0dAQAC2travZSs3OZmIPn1IjgxGr3ajSvJQ4GVIuXcJyw8/x37hQmW7IiDwRhFEvUqiW7dunDx5kv3799OtWzdluyPwAvSNzTEys+b8iX8xrFUbDS09Dv67HFUNHSysnUhMuC0fq66pQ9tuH3D4n+VcOncAE3PZl37U5VNQWDuuVZdBZerWATy4F83KOZ/QuvsQJGIpcTERGJlZo66huKtqEYa1LHByacfV8OOs9RuPXf3mXDyzj+TE+3Tx+hQV1dLRZ7aOTbGybcCls/t5nHhPLgqWR/jpvcTfjgKgYbPOpfaZWdbFrV0/ucBYktjrYRzftw4AS9sGpfwoeZ4unzv43PWL0NTURiKWlCvolUTXUPE5k6qoYGSq+EatZA3EtCdP+bjdVIXjfljxKQ2a15VHzj3PzrNoaKmjoVV2+7MdeF/UkVfROVBVV8FIveI3oTraugojTgUEnoe/vz9eXl64urqWSlkUqHrmzp3Ld999p2w3ajTP+7sOP3mNtb8FMGfLl0hVJBzfdY7DAWeYvvJ/PLj7CL+v1nDzchz9RnTiw4l9WPz9RnmHclVVFb5ZPJqZn/xJfn4Bqqoq9BzanlZdFXfW3bf5BEH/nAXAuq45Pl/0Q1tPs4xNpya2PLj3mIlzfQC4cek2i6au5+uFo5kzbgXjfh5Kbm4eq+cUZ4d0G9SWf/0PMmyKF03a1ufYrnPs+Gs/P62ZgI6+Fmt/+wc1DRW6Dm6l0LeidNvhw4cL4r7AO4Wuri7btm1j0KBBHDp0CF1d3Ve2dfN//0OtoIA20+aD5otL4QhUAU+fEjZ/PrH6Btj89KOyvREQeGO8fDV7gXLx9fXlzz//5JaCyDCB6oVYLGHYxAWYWTpwcOdSdq2fg46eIZ98uwJ1TR15pGTR/83aeQIQdnIPaoWCXHRkCPu2+bFvmx/JjxIUrqOjZ4yauiYB/jPZvsoXE3Nbhk1cAICqhk6pNFVx4esi8Wfwp7Np4NaZsFN72bFqBjciztDZ8xO6e48rHC/zrchGq64fABBx7nCp/SUbYWhoyS5WTuxbz45VM9ixagbxcdfkEWXiwsYe3b3Ho6ohS81VVdeUH3NkWJB8XsS5Q+Wep3AFUX6KMNCuRXJySoXGvi6aWmp8vXAUX/3xcZl/1k4WLzbwFhB7+xYaasKFpMDLs3r1aiZOnEhYWJiyXXlniI+P5+rVq7Rp00bZrryzPHmcyp2bCeTnybqQJz9KJSbyDgDbluzj5uU4GjavS/Ce8wBcC4vh/q2HZD7NJDs7h6dpGdy8HMfTJxlcC4vB78s1JMY/VrjWnRvxxFy5w9MnGQT9E8LmhbsV2lTVUOVU4AVyc2RNqa6GRZP8MBWpVEJ8bCJpTzJIvJ9MzJU7ZD7NJPNpJhIJxMcmEh0hyzi4eiGa+NhE7kTLrk3OH4+QN+56lp07dzJx4kT8/PwEQU/gnaRevXrMnTuX/v37v7KNxIAAHh84gMOwYYKgp0w0NXGdNIk7S+aTGRurbG8EBN4YQqReJfPXX3/h4+PDnj0VEzUElIeVXUO+nrePp2kpFJCPlnZxTbLa1k78tjESiVSW8mhepx6/bYxEJBYjFkuYv/VGGXuKUjs1tHSZPOcf0lIfUZBfgI5ecWrvL6tCEIlE8p/dO3jRpE1vpFJZPT09Q1NGfb2M3Nxs0p88RtfApNT4Nt2G0KKTt3x8qy6Dce/ghaTwZwfnFvy68Yp8P0Cz9p40a++p8Hy06vy+/HhrmVkz2/+8vCssoPCYAYXnqQD4cdpcheNL0qVVTxZvmwWV2zxaIWKJhKbtnat+ISVx9XIUPTv0U7YbAm8p+vr6BAQE4OnpiZ+fnxCx9waYNm0aP//8s7LdECiH65dj6T64LSO/7c/d2OLmVL19PPD+VFZiIvG+TMAbPc0bqYoE35GLib12t9wap46utszw/5yZY5ZyPTxWoc0LJyIBiLtxH9v6Vty8fJv6bvaIxKIy9uZumYKquuz7N3BLMPG3HgJw56ZMzLsXk0C9xnWIj03E0q5sndxJkybx+PFjAgIChNRkgXeajh07cunSJSZNmsT8+fNfev79Zcuw6d27CjwTeGk0NTF2asz9Vauw+VGI1hN4NxBEvUrGyMiIn376ibFjx7J06dLXsnUhNpaIe/cAUJNKcbexwcbEpMw+ALFIxIctWoBYTE52NuvPnKEA+NDdHXV1WX2w3JwctoWGkpefj4pEgq2xMY0tLOT7y2Pb2bNk5eaW2T6oWTO2nz+PsbYWXRs2IvLuXUJv3cJIS4ueLiXST/IL2BUeTkrGU1rZ2WFvZlau/8eioohJTGRY69YUFRi7ef8+QVFReLm6YqClxdZz55CIxXi5uiJRUSE7O5tNZ8/SoV49bExM2BN+kUfpaQBkp6SQ8fQpzZ9zfJrailMui4Sq8n4uya9TenPvVtmuuD29J9LN+3O0dQzL2lfQTKKkAFdym6KmFYrGS1XUnrv/eTx7fCKRqJSIWNF5EqkK+fn5FVqzqXNLRnhOYNPe5RiZ66Ct+/y0ZIGyiEUi0lOyeHQvnQXf/KlsdwTeYgRh780RHByMg4MD5ubmynZFoBwkEglhJyJ59CAFC5uy5TWeRVtPVoehZHS8IkQiEToG2qSnZSjcb+9sBUDM1Xhs61sRdSGWbu+3fuH61nVrE3PtLgC3r8uur+7GPOBhfDIAFiVEvdhqeCSHAAAgAElEQVTYWHmqrRCdJyAgY/z48fj4+LB+/XqGDh36UnOTzu7DadrLi4ECVYNZq1bEHjgAgqgn8I4giHpVgJubGydPnnylL4WS/LxnD/880z1p3ciRDG7RQuG+AU2boqamxt7Llxmzfj0AmqqqDG4ha4gQGR/PR6tXl5pjoqPD5tGjaefoWK4fH65cqXB7WwcHPlq9mjZ29nRt2Igfd//H36GyFJXACRPo5CyLijp45TL9l8rEhvGdOvH7+++X6/8fhw/zT3g4Q1q0QFp4Ybz/yhXGb9lCXRMTjLS0GLpqFQA/9e3LN717c/fxY0atW8dfPj7YmJjQb8niUnYbqqkyofC1uqoUcxMjKpuBo34iPS25zHZTC/tKX+ttIC8vD/v6FSs43NalExKkHDy5i9jYu1Xs2atxNzYBCxvFwqqysTSvQ13zBnz40cfKdkWgBiAIe2+GX375RWiOUc1x69CIf1YdZLLnbL5dPAbHJrLvtL+XBnJgazAe/ZrTbbAsdfrA1pMkxMmi5Bwa1SnX5v3bD1nmu4VTgRcYMKaLfHtJmx9O7IOppRHREbdo5uFMYkIydg0V2xzT6QdU1VSYu+1LrBzMObzzDI8epJCRnkXD5nWJuxFPQlwSAOZ1apFW+MDTz89PeH8LCChg3bp1dOzYEVtb2wqXRshNTkaCppB2W43QtrQk/fplZbshIPDGEES9KmLcuHEMHTqUxo0b07hx49eylbpgARfi4mj/22/8cfiIXKQDeDRvHqpSKSKRCFVVWVTW9gvFNZG2njtXajzA1F69+MzDg0NXr+KzahWDV6zg+k8/oamhoXD9B7/9Rm5+Pn0WL+L8rdvcmzsXEWCsU7qYbE5unvz1prNn5aLehrNn5dufTVFV5P/zyC8xf+7+/fzPw0PhuDZ29gROnEBGQgJXN26Ub7e3MSUvP4fsnBxUVcqPvHtZbB2bVpqtmsD9+4nYWxlXeHwrl/a0cmlfhR69Hk2aNMGrvY8Q0SDwTiAIe1XLwoULmTx5srLdEHgBA8Z0IT42gbOHL/H75NUsDpR1MDe1NMLS3oxaFsUR+GcOXQTgwwm9y3RCL0nKozQO7zyDhpYa7w3vJN/+rM36bnZcD4/l1jVZxJ1tfUsyn2aVsefoao9EKkKqKpVH4kWEXAegaXtn/ll1iIQ7iZjbGMvSdNNl8/z8/F71tAgI1Hh27NiBh4cH//33H1ZWVi8cnxYWhraF3RvwTKDCaGqSW5CmbC8EBN4YgqhXhSxfvpwBAwawadOm16pVoiKR4Ggqu1hTfSatIztPlharUSiIZWdns/HsGca0a0dMYiK7Ll4kNT0dHa3i9pyqUim19PQY3KIFl+7dZe6+QE7HxMhFuGcx0JE1TNCQFNZb01Ocrgqgo65Ol/r18T91isUffkhuXh7rz5zl4zZtWBkcXGb8s/5XlDZ29gRH32TB4cMMaa44uTY7N5fsvLwy3WBmT+nPl3MCGPrhQMQKatQIvB6ZmVkcOHiYgKVjle1KpRAWFibvDOjp6SnUHRJ4J6hMYS8tLIzkw4fJS02tRA+rBxItTXTcm6PXoUOFxicmJnLmzBnGjRtXxZ4JVARJYUOp7OwcVNVVyMnORVVNdq2jpqHK5HnDWff7v+xed5R7hXX12vVpVqam3qTfP2LPuuMc+ecM/UZ2VrCSDPuGVnh93IXfJq0m7OQ1eafckjYB6ja2JeifECJDb2BuY4y2rqZCUe+LecPkNfUs7GQpwqFHI7F1tsTS3oyUR2lcvRCNrZPla50nAYF3CQMDAzZt2sTAgQM5dOgQ2tpCaRgBAYHqjSDqVSGamposXLiQESNGsHPnzle24zFvnrz+3Pe9e5baZzblKwDGtm/PwiFD2H9FVmDZ09WFuMfJHIiMZPfly2Wi9YpoYil7AhX98CGdFI54ebybNmXnhQvsvxJJWlYmIKu/p0jUe9b/ijKqXVuuP3zAjP/+o5sCMTI4+iaGhZEQP5mYULIaTafW9Zk7JZ8pszegr69H3N2HL3F0As/DyEAPDXXY+edY7Oq8uAbR20BRRENKSgp+fn74+voq1yEBgTeEvr4+/v7+DB8+/JUL6T/6919iv5iMmZsbuelPq8BL5SLS0uTGosVY/fADJiNHvnD89OnTmTVr1hvwTKAi6BnJHlrejorHuZk9NyPiqGUpK9FxJzoBSztTmrZ3Zve6o8+1o6WtSSevlvw5fRN3Yx+UW4NPKpXSrGND9Ay1OR8UIRf1nsW+gawj+54Nx2nds2KdpIxMZe/PU4EXaN+nGbVtagEQvOcCg8f1qpANAQEBGc7Ozvz44494e3uzd+9eZbsjICAg8FwEUa+KcXBwYMiQIcycOZOpU6e+kg0741qcjo6mnqkZ7evWK7Vv8+jRqIjFOBQ20NgWGgpAela2vFmBohTcIlIzZaKbUSU+herZsCEAm86eISUzExMdHVraKq6v9qz/FUVDVZUf+/Zl7IYNLDh0qMz+eqZmzPLsR3ZyMjqnT5XZ36VtA87udOTKjXhycso2ARF4NbQ11XFyqFmF32NjY+nQoQM2NjZClJ7AO4eNjQ1+fn54enq+tLAXv2QJecHBNC58eFNTMe3UmYcngomLu43VdN9yx128eBFjY+MKpXMJvBlsHGXimd+UNTi62nLuyGW8P+tBfn4+X3jNoUNfd25G3AbA1Eom9gXvC+VebAJSqZT3xxU/aHV2l9XQjQi5/tzGGiKRCLcODTi1P4z8vLwyNv/384dYOdQGICM9i3qNrMu1tXjaRsRiEe16N6Npe2ccXW25FhZDbVsTjMyK36uW9mavcnoEBN5punfvTnh4ON988w2zZ89WtjsCAgIC5SKIem+AgQMHMmHCBIKCgvAopwbc81j1kQ+NLWvzzY6drD55krEdO8r39W/SBJE8fUSWegvgvXy5fExRCm4Z8vNZd+Y0AE5mlXfBp62pyXuNG7O1UGD8ukd3JOV0gyvp/8syvFUrft6zR75OSWrr6dK3aVNy4u9zKSRE4XwVFSku9YWbK4HnExQUhL+/PzY2Nq/0/hUQeNtxdXV9JWEvdvoPuH39TRV7Vz2o1bIFwd9+gtUP06GcruEzZsxg+/btb9gzgeehpavBpzM+4M/pmzh7+BKOrrb0+KAtYrEYtw4NOPqv7Prh85kfoq6hhqauBjFX7hAfmwjABxN6AyCWiDGxMMTU0oibl26Dd9kC+2KJBFFhyY9GLetxeOcZHtx9XMbm/37+EKmKhIbN63L57HUcGsuaZBR11ZVIxWhoyjrdn94vazjm0FAm/Dk0qsO1sBis69VGLBbj1NSOq+ejsa5Xsx62CQi8Kb766isGDRr02s0PBQQEBKoSQdR7QyxYsIDu3btTt25dLCwsXnr+yNZt+GbHTuYfPMjYDh7y7YuOHEFFIkEkEmGuJ7vRmuftzfvN3OX7Z+3by+7Ll2lgLruoC755k1m7d7Pn8mVOR0czyM2N+q/g0/PwdnNj10VZ4eiBTcpvIlHS/zHt2sm3/7xnDyoSCfVMy+84KlFRYXqfPoxat67MvtuPHrH0yBFynqSSmZ6G4qp7AgIVw8bGhsePHyvbDQEBpfGywl7K0aPo13dGrKv73HE1CQv37jzcsoVagweX2bd69WrhhrCa4uHpTqvuLmQ8zUK/MB0X4Ks/PiYpIRktHQ3UC0W02ZvKNjjZcG4O0sLGW/P/+brcdYZ/1U/eLKx1jyY082iIqrqKQpsA3/05mvx8UFGVXaobmuiVWmtL+Lwyc3y+6Mvgz3vJ6+xN/+tT8vPz5XMEBARenq1bt9KmTRscHR1xd3dXtjsCAgICZRBEvTfIqlWrGDlyJIGBgRUaryqV/XrEYjEGOjoMdndnc0gIV+7dlafLTt62TT6+SBR7v5k7JvqyZhaD3Zsxa99e9l+JkKfABkZEEBgRQWPL/7N353FRVe8fwD+s4jKAioKKiqigqLglGpaaQWamSaaZaZb+Ms3ym3tZappaaZqlLe4LbrkvRKJouBAiguyy7zvINiwDzMz5/THM9d5ZYMBlFJ/368WrmXvPPfe5M3bP3Oeee44tvpswAYvc3XWKx8TYCCIzM8EykZkZTIyNBPECwLh+/QAA9lZWGNClK6qlNQAA49peeZrinz50KLd8nbc3AGC8szP3OK+xoSHX48+49r8zhg3D79evISQ1DZa1U8m3F4mQVFCAz48dAwA4NWuGr3Q6QkK0CwsLg4eHh77DIERvGpLYq0xOhiGY1vVNkbGRESoS4tWWi8Vi+Pj44Fhtm0SePs2am6JZc/UJu5Tj1NWFnzAzMjZGbGgyDm4+LyjTtWcHzFk1RbBMmXjTxsjYGKrPMdSXnDMwMBDUa2hkBMNGPg1BCHng7NmzcHNz03lGXEIIeZIMmPK2IXki/Pz8cOrUKWzbtk1rmczff4f8yhV0cHcHGAOUP8jkDDKZFEbaftTJ5cLytZhMBgMDA0DLI7APttfyT0E5Q6ym+mUyxaNGhobq6/nruDgMH9TXAHKpFIa1SUMmk6k/siuXazy+6qwsJAcGog8Ncksegp+fH/z8/GiSDEIAbjbouhJ7mT9vhfT6NXQaO1bj+qaowN8fle3bo9umTYLlixYtwmeffQZ7e3s9RUb4Jsx3xfh3x8DC8vH0Ik2MSsfJP4U3bzvZW2P6wvGPZX8NUXi/CJfP+uHUL9f1HQohz5zw8HDMnTsXvr6+aFHbkQAAiv38kLLgc/T9jGY1f5r4f/UJRt6nNAd5PlBPvSds1KhRuHbtGk6ePIl33nlHY5kWDg7I+9tLPUllaAAjwzru0mpJ2ukyZt3lyAi8sW27xnUV27bBxNRUc/38ulXXq+y3sWPnAeASelrr0XLs5bm5aObgoHEdIYSQhuP32PPz84OHh4faDO/yaglkVVV6ilA/5DU1kJaVCZbFxMTA1NSUEnpPkXZtrSGrfXrgcejepzOWb/u/x1b/w5BKa9CuDU2aQUhjODs748svv8S0adNw9uxZHD58GH379gU3lY1Mhsv3omFiZIxRjo6Ca5MbsbGoqK7Cq716cz1uE3JycDctDUPs7GBXO2FgWUUFLkZF4dVevdBaJEJ0Rgbi8/Lw1oABuBkXD3GVhKtziJ0drCwsNMaaV1yC4NQUAEDLZs3wcs+e3PXTzZhYjfVcjoxAcGoaRvTsCVcHB0hrauB7Lxr87j+v9+2LfHGZxrr/CQtD21at4NK9O1f+ekwMmhkbY2iPHigpK8Ol6Gh0bdsWLt27IzQlBdklJYK4W5iaomvbtribng6PAQO4a8mswvv4JzIKBgYGGOPUG53aWgEAisvKEJCYCGfbTtyyG7GxaC8SgZDnCSX19GD16tXw8PBAnz590Lt3b7X1rd3cUHThAtL//hudx417IjENseuGC/M/VVtuZGgIE+NncywWWUkJ0q5dw4A7d/QdCiGENCkDBgzA//73PwwcOBChoaFISUmBnZ2dvsN66qxcuRIHDhzQdxiEp425FUqKy9DGqq2+Q3niSovFaG1ppe8wCHlmTZgwAaGhoVi9ejXOnz+Pt99+G5/XDn90OyWF6yBxaNYsvDt0KADgTlISRm9RjIHp/flncO+rGKJo1fnzOBEcjJnDXsTujz5UlE1NxXu7d+PUJ59gwoAB8PjjDyQVFED8yy945WfhOJqes2Zhau0+VB0I+A8rzp7l3jvb2sJ/6VKYGhtrrKdMIsG8I0e4ZeGrVqGwvBzjf/tdUDZp/XocCwrSWPf/eXqiVbNmiF2/XrFCzjDxjz/wep8+ONKjB/66cwfzjx5Fe5EImT/9hBVnz+LyvXuC+kVmZlji7o7VFy4ga+NGtLOwQERaGgYp66wt479sGXp36oR9/wVg2amTcLa1RfDKlQCAmfv2YXz/fhAOeEBI00ZJPT3Zt28fJk6cCC8vL7SqHUeOz/6XXxD74Ye49dVitOndH1UFBY89Jm1TZURcuvzY9/2w/i4pwfHiBxMZGBgaASYmaN6zJwxefVWPkZGmQCqVYqqGwe8JeZ55eHhg7dq1AID9+/fT4+kqjh07Bg8PD8FjWkT/Xh7shr9vHUW3Hl3rL9zEJMWl4Z2Rs/QdBiHPtFWrVmHSpEkIDQ2Fqakpl9SrqK7mylyLi+OSetfi47jl1VK5oAwA3NAwFisA+MXGIqmgAPNGjuBmv24vEsGpduJDWwvtY35KahS9kUc79kJQagrCMzJwIiQE777wgsZ6PjizD4BifPajQUEoraxEjUwGAHCwtkFHC8VwBRbNm2ut+0V7e5wLC0OlRILmZmbIKi6EWCLBgNoxCINSUgAAeWIx8opL0KN9O6QWFiEuN4fbT7uWLSGTP/iMAGD63r0AAKcOHSCpqUFSQQGWnz6N859/jjJJJQAgPCMDCTk56GGj6IlsaEBjiZLnCyX19MTS0hKbN2/GzJkzcerUKY1lHPfvR/firaiIiXnC0T17Jufn48XcXO69saUlmtna6jEi0tQMGDBA3yEQ8lQJDQ1FaGgoAODAgQOU1OOpqKjAqVOncII3GRR5Okx45V38ff0kCguK0Maqtb7DeWLyc/NhihZ4/aWJ+g6FkGde8+bNAQC3b99GVl6+2vpr8Qnca/+ERLX1ecUlyBOLAUDRE6+8HKKWLQVlfr92DQDwv9EPOidMc3HBpim690E78n+zEJuTi5GbNyMiM5NL6vHrqaqqQnpREeaOGIFt77+Pr98YC1EzMwSnpQEAfvDwwPiB6r+BVeseYmeHc2FhiMrKwgv29ojIzAQADOysuB77LymZ2/Zueip+nfY+AGDitu24nhCPqLVrAADfnX8w0VBsVhais7Ph3rs3vBf8D9XSGvRbswb/REaitLxcEM+F8AgstKHhBcjziZJ6ejR48GC4u7tj69at+OKLLzSWMba0hPmwYU84smePOQBHfQdBCCHPkQEDBiA5ORl3795FWFgYPYLLs3btWnz33Xf6DoNosWP1Cfxv4weoqrmHwsL7+g7nsbOwNEcbc2v8/jXNwEzIw8rJycHhw4e59xdvBWA0b/0we3vcSkpSJOqaN4dfXByG23eHf9KD5N7d9FQAip5xO2/cwN30dIzo1Ytbn3y/EGfu3oXHwIHobmODal4vwIbqaW0NAFzPO1XK5aEZGYBcjo5tdB+agF/3oC6KHnnhmZm1Sb0sAMCAzl0gLi9HXG4Od7x3UtMwpp9zvfXfTFAkR+eOGAEYGsDU1BTTXFywztsbcbzOHABwIjgYC19z1zl2QpoSSurp2dy5c/Hee+8hICAAL774or7DIYQQQnRmZ2cHOzs7eHh4qK27X1WFsatW48jsWejftSvisrLg8ecOXFm4EFJZDabs2oOglGQsf30M1nm8jVn79iIqOxsA0NzIBH7Ll3HLjAyM8Ga/vljxxhsaJ0aS1tRg9kFPHLkdCPfevXHu00+xx98f+wL+48ocmTUbl+/d45Y5d+yEzZMnY+MlHyTnF+DwnDkAgJDkZMzYtx8bJr6FVefPI+Trr2FkYgKfiHAsO3UaBWVl+PHtt+FgbY3P/3qQJPm/TrZwc3ZGUlISJBIJevEu0MjT55dlBxGfcg9VNZL6Cz/jzJqZoUcX9TGcCSENZ2NjA39/f3h5ecHLywveN/yFSb1u3XArKQl309PR0dISYokErj2ESb3gVEUvuJkvvoidN24gOE2Y1Pvlii8AYIm7MEkVnJaK/TdvopmxMd7TodOHTA6cCb0LAOjerp3WekRmZriVlIT3du/CnhkfoEVtT0QAuBgVifvlZbBr2xajeGPBq9bd37YLACA0XXFsd9PS0F4kQjsLC9yMiQUATB0yBDtv3EBg8oNee3VR9mbs07Ejt0z52PD9csXEVCIzM4x2dMS5sDBkPwc3aQjRhJJ6T4E9e/Zg3LhxOHr0KGyo2zAhhJAmQCJniMvNQXFFBQBAXFWFuNwclFdJsP4fbwSlJGO0Yy8cCbyNdR5vwz8hEfllZehgYQmYKerwT0hEWe0suqsvXICDtTXeGTJEbV9Hg4Jw5HYgRjk44PK9e8gTlyIqKwshqWlwsFa0qwzgltlbWWF/QADMTEzQwcICx4OD4SmVwtDYGDcTEpFdUoxqqRTR2dmQyuVIy83Fm9t/A6C4gPj+og/WjH9TUL+0dorAZcuWYffu3Y/zoyWPSE87SnQRQhrO1dUVrq6u2LBhA2JPn0blt6u5dYO7KsbrvJ2Sgk6WinHvhqj0Yr+dnIJBXbtgcBdFIiwoRZjkSi9SjBPuorLdjfgE3Kh9tPc9l6GAoUGdcXZavgyAot2aMvgFrfV8+frr+PrsWZwMDkHq/SLcWLKYK7vzxg3svHED7r17C5J6qnW3t7RAe5EId1LTASgm/RjeowcAIDhdsWyArS1GO/ZS9MCTs3rjL6idUd6Cl2RsYdoMAFBcoRhPTyyRYOKAATgXFgaviMg66yOkqaKk3lOgRYsW2LVrF2bMmIHLl5/+SSkIIYSQhxGYnIrPXnkFP0+disScHG75Ijc3fDN+vKDs3BEjsNjdHRZffIGglBSNSb2QNEVy7fLixci8XwAbcwsAwHD77vCrvfBQGm7fHX5Ll2LM1q34LykJP3goxhiLyspCvy5dEJSaghE9esLA4MHFxsFbtxT7+fpr9O3UCQcDArh1od98DRNTU+T5+eFyRibGTnwLlpbaBzAnhBDSdFi3aYMU3vvOrVujvUiEW0lJ6GBhAZGZGbq15T3SKme4nhCP911cYGRigkFdu3CTZiiJzMwglkhwMSoSrzv355Y7WNtglENPNDM2rjchxvfxSy+hvaUF9xivaj3LXnsN2SUl2P7vvwhKScaJkBDYmCsmx3Dv3RvdrKy4CS+01Q2AmyyjpKwMSQUF+L+XXgIABCYnwd7KCqKWLTGkW1dcjY1BSkE+7Nq3rzNuw9p2WCZn3DKZXPG4cHMTE27ZG337AgDOhYXBxMgIcqb5UWNCmir1Z1iIXvTo0QMLFizA0qVL9R0KIYQQ8lgZGxrAOyICecUl6K5DD/UWzZpBZGYGY2PNM9qZGBkhLjcHtxMT0amtFYx4P/Y1MjSAVauWMDYyxAtd7QAoEoMA4J+QgOE9uguK30xIwHD77ujXpQsMjIwws/ZCRdVA6/aYPXt2vcdDCCGk6Rreoweuxsbiamwc3HoLewSn3i+AWCLB4du30f/bbxGSmsbNCKv0v9GKB3p33rgp2PaNvn3w2/Tp2DJ1qk5xhK1cCXsrK2zx9RWMy6dWj5ERfp46FRsmKm5y8R+PnTdyFH6bPh0fjxxZb93KHomn7ioey1VOknEtLg5JBQXo/+23+N1PMQHI3dree3VpUzt5SGHFg0kxlI/kthOJHpQzN8coBwf4REUhv7Z3HyHPE0rqPUXGjx+P6upqXLhwQd+hEEIIIY/NhAH9kVRQgF6rVyEw4cEsgWu8vNBpyRJ8c+Y0t+yfqGhM/O13iCUSuPfS/Like2/FWETDN27ETj8/brl/UiI6LVmCl3/8kVsWn5+HuQcP4nhwMMb17YfWIhHsraxwJzUVxWVlSC8qUnvkKa2wEI4dNCcfrZcuRaclS5BXWSnoOUAIIeT5NLSbHcQSCeJyczCsWzfBuru1N5DEEgmia8eRBR5MngEAAzt3xqCuXXAhPBw5RcWNjsPaXIRZw4cDeDDpRF3mjhgBAKjUYWIOTXUrJ8vYfdMfgGKSjPySBzP9RmdnQyxRjGN6Jy1VtUo17Vq1AvDgMwOAG7WzCXdU6RH/zuDBAMDVT8jzhJJ6T5lffvkFmzdvRoIOJ15CCCHkWbTyjXHwGDgQYokEb//5J2Q1NQAAeysrDO3WDXa82feCUpLxd2SE2ng+fO59+2F9bQ+D+UePIqq2B4DIzAxDu3XDAFtbrmyeWIw9/v4QmZlh6WuvAQBG9OyJ/5KSEFq73aDacY6UyqqqYKxhgg4AeKlHDwzt1g2mRjSiCSGEEGBwl67c6xe6dhWsUyaz/BYvRtBXX2HfzJkAHkyeoTTnpZcBAAd4Ez6VSiQoKClBQUkJ127WZ5SDAwDg37hYjfVEpqXh4/37IS4vx3+1k3l0btOGK3u/vIwrC95jsJrqVk6WEZSSjPYiEawsLLiJM359910EffUVAr/8EgAQkJiI+rzcsycAYP0/F5Ganw+fiHAcuR0IB2sbdOVN/AEA4/r20enzIKQpoqTeU+jw4cOYNWuWvsMghBBCGs3IQPHjXyJVXHhUS6UAAGMjI5iamuL4nE+wyM0NeWIxYnNzAQAzhg3D6fnz8X+8x3yWvz4GS197TTEBBu/xJFXLxo7F2XmfAgBu1l4sOHfshNPz52Pb++9z5YbYdcOZeZ9CLJHAJyoKAPBi9+4Iz8jA9fh4OFjbQFT7yI+SbZvW3MDlqk598glOz58PS1PqpUcIIQSC8ecGqoxFF5iUjM6tW2O4gwMG2Nlh0qBBAIBbKjPCTq7tebbj+nXI5XIAwF5/f3RYtgwdli3DX3fu6BSL8ibVpehobhm/nvPh4dgfEIA2ixZxE0KNcXLiyn7s6cmVTb1fUGfdyskyAHCTZNypTVZO6O+MAXZ2GNStG4bYdVNM1CGre+w7x44d4Wxri7jcHPT45hsuvgWjX1Era2vVDoO6dlFbTsjzgJJ6T6FOnTph7dq1+OCDD/QdCiGEENIorWtnqAtJU/R+U/aCszE3R3x2NmBogHH9+tVbTzMjY8x5WdFj4WKk5pnt4msfYRrTR3EhUtfw4aaGhnjT2RntRSKcDw8DAAyp7Umx9coVjHLoqbaNQ3tr/BMZqeipAOBOUlK9cRNCCHl+mBopxnw1MTKCZatWcLC2gVOHDhC1bAlTY0VPblNjQ0RnZ+Plng7cds3NzODUoQNic3IUE1cAMDU2gnnLlpg57EWkFxUhv6wMIjMzwf4MtfQeV8ag+K8xTExNMdqxF0JS02BqbKxWTyfL1hhu/2Ac2eWvj8EL9vZoq3JzC1BMXKGtbiVl7z3X2jqT8kCERogAACAASURBVPMhMjNDp9YPeuC/VDtubXZJMZo3MxEMXaH8rJT7OTN3LuytrLj1n73yCj4ZMZIrwz+ez0Ypkn025jRZFXm+GDDGWP3FiD5s2LABbdu2xSeffNKo7SsjI1Fy5w6kKndVnmam7dqj1dChaOHoqO9QCCGENFL6jz+g5tp1fBAbB/+kREwf6oJDgbfxcs8euLpoMUzmzcPMYS8iKDUF0dnZKPv1VzivXQtjI2MM6tIZJkaG2PvRLDh+/TWmDx2KlRMmwP7LLzHM3h5H5sxR298bW7fC0NAQhgYG+CcyEv7LlsHz1i0cvn2bSxyue+st/HTpEiIyMuG3fBk3rl7hzz+DMQbTTxW9/PbNnInprq44GRSE93bvRtmvv+JKTCze+v03dG7dGt3btUNaYSHWT5yI93bvxuTBg2FkaIixzZvjRScn9Pzjjyf6WRNCCNGfYj8/pCz4HH0/+xw11dUwMTVVrJDJwAAY1CanlOtkNTUwMjICeEk5JpNBLpfDyMQE1dXVMFXWIZejRip9UKeu5AxSmRTGymSZTAZZbf3ayqcU5MPczAxtame9bXTdcjmqamrQzMRUMUOvTAY5YzA05g1RIZejWipVHKfK56RWf630ggJYtWqF5vykpFwOuVyuVjcMDeH/1ScYeZ/SHOT5QAPAPMVWrFiBN998Ey+88AIG13bB1lXJ1avI2rAezVuJIKuoeEwRPnrVzZrh/v79sF23DiJXV32HQwgh5CH8MvVdvLJlCw4F3kZ7kQjb3p0KGBpivLMzDtwKAAB4zpqFZs2awbJlC4SkpiEuNwcAsPejWTA2MoZR7YXPm879cCrkrsb9jOnTF0tOngCgGOjbpXt3nA8Pg1giwbGgIADAYjc3GBsZwdBI0Y/P3ckJe/z9kVJQALv27THasReuxsZgaO2g5sr9GhgY4I1+/fDFq69i65UrSC8qwjdvvAGRmaIn4ongYACA48CBePGRf4KEEEKeFYLkm5GRoNe4cp2mxJqBkZEi0Qc8SOgBgKGh1oQek8mw7eq/kKv0z+ncpjUmvfACjA15++HVr5GhAezat9e+XqVsnXUbGqJZs2aC9Wp9Cg0NHxynyuekVn+tzrzeevx61Hos1tGDkZCminrqPeWKi4sxbtw4/P3337C01K0r8f0LF5D+1Qr0XfD5Y47u8QnfvBn2f/4Jy1fUx0wghBDydFP21OsycSIgkyG3VAxrC3PBj+2comJYNjeDmcqjQHxMJoOBgaHibr+mO/I8peXlkMpkdfcykMsBxoDaCxBpTU2dPRnkUqlgfxKJBNUyGcw1PJaU5+eHcgsL6qlHCCHPEX5PvScpv6QEHZctU1s+qGsXBK74+onG8jSinnrkeUI99Z5ylpaW+OOPPzB9+nR4eXnptE3W5s3o4THxMUf2eHWfMAEZGzdSUo8QQp51Rkawbq1+U8pGwzJVBip3/6urq+G+ebNauasLF2pMtKlRuYMveLxHQ08G1QSimZkZtKcgCSGEkCejXatW2D1jhlpPvY6WFnqKiBCiL5TUewY4OztjwoQJWLNmDVavXl1veXllBcysrZ9AZI9Pyw4dIA8M1HcYhBBCniKGhoZo16oV5HLGW2YAA4O6psYghBBCmhgjI8x86SV9R0EIeQpQUu8ZMWfOHHzwwQe4dOkSXnvttTrLihOiFI8YPcOYXA5x9D19h0EIIeQpYmpqitPz5+s7DEIIIYQQQp4KlNR7hhw8eBCurq5wdHRE165d9R0OIYQQQgghhDy3Wg0YgPKsFH2HQfgqKmCEVvqOgpAnhpJ6z5iDBw9i2rRp8Pf316n83ZQURGVlce/biVphTD9nAEBiTg5uJCQgp6QEPdq3x5v9+nEDll+PiUFyQQFmurpyYxAl5uTALy4OHgMGqA1EfishAXdSU1EtlaJfp45wd+oDGBriYngY8krL8MFLwwEARWIxTt+9i36dOsGle3cAQGhKCkLS0/GRq6tw/CRCCCHPJOPWbSCpqtJ3GE+UtLISJt176DsMQgghT5CxpSWkrEzfYRCesowMtOrRW99hEPLEUFLvGdOjRw8sWbIEn3zyCXbs2IHIyEj07dtXa/n13t44FxbGvXe2tcWYfs7Yf/MmPvb0FJS1t7LCtSVLYdPaEr9evYpzYWF4f+hQGNcm9S5FR2PBX3+hZ/v2GKFM6skZPj54APsDAgR1je3bF+fnz8eBW7dwMjgEr/RyRGcrK5y+exdzDx/GMHt73Fi+HACw9u+/cSE8HB+5uj6Kj4gQQoiemdnZIb+wUN9hPFGVhYWw6Gan7zAIIYQ8YRYOw1AQEACrF1/UdygEQEFoKFoNcdF3GIQ8MYb1FyFPGw8PD4hEIsyZMwf9+vVDoQ4XTknr1yNr40b4LVqE3KJifOzpic6tWyNs5UqIf/kFq8aNQ1JBAdZ7/92gWLzCw7E/IABj+/ZFzqaNyN20CWP69ME/kZE4GRyMkT0dAAB3UlMBAP6JCQCAW0lJqKqqAuQMfnFxGNOnD/XSI4SQJqK1uztK0+L0HcYTVZKUjDbu7voOgxBCyBNm88knyL19W99hEACoqEBuaCBslyzRdySEPDGU1HtGmZubY9euXQCAoKCgest3sLBAOwsLiFq2xKV70QCAr994A062tjAzM8OKsWMBKHrjNcTpu8EAgE2TJqGtuQXamJtjzfjxAIDr8XEYXvuIbWByMgDAL/bBRd6d1FQk5+dBLJHg1V7URZoQQpoMAwPYzvoUhXfu6DuSJ0IcHY3Wbq/CtHNnfYdCCCHkCbP58EPUGAAZFy7oO5TnXuyhQ2g7ZgLM7Oz0HQohTww9fvsMys/PR0xMDPf+9u3bGDNmTJ3bDN+0EUYGRhjXry9ktTPj9rKx4dYbmZjAqUMHRGdnNyiW+Lx8AICDtTW3zN7KCgCQdr8I/Tp1gsjMDP6JicgtKkZ6UREWurnhZ19f+CcmolvbtgCAl3t0b9B+CSGEPN3sNm1Cwpw5KD5yBDYuLpBLpfoO6ZEzNDFBTmAgZBYW6H3unL7DIYQQoicDbvojdLgrcleugpmlhb7DeS6V3c9AS8cB6HP4sL5DIeSJoqTeM6hdu3Y4cuQI1q5dix9//BEhISH1btPdqh1MjIxhY26OgjLFYK5VKhdYYokE7UWiBsXSwsRUUVdNDcxqH5+tqFYMjt6mVQvAyAijHR1xLiwMfnGxAICPX3oJu2/exPX4eOSWlgIABnXp0qD9EkIIefr12LkTOXv2IMfPD5W1PbabEjNbWzR/fQy6fPmVvkMhhBCiR8aWlnghKhploaEoOHtW3+E8d4wtLODo4UE99MhziZJ6z7AePXpg165dKCkpqbfswY8+grGJCQDgr8BAAIpHYUc7OQEA4rOzkV5UBPfeDXsMtns7K1yNBW4mxMOtbz8AwKXoewAApw4dAQCv1Cb1tlzxhcjMDD2treHWuzfO3L2L9MJCjO3bF4bG9E+REEKaIpvZs2Eze7a+wyCEEEIeu1YDBqDVgAH6DoMQ8hyhTEoTYGHRsC7e452dITIzw/cX/4EMcrRvZY5frvgCAJa89pqg7Hpvb5gYGQker90f8B9uJiTAxMgIH7q6YtfNm5iyazdWjnsT5VUSrPHyAgDMHj4cAPBSjx4AgJDUNLzVvz9gaIhXHBxw5u5dRGdn4yPX4Y0+dkIIIYQQQgghhJDnESX1mjjT2h5wBrxlLZo3x+UvvsCsAwew8aIPAKC9SIQjs2dzPffatmoFAFjn7Q1AkQicPHgwAMDzViBXV82OHdg3cyYW/PUXlp06CQAY1LULdk2fgda1j/L2t7WFyMwMYokE7rX1j+jZk6vj1V6Oj/qwCSGEEEIIIYQQQpo0A8YY03cQ5NG62bYlhq3+HjAzA+RygDGgdrw7VZUSCaqkUljWJvEeRpFYjOYmJjAzM1NfKZdDLpcLH7OVyRT/1RAbKy1F0A8/wrUg/6HjIoQQQgghhBBCCGlqqKdeE2TWpgNgaKh4o/yvFs3NzND8Ee23dV2TbBgawlA1Fi2JRgAwMDCAGW92XkIIIYQQQgghhBDyQN0ZH/JsMjRCVUGBvqN4KBUFBTBoZqrvMAghhBBCCCGEEEKeSpTUa4JsZs1GbkCAvsN4KHnBQbD+6CN9h0EIIYQQQgghhBDyVKIx9Zqo9FWrIYuMQCtraxjU8wju00RWU4OK3FyYuA5Hp+XL9B0OIYQQQgghhBBCyFOJknpNWKG3Nyojo1Cdk63vUHRm2rEDWvYfAEt3d32HQgghhBBCCCGEEPLUoqQeIYQQQgghhBBCCCHPmGfnuUxCCCGEEEIIIYQQQggASuoRQgghhBBCCCGEEPLMoaQeIYQQQgghhBBCCCHPGErqEUIIIYQQQgghhBDyjDFMLY7VdwyEEEIIIYQQQgghhJAGMDwVuVPfMRBCCCGEEEIIIYQQQhrAMLU4Tt8xEEIIIYQQQgghhBBCGsDwfkWOvmMghBBCCCGEEEIIIYQ0AE2UQQghhBBCCCGEEELIM4aSeoQQQgghhBBCCCGEPGMM27aw1ncMhBBCCCGEEEIIIYSQBjAc0W28vmMghBBCCHmk/Pz8sGjRIsjlcm6ZXC5HQkIC9u7di2vXrtVbx8WLF7F48WIwxh5nqHpTVVWFoKAgfP/998jOzlZbL5FI9BDVs4Mxhurqan2HQQh5Cmhqc+pTWVmJDz74ABEREY8xsmdHTk4OTp06hb179+o7FFKHmpqaBv07J4+f8esO0/QdAyGEEELII3Pjxg288sorcHNz45Z5eXlh/PgHNzK3b9+OkSNH1llPZWUltmzZApFIhG+//bZRsWzatAmVlZUwNzfHF198UW95sViMn3/+GQDw5ptvYtCgQY3ab30WLVrE7QcAJk+ezL2WSCQYP348fH19MX36dBw8eBAGBgaPJY68vDxcuHABcXFxKC0tRbt27WBnZwdXV1f06tXrsezzUbh37x4mTpyIuLg4bN++HfPnz9d3SIQQPdHU5ujCyMgIsbGxcHd3x+3bt9GlSxedt83Ly8OlS5dgZmbG3WB4//331cpVVlbixIkTaN68OQDF+f2dd97h3j8NsrKy0KtXL4jFYgDApEmTMGvWrHq3u3jxIoqLi2FsbAyJRIKKigqUlZWhuroarVq1grm5OVxdXdGjR4/HfQjPjZMnT2LWrFlo0aIFTp8+DVdXV32HRACAEUIIIYQ0EWlpaUwkEjEALDMzk1t++fJlBoD7O3XqlE71TZs2jQFgf/75Z4NjKS4uFuwzMjKy3m3Wrl3Lld+4cWOD96mrhQsXCmIrLS3l1nl7ewvWJSUlPZYYNm/eLNiPvb294L2zszMrKyt7LPt+WF9++SUXp62trb7DIYToibY2R1eRkZEMAHNwcGD379/XebvQ0FDB+dLa2lpjuZKSEkE5AKy8vLzBcT5O5eXlgvgWLFig03bjx49XOzZNfy4uLo36bog6FxcX7nOdPXu2vsMhtWiiDEIIIYQ0CVKpFB988AHEYjFWrFiBjh07cuvat28vKGtpaalTnevWrQMAzJ07F2FhYQ2KJyoqSvD+wIEDdZbPycnBqlWruPcZGRkN2l9DdOjQQfBeJBJxr+3s7LjXtra2Deo9oquDBw9i8eLF3L6Tk5ORmJiI0NBQ2NvbAwCSk5PRokWLR77vR8HBwYF7/dprr+kxEkKIvtTV5uiqT58+mD17NuLi4jB37lydtzM3Nxe879atm8ZyrVq1ErwXiUSP7LyamZmJ77//Hr/99ttD1dOiRQtBG9SmTRudtlNtx7dt2waZTAbGGPz9/bnlt2/fxtixYx8qxudJWFgYPv/8c9y8eVNtnaOjI/e6vqcdyJNDST1CCCGENAn79u2Dn58fAKg9Dqn6qJGZmZlOdXbr1g3jxo3j6mzIODLh4eGC93/++Seqqqq0lv/xxx8F79PT03XeV0PVdVHXu3dvxMTE4Pjx44iMjISRkdEj3z//InDmzJlcIrF///44f/48AGDIkCGP7bHfh/XRRx/h+vXr8PLywo4dO/QdDiFED+pqcxpizpw5AIATJ07g0qVLOm2jmtRr27atxnKGhoaChFm7du0aGaXQsmXLYGtrixUrViAtLe2h6+O3Sc2aNdNpm9atWwvev/322zA0VKQ3XF1d4eHhwa0LDw9HSkrKQ8fZ1A0ePBgDBgzA9u3bUVJSorZ+x44dOHfuHAIDAzFjxgw9REg0oaQeIYQQQp55VVVVWLlyJQDAxcVFrceEqamp4L2JiYnOdSt/uPr7++PQoUM6b6fas08sFsPLy0tj2cTERGzdulWwLDU1Ved9NRT/ool/wafk6OiIyZMnw8LC4pHvWyqV4vbt29x71d4Wffr0gbe3d4N6rejDyy+/jHHjxsHY2FjfoRBCnrD62pyGcHFx4Xooz5s3T6cJeFTP23XdqOKfx3W9oVWf6Oho7rVqb8DG4LfJqu21Nqpth+pNoM6dOwvex8TENDK650dISAj3WtP32rx5c0yYMAEuLi5PMixSD/oVQgghhJBn3pEjR5CbmwsAmDhxotp6Tb3NEhMTcf36deTm5qJbt24YOXIkbGxs1Mq9+OKL3OtffvkFH3zwgU4x8RNXSrt27cKkSZPUlisfu7W1teUeu42Pj9dYr1wuR0BAAGJiYlBQUIBevXph4MCBdT4me+vWLdy7dw+5ubkYMmQIZDKZ1rLR0dGIj4+HqakpSkpKMGrUKLXPJTMzE/fu3UNsbCwqKyvh4OCAgQMHql1EaWJsbAyRSMQNiv7LL79g2rRp6N27N1emrkelysvLcePGDSQkJEAqlaJv374YPHiwWq8NX19flJaWorq6GlZWVnBzc0NwcDB8fX1hZWWF2bNn4+rVq6iuroahoSEqKysxatQotURmUlISYmNjIZfLMWLECIhEIly7dg1isRgGBgYoLS3FlClTNP4bi42NRUREBBITE9GyZUt069YNrq6uarE25jslhOhPfW2OUnZ2NkJCQhAfHw+pVIrOnTvjxRdfVPt/283NDTt37kRSUhIuX77M9RDXRjXxVVfvNn6vvrqSenfv3kVsbCySk5NhamqKfv36YeTIkYK6KyoqcPHiRSQnJ3PLIiIicPHiRVRWVmLo0KGCBGdWVhYCAwORkJAACwsLODs7Y+DAgWrx6prI49N0Q4qvoKBA8N7Z2VljuaioKISGhiItLQ1dunRBv379tJatrKxEYGAgAgMDYWZmhh49ejzUOT08PBwJCQmQyWSoqqrC9OnTkZGRgVOnTsHY2BjvvvsusrKykJmZCSMjI1RXV6NXr15qk3+UlZXh33//hbGxMRwdHbkkMaBbe52amorg4GBBnTdu3EBFRQUqKiowfvx4mJiY4PTp0zAzM4NMJoOZmZnG4Sfu37+P4OBgxMfHo6SkBNbW1nj11VcFQ3so/fvvvygqKkJ1dTUsLS3x+uuvo7KyEv7+/rhz5w5sbGwwbty4R9bDtMnS96B+hBBCCCEPa9y4cdzgzT4+Pmrr09PTBQNnjxo1SuOA2nv37tVYv7W1NVcmJiam3niqqqoYAObm5sbmzZsn2Me9e/cEZUNCQriymzZtqnNA84CAAObs7Kwxdk2TeaSkpLDRo0fXOYi4SCQSbPPrr78K1l+7dk2wf/5A2ap/mzZtqvezYYyxjz/+WG3blStXsuLi4jq327dvn+C74B+Dv7+/oKybm5vg+961a5faoPKzZs2q9/ufOXMmt43y+5g4caJgu+rqasE2aWlp3CQrmv74/0Yb+p0SQvSvvjanvLycrV69Wus5YNWqVYLy+/bt49ZNnz5dpxj49dW1zaBBg7hygwYNUlsfERGhtU0UiURs3759XFn+eVTTn/I8XFVVxZYtW6bzxBX8iZI2b96s0/Fv2bJFUG9WVha3rrCwUNBWaDrujIwM5uHhoTHG2bNnM4lEwpWVy+Vs+fLlgjZEW90NOadv2LBBsP7WrVvcxCsAWHx8PDt48KCgzIwZM9SOhf/vJyQkhItD1/a6rvYKAPdZ8JeNGjVKEENNTQ376aeftNYxevRolpubK9iG35a6uLiwsLAwtTZeJBKxuLi4Ov8tPO8oqUcIIYSQZ5rqzHnKH7R8qkk9AGzhwoVs586dzMnJSbD8zp07atvzE2NbtmypN6bw8HAGKGbxCw4OFtQ/d+5cQdkxY8Zw+z169KigbHx8PFcuIiJCcEERExPDMjMzBRcAt2/f5srn5+czBwcHbt2hQ4eYRCJR24dqUu/YsWOC9VFRUdw6/kXUzp07WWJiIvvxxx+1xqxNZmamIDZ+LD/99BOrqalR28bT01NwcVBcXMx8fHwE21ZUVHDllck4TX8TJ05kjDEWFhYmWO7m5ibYJ38G499//51bzk/Uqn5+ZWVlgmNbvnw5Ky0tZeHh4czW1pYBDxLDDf1OCSH6p0ubwz//jB49mmVmZrLs7GxuxtY9e/YIyl+/fl1Qp1QqrTcOfnlra2vm5uam8Y9fTjUBlZ2dLTjfXLlyhUmlUhYQECBYvnv3bsYYY3l5eSw+Pl7tHJeUlMRiYmK4c/fs2bO59V9++SWrrq5mq1at4paNGzdOEMejSOqtWLGCrVu3ji1atEhQ36BBg1h6erpg29LSUkHi7fz580wikQiSm/w4fH19ueVTpkxhjDHm7+/PAOEssA09p/OTccr2hP9eJpOxyspKtUSX6g2/4cOHMwBs8uTJGj+f+trrlJQUtfbw1KlTLDExkSUkJGj8nqZOnSqIYc2aNdy6yZMns8LCQlZaWir4t2Bvby+IXfWmp/Jz4yfNAbA5c+bo9G/ieUVJPcLZsmULO3DgQIO3q6ioYDNmzGDh4eGPISr9qa6uZjKZ7JHUVVpayq5cucLWrFnD5HL5I6mTaCeTyVh8fDzbuXMnu3r1qr7DIYQ8ZoGBgYIff6o9ABhTT+p5eXlpXTdt2jS17SdPnsyt//zzz+uN6dChQwwA+/XXXxljTO1ueXZ2NmPswYWC8iLBz89PUO7ff//l6uRfnP3www/ccn5Pg08//ZRbvmLFCm65i4uLID7+j2zVpJS3t7cghoyMDG5dREQEc3Z2ZleuXOGWyWQywYXI6dOn6/18GGMsKytLay/C4cOHs4KCAq6s6kW0sjeIXC4XLD9+/Di3zYIFCwTrvvzyS5adnc0uXLjAAgICNH6u/O+GsQcXXLa2toJeG/weG/b29oLjWrx4seDiRPWzdXFx4X4LNPQ7JYToX31tzvnz5wXr+UmRzMxM5uTkpHbzQ3kjSNN5SBvVZND48eM1/vHPz6pJvRkzZnDrJk2aJFi3cuVKwbmMn4zh9/5TvdF18+ZNjQmo0NBQrW3Lo0jqafrbt2+f4GaPEr+H3JgxY7jl27dv13hu37p1K7fc1taW6xV48uRJQS/xhp7TT506JYh3zJgxLDk5mfn7+7MTJ05ojFe1nY2Pj+eW82/CNbS9LioqEuwjKChI7XPjf+/z5s3jlkdHRwu2DQsL49aVlJQI1m3bto1b9+WXXwrWTZw4kWtrp06dKvhNQLSjiTIIAGDLli1YtGhRo2YvMjIyQmxsLNzd3Rs9+1FeXh727NmD5cuXY968eVi1ahX27t2rtwFNT548ibZt26Jjx47477//Hqqul156Cebm5nj11VexevVqnWbyCwsLw7Fjx3Ds2DHBgKWa3L9/H4cPH8Zff/2FqKioh4q1KfDy8oKRkRF69uyJOXPmCAbyJYQ0Tffv3xe8t7Kyqneb9u3bc69tbW3x8ssvc+9DQ0PVyvNnFszKyqq3/jt37gAAunbtCkAx+Dnfzp07IZfLsWzZMgDAunXrAEBt7DrlbH05OTnw9fXllrdo0QJBQUEICgoSTNQQERHBvd6zZw/3etiwYYJ6hw8frjV21UlE+GMd9e3bF2FhYRg9ejTkcjnCwsLw66+/cuPjAYo2XRcdOnSAr68vDh48CGtra8E6f39/TJkyhZtt2MfHR7BeJpMhKCgId+7cga2tLbf83r173GvVyUA2bNgAGxsbvPnmm4LPY9GiRYK6T506xb1Wzmz73XffCerjfyaqY1SdOXOGez1y5EjBurFjxyIwMBAGBgaN+k4JIfpXX5tz8eJF7rVIJBKMb9axY0dERUWpjYmmOiabrudRpbfeegvnz5/X+NezZ0+t2509e5Z7rRoTfzzZ3NxcwblIIpFwr1XbjJMnT3KvnZycEBUVhaCgIBQXFwvKaRs3trEiIyPx7bffCpYlJSWhefPmamX5k1516NCBO/eWlpYKtlVOWjJkyBBueUZGBhwdHfH7779j/PjxcHV1BdC4dlp1LMHNmzfDzs4Orq6ueOedd7jlH3/8saDc4cOHudcHDx4EAHz44YdwcnLilje0vVadoEXTOLHa2j7V62X+2IHm5uYYNGgQ997b25t7zW9XbW1t8ddff3HL+OPs5ufnq8VCHqCJMgj+/vtvLF68GIMGDcJXX33V4O1NTU2xd+9e9O3bF+7u7ggICECbNm103n7Lli1YvHgx997e3h5JSUnce2dnZ/z3339o2bJlg2NrrE2bNkEsFkMsFmPv3r3cybox+IOROzg46LTN1atXuYsMkUiEkJAQtYZWKS8vD9OnTwcA7Nu3D3369Gl0rE2B6sVVhw4d9BQJIeRJ0fTDs6E6derEvU5PT1dbr0wuAahzkgkl5Q9cZVJv8uTJWLBgAfdj+qeffkLnzp0REhKCuXPnchddqucs5Qy4qjcoFixYoHG/yoHbxWIx9xpAgwaZVv08VWd3vXfvHrZt24ZDhw4JLg60la+LgYEBZsyYgcmTJ2PFihX4+eefuXVXr15FZGQknJ2dER4eLthuxIgRGuvj//Dnx9GnTx+tN9XGjBkDBwcHxMXFAQB+//13zJ8/H3fu3MGtW7dgb2/PtbOa6ua3O2KxWPAbZuDAgVqPvaHfKSHk6VBfm6O8qQMAQ4cO1emGPr+NAXRrZx5Wfn6+4ByuOtGR6vVcSkoK/B8CdgAAHa9JREFUhg4dCkCY1FP9PIKCgrjX0dHRWmdKfdSJmjZt2uDrr7+Gt7c3N1HVd999hzfeeENwI0cikQjOv/v378f+/fs11llQUICOHTti6NChmDFjBjw9PQEozvXz58/Hb7/9Bh8fH9ja2jbqnK7aXmqaTAJQJI4//fRT/P777wAUN59ycnJgbm6OrVu3AgC++eYbte0a0l5LpVKt65T4CVz+a9WOJaozE/Nv3MXGxmqsw9zcXJA0rGvyFyJEPfWec9nZ2XjvvfcAAN9//32jL4z69OmD2bNnIy4uDnPnztV5u4MHD3IJPZFIhOTkZCQmJiI0NJS7q5WcnIwWLVo0Kq7GcnR05F6r3mVvKP6Foq4XVfwpxMViMd566y2NJ2JAOE39w84MJJVKcenSJbz77rtqd9OeFfzeN4B6o0IIaXpUe7c15vxVVVXFvdZ0cyQ7O1vr/lRJJBLugkLZBrRs2RKzZ8/myojFYsyaNQsAsGTJEm45f5ZCQDFDL6B+w8LT0xP5+fnIz89HXl4esrOzkZmZCT8/PwDqF4QVFRVa49XWvmhy7NgxODk54Y8//gCgmAGytLRU0FtOl1kMVS8ezMzMsGXLFrWbi8pknuqP+/j4eO7Yc3NzkZWVhYyMDKxdu5Yro8uFNAAYGhpi+fLl3Pvo6GgEBQVxCcZ169bpnKgsLy+v8z1fQ79TQsjTob42h/++rKxMpzpVE1y69Djn47dhqvjnW34yTrWdUD0vq57L+e0Tv1eXoaEwpcDvGefg4CA4rynP1+np6YIZfvn11XUsfKrx19TUwNjYGPv27RMsnzlzJiorK7n3qte7c+fO1XjuTUtL475rIyMj7N27V3DjCVC0F8rjaMw5XfWzq4tqkvDIkSM4fPgwxGIx5syZg+7duwvWN7S9Vu2p15DY6ktC8z8bXa/NGGM67/95R0m959ySJUsgFovh4OCgcUrqhpgzZw4A4MSJE7h06ZJO2/z222/c65kzZ3J3J/r374/z588DUHR31vWH+aOyY8cOnDt3DoGBgZgxY8ZD1cVPSGrq/q2J6hTt0dHRmDlzptpdPECY1FO9GGyIpKQktGnTBmPGjMHx48ef2ROp6mes2sASQpoe/mMeAFBUVNTgOpTJM0DxGJOqzMxM7rWyp4I2/Edr+D0dlEk8vhkzZqj9EOf/4FY+nsR/DAUAAgICYGVlBSsrK7Rr1w42Njbo2LEj19PP0tJS0JYoe/wpqSab+BdzNTU1GteVl5dzNwIB4K+//sJ7770HkUgk2Eb1USxVOTk5MDEx0fhbgV8/8OAmW79+/QTL7969yx17+/bt0aFDB3Tq1EnwCBv/mFQvVlRNnTpV8HktXrwYR44cgb29PSZPnqxWnn+8/ItkGxsbQT38HiuqGvqdKtWVKCSEPH71tTkDBgzgXt+6davOmypK/Mcgra2tBe2AJqq/01UfCebjn6P45VQTh6qP+qvW2atXL+41/xyoGgv/Ucu4uDhUV1erna9tbW0F10j8+kpKSrQeC59q8k+ZQHVycsL69esFMaxZs4Z7b2JiIojx6tWrGs+9nTt3FiS2jI2N8cUXXyAzM1OQkAwPD0dqamqjzumq7a3qez5HR0eMHz+ee//bb79h5cqVAIClS5cKyjamvVZN6mq6FuRvy3/N78QCKDrl8PH/ffN7sPP3Wdf+VdcB1BbyUVLvORYVFYUjR44AACZNmvTQ9bm4uHC96+bNm1fvD2ipVMr1ZADUs/Z9+vSBt7d3g3r+PSrNmzfHhAkTtHYXbwh+UknXbsT8nnpKZ86c4cZc4uM/llzfhVRdCgoKBL01NMXwLFC9q/gwnwkh5NlgaWkJNzc37n1CQoJaGdUf//z3KSkpgsc7NSVx+Ek9d3f3OuNRJnJsbW0FFwT9+vVTG8uO30NMiX8xp3ykpXXr1hg1ahS33NPTE//88w/3XiaT4eTJk4Kx+6ZOncq9PnLkCNd7pKSkRK094Z//tV1kBAQECJYrf8THxsYKHieqr9e/cpzAMWPG4K+//hKsu3v3Lvfa3t4e/fv3B6AY24mfLFu3bp1g3N2ysjJs2bIF27dv13gc/ItaTVq0aCHoMXnjxg0AwMqVKzX20qur7ilTpnCvfXx81B4djoiIQFFRUYO/U8YY5s+fj1atWuGHH36o83gIIY9PfW0OP/ECAAcOHBC8z8rKEtxIAoSPZL799tv1dmhQbdPq6qHOTyqqPvqp7JQBAMePH0dBQQH3/vr169zr4cOHc8NJqFIdU52f8AIUCSd+4jM9PR1LlizB1atXNcaoa1JP9dzL7xW5ZMkSODs7c+9//PFH3Lp1i3vv4eHBvY6Li8NPP/0kSBzdvn0bH374IXJycgAA//d//4f3338fcrkcHTt2FIzJByhuHDWmnVa9Xq4rqQcIx4BNSkpCbm4uPvzwQ7VhmhrTXqv2tsvIyFDbv7Yelaq/m/hj/hUVFcHf3597z28j62qb+Z1ZVBN4Bw8eRKtWrfD222/X+5k9F/Q4SQfRM/5sRzdv3tRYpqioiPn7+7O9e/eyDRs2sKNHjwpms1E1Z84crk7+zILa8GffEYlELDo6Wuf4Kysr2fXr19nevXvZd999x7Zt28bu3LlT7+yyMTEx7MSJE+yHH35g27ZtY15eXqywsJBbL5fL2cmTJ5mXlxc7d+4c8/Hx0bjvkJAQdvToUbZhwwa2d+9edvPmTW4ad765c+dyx6g6fbs2Pj4+3ExTgHAWJ02zCio/R02zFMlkMnbz5k22e/du9sMPP7CzZ8+y1NRUQZmgoCC2fv16wX7++ecf5uXlxXx8fFhYWBjz9fVl//77L/P29mZisZjbNjs7m50/f575+PiwCxcusJiYGLUYLl++zE6fPq32b6ch32FmZiY7efIkO3nyJNu7dy8rLCxk5eXlbM+ePWzTpk3c7Muqs1jyp42XyWTs8uXLzMfHh3l7e7NTp06xqqqqer4NQsizQDlLKQC2cuVKtfURERGCc8O4cePY8ePHmZeXF3N2duaWHzt2TG1b/nlFlxnYlO2r6oyzjDF25MgRri4PDw+N2/NnyQPASktLGWPqs8sp204HBweuHVi+fDlXT0JCgqCddXFxYevWrRPMXqf845+fPT09BesiIyMZY4ylpaUJljs7O7Ply5cL9oHa2ft8fX21fj47duwQlB87diw7dOgQW79+vaDdU20z9u7dqxa3tbW1YNbEkydPqn0PynL1yc7OFtRta2urtY2oa/bgvLw8wXGIRCK2Y8cO5u3tzRYuXMiAB7P0NuQ7vXz5sqBcUlJSvcdECHk86mpz5HI5Gzt2rOD/15UrVzIfHx+2efNmJhKJ2GeffSbYZt68eVzZy5cv17v/jIwMQf2qs3DzqZ5jqquruXWFhYVs/Pjx3Lphw4axI0eOqJ1vVX/fv/zyy4L1q1evZosXL+bW88+//HOqra0tF29ERARjjDGJRCIop5wNvj4ff/yxYLurV68K1vv7+6t9RsprmIqKCkHbofzjn3vHjh3LioqKGGOMOTg4MABszpw5LDw8nF27dk3QtspkMsZYw9vpPXv2CMrGxcXVecxyuVzwmwUAu3fvnlq5xrTXqrPMOzg4sJUrV7Ldu3dz9Sq/P03f0+nTp9X+Tfj4+Aj+ffFnzGVM2JaqttOqM+Mqrw9VZ+n19PSs8zN7HlBS7zlVVVUl+J+Bn6RhTJFAmTx5stpJSfnn4eHBpFKpWr38Bm769On1xqF6MlY2esXFxXVud/78eY0nYmWDoSm5lZaWxqZNm6b1mPjJO/7yUaNGccurq6vZ0qVL1U6I/JOf6rT2jUnqKX+4L1y4kH3zzTdq+wkMDBSUV148hISECJYHBASonfiVf3/++SdjjLGamhqNyUP+yf7nn3/WevJMTEwUrJs5c6Yghvz8fG7dvn37Gv0d3rx5U1Dm9OnTzMnJSa3uupJ6/GnqAbDffvtNp++DEPL0Ky0t5c5lmhJvyh/gDg4OGs95Li4u7Pr16xrr3rVrl8a2QhvluU3TOb+iooJrQ/jnJz7+xZ3qj/yoqCg2c+ZMtfidnZ01XgiGhIQwFxcXtWPlH5PynKq0adMmwTr+hdKxY8cE516RSMT27NnDfvrpJ8E2U6dO1fr5pKamstWrV2tMLgJgH374oVpbypjiYsbHx0ftYhJQXHwlJCQIyo8ePVpQRtONN1X8m5M7duzQWk71gl0ikQjWl5SUsMWLF6v9XhCJRGzjxo2ssrKSK6vrd5qXl8etc3Jy0ul4CCGPR31tjlQqZTt37tTY3syePZtlZ2dzZWUyGVdu2LBhOu0/JCRE7dyiiWoCBAC7f/++oIxMJmMbNmwQJGzqOx/fuHFDrezcuXO581JlZSXbvXu32m99kUjE5s2bx92sYoyxrKwstfO5LsaNGyfY7vz582plVM/VH374IbcuLy+PrVq1Su08bWtry7Zu3col6jTti3/dk5WVJdhnQ9rpdevWCcpo62jDd+jQIZ3a2sa016rXfNbW1mz79u2MMUUbzF/38ssvq+0zJiaGjRo1Su3YHRwc2PHjx9U6bqh+P3yff/65xn+3crlc8LsmJSWl3s+sqaOk3nPKz89P6/9AjCl6binXLV26lEVFRTFvb2/BNpqy4tevXxeU0ZT448vMzOTufKie8H/66SeNP1ivXr3KlbO3t2dJSUmsurpa7QKFf4e/rKxMsJ/ly5ez0tJSFh4ezjVg/DtQ/AaIf6Krqanhlo8bN475+/uz4OBgQeJs9uzZgngbk9RTftbLli1jMpmMTZkyRe3z4V/kKX8I8I+Z3yvF2tqaxcTEsMzMTEHDdfv2bSaXy9m9e/fUek4kJyezhIQElpWVxe7fvy9Yp3ocEydOFMTGbwR37tzJLVdexDTmO4yPj9fYmCr/lAlNbUm9mJgYQYz//vuvTt8FIeTZcezYMe7/8/j4eMG6kpISLukjl8tZSkoKCwkJYaGhofXeSFL+mNf1Yqu6uprJZDJWUVHRqOOorKxkNTU1TC6XC5I/fIWFhSwqKopFRERoLaMkl8tZRkYGCw0NZSUlJYwxxQVneXk5k8lkTCKRCHpuKN8r96+pLU5PT2dxcXGCdj4rK4uFh4fX+3nylZeXs6SkJBYSEsLS09Pr7W2vlJmZycLCwlh8fLzW3xoSiYTV1NSwmpoatZuX2kilUlZdXc0kEkmdv2HKy8uZVCplMpmMlZeXay0nl8tZVlYWCwkJYdnZ2XUeny7faWpqKtu3b1+DPmNCyONRV5vDV1RUxEJDQ1lKSorG8+nt27e5enS5ccSY4ppEeR6qqalhZWVlGsvJ5XJWVlbGnQvLysrqPA8VFxez0NBQlpmZWe/5uLy8nIWEhLCkpCS1Gxv8OJOTk1lISIjG5KBSRUUFd/6t65yquv/q6momlUpZRUWFxs+W374pPzNN9cTHx7OQkBCuZ562Y0lMTGTBwcEsPj5e6zEr6XJOr66uZlVVVVybrMvNGrlczrVvujxx1ND2Oj8/n/u+VNvBsrIyJpPJuHi1kUqlLDExkUVGRtZZTvn9aKqvurqaVVdXa/x3W1payg4cOMASExPrPf7nASX1nlP8DL2m7to1NTXMxcWFbdy4UbCc/0jQwoUL1bYLDw8XJFT4d6G0ycrKUrubrvwbPnw4KygoEMTFv4ukvHOgNGzYMG4d/7GmxYsXCxJcfN7e3szFxUVwouD3HlDtJvzZZ5+x6dOnC07k27Zt48o7OTkJyjcmqXfu3DkGgH311VeMMUVjwz82QHEXSXlnSJnUi4qK4upwc3Pjyv7www/ccv53+Omnn3LLvby86kz08o+Df7eEMcb+/PNPwbrQ0FBu3fDhwxkAtm7dOsZY479DTY9F3blzh927d4/t3r2b+z40JfWysrK4RK29vb1abw5CSNMgl8u5cx//8ZaHERkZyZ1P+OdYQgghz7dH1eYonyTi9yIjhBBd0UQZzyn+IKiqs9UAioFTAwMDuZl0UlJSsH//foSFhXFl+IOGK/FnnQOEM91o06FDB/j6+uLgwYOwtrYWrPP398eUKVO4gTITExMFg3YqZ8tVGjlyJPf6zJkz3ICfZ86c0VgGAMaOHYvAwEDBgLT8yRZUZ0/dtm0bPD090axZMxQWFuLcuXPw9vbm1qenp9d7zPVRDkKqnOShRYsWOHPmjGDw9IyMDLz++usoLS3llikHO83JyYGvry+3vEWLFggKCkJQUJBgwG/+LFf1TWzCH0gXADc7MQCcPHlSsO7KlSsAFAO4KgdG/fjjjwE0/jtUnWTkm2++weDBg9GrVy/Mnj1b6yQkvr6+cHNzQ1JSEuzt7eHv76820yQhpGkwMDCAp6cnbG1t8eOPP6oN3t0Y33zzDQDgzz//hJOT00PXRwghpGl4FG1OcHAwN9P2r7/++hiiJIQ0dZTUe07xZ+PTpqioCGvWrEH37t3RrVs3fPTRR0hKSuLWq84yCghnqQHUZ9HRxsDAADNmzEBKSgoWLlwoWHf16lVERkYCAKKjowXrOnfuLHivOjV7Tk4OxGKxIG7+NNra8GdMVZ09VSqVYteuXXjppZfQtm1bTJw4UTCz0aOgnH2JPyORjY0NfHx8BLP/hYeHY9KkSdyMUcryqp/TggUL4OLiAhcXF5w4cYJbzp/9iD/jE38fSgMHDhTM2njs2DEAihm/+AlEANznsWvXLgDA3Llz0b59e42x6fIdAlCbfbBbt25qMWqyYsUKbp/GxsZo3ry5TtsRQp5NNjY2uHr1KkQiET766CO1dqkhDh48iLNnz2Lp0qX45JNPHmGUhBBCmoKHaXMqKiowbdo0WFtb4+LFixp/fxNCSH0oqfec4vfOu3//vtr6u3fvwtnZGd9++y2SkpKwZs0aZGZmcr2tAM1Jvfz8fMF71QSNKn4iCVD0ituyZQu++uorwfLw8HAAAGOs3u35WrZsqTYFtur7hrh//z7Gjh2LOXPmwN/fH5MmTUJ0dDQ8PT25Mi1atBBsw09sqk4/r01lZSUA9USWk5MTjh49Kljm6+sLsVgM4EFST/Vz8PT0RH5+PvLz85GXl4fs7GxkZmbCz8+vQbH973//417/f3t3HxLllscB/CsypldnVVbX0bRa0SkNdDMNiey6EMXgldJIbA00qFzNoNIwYtGVvZq4Xe7+UzoQRS9bJN22LXMx86X8o+6am1J5raXUZG7jyOrIOOPL48zZP2zOznFm8qW8et3fB4KZ55znPGeeJxj4es786urqMDAwwIM729WKDx48gE6nw9mzZwEAeXl5vG0+zxCAsJLyY6YHyadPn+avX79+jYyMDLtrEkKWl/DwcDQ0NCAuLu6TxgkLC0NJSQkqKio+08wIIYQsN/P9zpHJZEhOTkZzczPCw8MXaHaEkOWOQr3/U7arnByFegUFBXyL5MmTJ1FUVISgoCCMjY3xPo5CPdvttgEBAcJ20em0Wi1kMhnu379v17Z3717h/dq1awEAQUFBwvHpq75sQ8Xg4GD4+PhAoVAIf/lqbW11OicrSZIcvq6qquKr0qyr3iIiIoQ+1hDKynZb6+Dg4IzXBoDh4WEAjoOspKQkIaiyZQ31IiIihOOPHz+Gn58f/Pz84O/vD4VCgaCgIAQGBvI+swm6du7cKWyRvnz5MiorK7Ft2zaoVCqkpKTwtuzsbBgMBqhUKqxfv54fn88zBMTn4Oi9s+PR0dFCEHrv3j0hnLT1KYEvIWRpiYuLQ3l5+axWpjuzefNmFBUVfcZZEUIIWY7m850jk8lw5swZrFu3bgFnRghZ7n42oZ5RMuCHgTYYJcNiT2VZsP3dsv7+fgwNDfH3RqMRjY2N/L01mBsdHeW/jwbYryKzjmWVmpr60dVVPT09AIAdO3bgxo0bQtuzZ8/469DQUERHRwOY+sIMDQ3lbZcuXRKWudsGhFlZWfx1Wloaf11XV8dX/lk9f/5cuAe2QZztCraamhr+OiQkhH++pqYmfnz6fbGuugMAvV6P2bD+Tt70VW1WhYWFwmeysoZ6vr6+SExM5MevXLkibBE2m824efMmcnJy+DHb+2gwGPjqP1tubm7Izc3l7wsKCmAwGJCfnw8A2L9/P2+7ffs2AODo0aPCGPN9htNDR2e/AWgbPANTAWl6erowj3PnzqGsrIy/Z4zh8OHD8PLyQnl5ucNxCSGEEEIIIYSQJWVx63TMzncv1OzArS9Zxo1YVvl98WJPZ9nIysriFf3q6+uFNmulUABMLpezwsJCFhkZaVd9tLq6WiilnZOT43TM6dRqtTCeSqViV69eZaWlpbyaKwDW0dEhnPfixQthfvv27WN3795lp06d4seioqKE0uE6nU4YUy6XM7VazWpra9mxY8cYAFZdXc3721ZnTUtLc/j5ALC8vDymUqnsqvaq1Wpe+TchIUG47mwcOnRoxkpaIyMjLCoqymm14c7OTrt5yeVyplQqmVwutxu/sbFR6JuUlMSOHDnCnjx5IlxXo9EI/ZRKJTObzYyxqdLj1rHxoRKwbVXhT3mGXV1dwnUvXLjg8L5M/xxVVVWMMcYMBoPwXG3b6uvrheNv376d6RERQgghhBBCCCGLasmHepXfF7OMG7H83zctxxd7SstGa2srDzGKi4uFtvb2dpaYmCgEHSdOnLALP+Lj41lfXx9jjDGz2cyDs/j4+Bmv39vby4qLi1lMTIxd+IQPZd01Go3Dc/V6PcvMzBQCJGtoVVpaykwmk905w8PDLD8/3+E5FRUVPECyWCxCe0JCAh9jcHCQpaen24Vf7e3tQmgYHBzMGhoaGGOMKZVKob+jkGu6Xbt2MQDs4MGDH+3X3d0tfB6dTie0v3z5kmVmZtrd26ioKLvQVZIktmfPHqFfTEwMa2xstLuu7T2YHq4VFhbytosXLzqd+1yf4aNHj4R+ZWVlDse9fv260K+iooK3VVdX292LO3fuMJ1OJwSRkiQ5nTchhBBCCCGEELIUuDDmZH/fEnHwb4kYlaZ+52qt/wYc3/INPGVUGehzyc3NRWVlJYKDg9HT0yNUWwWmtov29fUhLCyMVw0dGRnBmzdvEBAQAIVCwfu2trZi06ZNAKa2uG7fvn3W8zCZTOjv74der4e/vz9Wrlw568IIWq0W/f39WLVqFXx9fWfszxiDVquFVqtFYGAgAgIC7K5lNBrh4eEBxhjGx8ftil9MTEygq6sLISEh/JqTk5Po7OyEt7c3goOD+b0cGxvjW3LHxsbg5eU14xwlSYKLiwsmJyftCkdMNzo6CldXV0xOTsLDw8PhfRsaGsL79+9hsVgQFhb20TG7u7thNBqhUCicFjqRJAmTk5Mwm81wd3cXthxb526xWODq6mr3f8qR2TxDi8WC8fFxuLm58WusWLHCrt/ExAQsFgtkMhnfsmvtxxiDyWSCu7s7XFxcIEkSGGNwd3fHu3fv0NjYiJSUFHh7e884Z0IIIYQQQgghZDEt+VBvX/X/qghdTWuFUTLgnf41AOAHXZvQ9wuZHAm//opCvzkYHBzEmjVrYDAYUFtbC5VKNe+xMjIycO3aNWRlZeHixYufcZaEEEIIIYQQQgghxNacQr1e/Sv06v+NjSu//MmCM9tQb5WPkgd6zvzyCwWObzmD1T5rF3pqy0ZLSwu2bt2KyMhIdHR0OCyAMZO2tjbExsYiNDQU7e3tQrVZQgghhBBCCCGEEPJ5zRjqDRh/RJvmIR711PBAzUPmibLt1+DvGbTgE7QN9WbLQ+aJP/xWTcHeHNy6dQu7d+9GSUkJioqK5nSuyWTChg0bMDw8jJaWFoSHhy/QLAkhhBBCCCGEEEIIADhdktWmacbDnhr8S/PQrm1UMuJRz13sXp+9YBMbMP4I9T9L7I67yzyx2keJ1T7h8HT7hdD2j9fXMSYZMSoZ8XVTNv7y1V3aijtLqampOH/+/Iy/3+aITCZDcnIyDhw4QIEeIYQQQgghhBBCyE/ARTeiYdYVd0bJgDbNQ3z3Qo3/mLQfPTHjN8egUv5uQSbVq3+Fr5uyeYEMq0ObirBxZaLToK5X/wp/asrG2IfztqxJwu83/XFB5kgIIYQQQgghhBBCyGJxufzszyzSPxZPNc14qmm2C9IAICZoKyJ+tRF/bf+WH/s26e8Lsv3WKBlwtCbZ4TyuprXOeH6n7inKmnPmdA4hhBBCCCGEEEIIIT8n/wXfJo0OJukJ6wAAAABJRU5ErkJggg==;" vertex="1" parent="1">
          <mxGeometry x="100" y="790" width="910.49" height="160" as="geometry" />
        </mxCell>
        <mxCell id="pUOc-OPtA9ByPZ5m1enT-65" value="dispatch manager" style="rounded=0;whiteSpace=wrap;html=1;" vertex="1" parent="1">
          <mxGeometry x="870" y="90" width="90" height="70" as="geometry" />
        </mxCell>
        <mxCell id="pUOc-OPtA9ByPZ5m1enT-66" value="resource manager" style="rounded=0;whiteSpace=wrap;html=1;" vertex="1" parent="1">
          <mxGeometry x="870" y="230" width="90" height="90" as="geometry" />
        </mxCell>
        <mxCell id="pUOc-OPtA9ByPZ5m1enT-67" value="dispatch daemon" style="rounded=0;whiteSpace=wrap;html=1;" vertex="1" parent="1">
          <mxGeometry x="1180" y="95" width="90" height="65" as="geometry" />
        </mxCell>
        <mxCell id="pUOc-OPtA9ByPZ5m1enT-68" value="resource daemon" style="rounded=0;whiteSpace=wrap;html=1;" vertex="1" parent="1">
          <mxGeometry x="1180" y="230" width="90" height="85" as="geometry" />
        </mxCell>
        <mxCell id="pUOc-OPtA9ByPZ5m1enT-71" value="" style="endArrow=classic;html=1;rounded=0;exitX=0.126;exitY=0.994;exitDx=0;exitDy=0;exitPerimeter=0;entryX=0.106;entryY=0.015;entryDx=0;entryDy=0;entryPerimeter=0;" edge="1" parent="1">
          <mxGeometry width="50" height="50" relative="1" as="geometry">
            <mxPoint x="895.3400000000001" y="159.58000000000004" as="sourcePoint" />
            <mxPoint x="893.5399999999997" y="231.35000000000002" as="targetPoint" />
          </mxGeometry>
        </mxCell>
        <mxCell id="pUOc-OPtA9ByPZ5m1enT-72" value="" style="endArrow=classic;html=1;rounded=0;exitX=0;exitY=0.25;exitDx=0;exitDy=0;entryX=1;entryY=0.25;entryDx=0;entryDy=0;" edge="1" parent="1" source="pUOc-OPtA9ByPZ5m1enT-68" target="pUOc-OPtA9ByPZ5m1enT-66">
          <mxGeometry width="50" height="50" relative="1" as="geometry">
            <mxPoint x="990" y="380" as="sourcePoint" />
            <mxPoint x="1040" y="330" as="targetPoint" />
          </mxGeometry>
        </mxCell>
        <mxCell id="pUOc-OPtA9ByPZ5m1enT-73" value="1.heatbeat" style="text;html=1;align=center;verticalAlign=middle;whiteSpace=wrap;rounded=0;" vertex="1" parent="1">
          <mxGeometry x="1030" y="220" width="60" height="30" as="geometry" />
        </mxCell>
        <mxCell id="pUOc-OPtA9ByPZ5m1enT-74" value="" style="endArrow=classic;html=1;rounded=0;exitX=0.75;exitY=0;exitDx=0;exitDy=0;entryX=0.75;entryY=1;entryDx=0;entryDy=0;" edge="1" parent="1" source="pUOc-OPtA9ByPZ5m1enT-66" target="pUOc-OPtA9ByPZ5m1enT-65">
          <mxGeometry width="50" height="50" relative="1" as="geometry">
            <mxPoint x="760" y="290" as="sourcePoint" />
            <mxPoint x="800" y="220" as="targetPoint" />
          </mxGeometry>
        </mxCell>
        <mxCell id="pUOc-OPtA9ByPZ5m1enT-75" value="2.request" style="text;html=1;align=center;verticalAlign=middle;whiteSpace=wrap;rounded=0;" vertex="1" parent="1">
          <mxGeometry x="840" y="190" width="60" height="30" as="geometry" />
        </mxCell>
        <mxCell id="pUOc-OPtA9ByPZ5m1enT-76" value="3.response_rm_2_dm" style="text;html=1;align=center;verticalAlign=middle;whiteSpace=wrap;rounded=0;" vertex="1" parent="1">
          <mxGeometry x="941" y="190" width="60" height="30" as="geometry" />
        </mxCell>
        <mxCell id="pUOc-OPtA9ByPZ5m1enT-77" value="" style="endArrow=classic;html=1;rounded=0;exitX=1;exitY=0.25;exitDx=0;exitDy=0;entryX=0.025;entryY=0.187;entryDx=0;entryDy=0;entryPerimeter=0;" edge="1" parent="1">
          <mxGeometry width="50" height="50" relative="1" as="geometry">
            <mxPoint x="960" y="99.5" as="sourcePoint" />
            <mxPoint x="1182.25" y="99.15499999999997" as="targetPoint" />
          </mxGeometry>
        </mxCell>
        <mxCell id="pUOc-OPtA9ByPZ5m1enT-78" value="4.ip" style="text;html=1;align=center;verticalAlign=middle;whiteSpace=wrap;rounded=0;" vertex="1" parent="1">
          <mxGeometry x="1020" y="69" width="60" height="30" as="geometry" />
        </mxCell>
        <mxCell id="pUOc-OPtA9ByPZ5m1enT-79" value="" style="endArrow=classic;html=1;rounded=0;exitX=-0.004;exitY=0.892;exitDx=0;exitDy=0;exitPerimeter=0;entryX=0.996;entryY=0.872;entryDx=0;entryDy=0;entryPerimeter=0;" edge="1" parent="1" source="pUOc-OPtA9ByPZ5m1enT-67" target="pUOc-OPtA9ByPZ5m1enT-65">
          <mxGeometry width="50" height="50" relative="1" as="geometry">
            <mxPoint x="990" y="60" as="sourcePoint" />
            <mxPoint x="1040" y="10" as="targetPoint" />
          </mxGeometry>
        </mxCell>
        <mxCell id="pUOc-OPtA9ByPZ5m1enT-80" value="response/ unknow runtime" style="text;html=1;align=center;verticalAlign=middle;whiteSpace=wrap;rounded=0;" vertex="1" parent="1">
          <mxGeometry x="988" y="140" width="160" height="30" as="geometry" />
        </mxCell>
        <mxCell id="pUOc-OPtA9ByPZ5m1enT-81" value="" style="endArrow=classic;html=1;rounded=0;exitX=-0.004;exitY=0.892;exitDx=0;exitDy=0;exitPerimeter=0;entryX=0.996;entryY=0.872;entryDx=0;entryDy=0;entryPerimeter=0;" edge="1" parent="1">
          <mxGeometry width="50" height="50" relative="1" as="geometry">
            <mxPoint x="1180" y="140" as="sourcePoint" />
            <mxPoint x="960" y="138" as="targetPoint" />
          </mxGeometry>
        </mxCell>
        <mxCell id="pUOc-OPtA9ByPZ5m1enT-82" value="deployed" style="text;html=1;align=center;verticalAlign=middle;whiteSpace=wrap;rounded=0;" vertex="1" parent="1">
          <mxGeometry x="1021" y="115.5" width="60" height="30" as="geometry" />
        </mxCell>
        <mxCell id="pUOc-OPtA9ByPZ5m1enT-83" value="" style="endArrow=classic;html=1;rounded=0;exitX=0;exitY=0.25;exitDx=0;exitDy=0;entryX=0.007;entryY=0.605;entryDx=0;entryDy=0;entryPerimeter=0;" edge="1" parent="1" source="pUOc-OPtA9ByPZ5m1enT-65" target="pUOc-OPtA9ByPZ5m1enT-65">
          <mxGeometry width="50" height="50" relative="1" as="geometry">
            <mxPoint x="770" y="160" as="sourcePoint" />
            <mxPoint x="840" y="140" as="targetPoint" />
            <Array as="points">
              <mxPoint x="840" y="110" />
              <mxPoint x="840" y="132" />
            </Array>
          </mxGeometry>
        </mxCell>
        <mxCell id="pUOc-OPtA9ByPZ5m1enT-84" value="hscale" style="text;html=1;align=center;verticalAlign=middle;whiteSpace=wrap;rounded=0;" vertex="1" parent="1">
          <mxGeometry x="790" y="110" width="60" height="30" as="geometry" />
        </mxCell>
        <mxCell id="pUOc-OPtA9ByPZ5m1enT-87" value="common&lt;div&gt;pool&lt;/div&gt;" style="ellipse;whiteSpace=wrap;html=1;aspect=fixed;" vertex="1" parent="1">
          <mxGeometry x="1240" y="504" width="80" height="80" as="geometry" />
        </mxCell>
        <mxCell id="pUOc-OPtA9ByPZ5m1enT-88" value="job 1&lt;div&gt;pool&lt;/div&gt;" style="ellipse;whiteSpace=wrap;html=1;aspect=fixed;" vertex="1" parent="1">
          <mxGeometry x="1440" y="525" width="80" height="80" as="geometry" />
        </mxCell>
        <mxCell id="pUOc-OPtA9ByPZ5m1enT-89" value="job 1 stage 1&lt;br&gt;&lt;div&gt;pool&lt;/div&gt;" style="ellipse;whiteSpace=wrap;html=1;aspect=fixed;" vertex="1" parent="1">
          <mxGeometry x="1440" y="640" width="80" height="80" as="geometry" />
        </mxCell>
        <mxCell id="pUOc-OPtA9ByPZ5m1enT-90" value="job 2 stage 2&lt;br&gt;&lt;div&gt;pool&lt;/div&gt;" style="ellipse;whiteSpace=wrap;html=1;aspect=fixed;" vertex="1" parent="1">
          <mxGeometry x="1574" y="640" width="80" height="80" as="geometry" />
        </mxCell>
        <mxCell id="pUOc-OPtA9ByPZ5m1enT-91" value="job 2&lt;div&gt;pool&lt;/div&gt;" style="ellipse;whiteSpace=wrap;html=1;aspect=fixed;" vertex="1" parent="1">
          <mxGeometry x="1440" y="424" width="80" height="80" as="geometry" />
        </mxCell>
        <mxCell id="pUOc-OPtA9ByPZ5m1enT-92" value="job 2 stage 1&lt;br&gt;&lt;div&gt;pool&lt;/div&gt;" style="ellipse;whiteSpace=wrap;html=1;aspect=fixed;" vertex="1" parent="1">
          <mxGeometry x="1440" y="310" width="80" height="80" as="geometry" />
        </mxCell>
        <mxCell id="pUOc-OPtA9ByPZ5m1enT-93" value="job 2 stage 2&lt;br&gt;&lt;div&gt;pool&lt;/div&gt;" style="ellipse;whiteSpace=wrap;html=1;aspect=fixed;" vertex="1" parent="1">
          <mxGeometry x="1570" y="310" width="80" height="80" as="geometry" />
        </mxCell>
        <mxCell id="pUOc-OPtA9ByPZ5m1enT-94" value="_cur_source" style="text;html=1;align=center;verticalAlign=middle;whiteSpace=wrap;rounded=0;" vertex="1" parent="1">
          <mxGeometry x="1200" y="460" width="60" height="30" as="geometry" />
        </mxCell>
        <mxCell id="pUOc-OPtA9ByPZ5m1enT-95" value="Global Encoder" style="rounded=0;whiteSpace=wrap;html=1;" vertex="1" parent="1">
          <mxGeometry x="1709" y="870" width="89" height="110" as="geometry" />
        </mxCell>
        <mxCell id="pUOc-OPtA9ByPZ5m1enT-96" value="DAG Encoder" style="rounded=0;whiteSpace=wrap;html=1;" vertex="1" parent="1">
          <mxGeometry x="1530" y="870" width="89" height="120" as="geometry" />
        </mxCell>
        <mxCell id="pUOc-OPtA9ByPZ5m1enT-97" value="Node Encoder&lt;div&gt;(GNN)&lt;/div&gt;" style="rounded=0;whiteSpace=wrap;html=1;" vertex="1" parent="1">
          <mxGeometry x="1340" y="875" width="89" height="115" as="geometry" />
        </mxCell>
        <mxCell id="pUOc-OPtA9ByPZ5m1enT-98" value="" style="endArrow=classic;html=1;rounded=0;" edge="1" parent="1">
          <mxGeometry width="50" height="50" relative="1" as="geometry">
            <mxPoint x="1270" y="920" as="sourcePoint" />
            <mxPoint x="1330" y="920" as="targetPoint" />
          </mxGeometry>
        </mxCell>
        <mxCell id="pUOc-OPtA9ByPZ5m1enT-99" value="stage_number *node feature" style="text;html=1;align=center;verticalAlign=middle;whiteSpace=wrap;rounded=0;" vertex="1" parent="1">
          <mxGeometry x="1250" y="930" width="80" height="30" as="geometry" />
        </mxCell>
        <mxCell id="pUOc-OPtA9ByPZ5m1enT-103" value="" style="endArrow=classic;html=1;rounded=0;exitX=1.004;exitY=0.44;exitDx=0;exitDy=0;exitPerimeter=0;" edge="1" parent="1" source="pUOc-OPtA9ByPZ5m1enT-97">
          <mxGeometry width="50" height="50" relative="1" as="geometry">
            <mxPoint x="1480" y="930" as="sourcePoint" />
            <mxPoint x="1530" y="926" as="targetPoint" />
          </mxGeometry>
        </mxCell>
        <mxCell id="pUOc-OPtA9ByPZ5m1enT-104" value="stage_numebr * hidden" style="text;html=1;align=center;verticalAlign=middle;whiteSpace=wrap;rounded=0;" vertex="1" parent="1">
          <mxGeometry x="1440" y="890" width="90" height="30" as="geometry" />
        </mxCell>
        <mxCell id="pUOc-OPtA9ByPZ5m1enT-105" value="" style="endArrow=classic;html=1;rounded=0;entryX=0.009;entryY=0.827;entryDx=0;entryDy=0;entryPerimeter=0;exitX=0.612;exitY=1.112;exitDx=0;exitDy=0;exitPerimeter=0;" edge="1" parent="1" source="pUOc-OPtA9ByPZ5m1enT-99" target="pUOc-OPtA9ByPZ5m1enT-96">
          <mxGeometry width="50" height="50" relative="1" as="geometry">
            <mxPoint x="1290" y="1000" as="sourcePoint" />
            <mxPoint x="1440" y="950" as="targetPoint" />
            <Array as="points">
              <mxPoint x="1300" y="1000" />
              <mxPoint x="1440" y="1000" />
              <mxPoint x="1440" y="970" />
              <mxPoint x="1480" y="970" />
            </Array>
          </mxGeometry>
        </mxCell>
        <mxCell id="pUOc-OPtA9ByPZ5m1enT-106" value="多个dag合并成一个" style="text;html=1;align=center;verticalAlign=middle;whiteSpace=wrap;rounded=0;" vertex="1" parent="1">
          <mxGeometry x="1240" y="870" width="60" height="30" as="geometry" />
        </mxCell>
        <mxCell id="pUOc-OPtA9ByPZ5m1enT-107" value="" style="endArrow=classic;html=1;rounded=0;exitX=1;exitY=0.5;exitDx=0;exitDy=0;entryX=-0.005;entryY=0.553;entryDx=0;entryDy=0;entryPerimeter=0;" edge="1" parent="1" source="pUOc-OPtA9ByPZ5m1enT-96" target="pUOc-OPtA9ByPZ5m1enT-95">
          <mxGeometry width="50" height="50" relative="1" as="geometry">
            <mxPoint x="1630" y="960" as="sourcePoint" />
            <mxPoint x="1680" y="930" as="targetPoint" />
          </mxGeometry>
        </mxCell>
        <mxCell id="pUOc-OPtA9ByPZ5m1enT-108" value="dag_numebr * hidden" style="text;html=1;align=center;verticalAlign=middle;whiteSpace=wrap;rounded=0;" vertex="1" parent="1">
          <mxGeometry x="1619" y="890" width="90" height="30" as="geometry" />
        </mxCell>
        <mxCell id="pUOc-OPtA9ByPZ5m1enT-109" value="1 * hidden" style="text;html=1;align=center;verticalAlign=middle;whiteSpace=wrap;rounded=0;" vertex="1" parent="1">
          <mxGeometry x="1798" y="880" width="90" height="30" as="geometry" />
        </mxCell>
        <mxCell id="pUOc-OPtA9ByPZ5m1enT-110" value="" style="endArrow=classic;html=1;rounded=0;exitX=1;exitY=0.5;exitDx=0;exitDy=0;entryX=-0.003;entryY=0.813;entryDx=0;entryDy=0;entryPerimeter=0;" edge="1" parent="1" target="pUOc-OPtA9ByPZ5m1enT-112">
          <mxGeometry width="50" height="50" relative="1" as="geometry">
            <mxPoint x="1798" y="926" as="sourcePoint" />
            <mxPoint x="1870" y="840" as="targetPoint" />
            <Array as="points">
              <mxPoint x="1870" y="930" />
              <mxPoint x="1870" y="860" />
            </Array>
          </mxGeometry>
        </mxCell>
        <mxCell id="pUOc-OPtA9ByPZ5m1enT-111" value="考虑一个observation" style="text;html=1;align=center;verticalAlign=middle;whiteSpace=wrap;rounded=0;" vertex="1" parent="1">
          <mxGeometry x="1230" y="820" width="60" height="30" as="geometry" />
        </mxCell>
        <mxCell id="pUOc-OPtA9ByPZ5m1enT-112" value="StagePolicyNetwork" style="rounded=0;whiteSpace=wrap;html=1;" vertex="1" parent="1">
          <mxGeometry x="1910" y="770" width="120" height="110" as="geometry" />
        </mxCell>
        <mxCell id="pUOc-OPtA9ByPZ5m1enT-113" value="ExecPolicyNetwork" style="rounded=0;whiteSpace=wrap;html=1;" vertex="1" parent="1">
          <mxGeometry x="1910" y="920" width="120" height="110" as="geometry" />
        </mxCell>
        <mxCell id="pUOc-OPtA9ByPZ5m1enT-114" value="" style="endArrow=classic;html=1;rounded=0;exitX=1.013;exitY=0.145;exitDx=0;exitDy=0;exitPerimeter=0;" edge="1" parent="1" source="pUOc-OPtA9ByPZ5m1enT-113">
          <mxGeometry width="50" height="50" relative="1" as="geometry">
            <mxPoint x="2060" y="970" as="sourcePoint" />
            <mxPoint x="2060" y="936" as="targetPoint" />
          </mxGeometry>
        </mxCell>
        <mxCell id="pUOc-OPtA9ByPZ5m1enT-115" value="softmax&lt;div&gt;&amp;amp;sample&lt;/div&gt;" style="rounded=0;whiteSpace=wrap;html=1;" vertex="1" parent="1">
          <mxGeometry x="2060" y="920" width="50" height="110" as="geometry" />
        </mxCell>
        <mxCell id="pUOc-OPtA9ByPZ5m1enT-116" value="" style="endArrow=classic;html=1;rounded=0;exitX=1.013;exitY=0.145;exitDx=0;exitDy=0;exitPerimeter=0;" edge="1" parent="1">
          <mxGeometry width="50" height="50" relative="1" as="geometry">
            <mxPoint x="2031" y="953" as="sourcePoint" />
            <mxPoint x="2059" y="953" as="targetPoint" />
          </mxGeometry>
        </mxCell>
        <mxCell id="pUOc-OPtA9ByPZ5m1enT-117" value="" style="endArrow=classic;html=1;rounded=0;exitX=1.013;exitY=0.145;exitDx=0;exitDy=0;exitPerimeter=0;" edge="1" parent="1">
          <mxGeometry width="50" height="50" relative="1" as="geometry">
            <mxPoint x="2031" y="971" as="sourcePoint" />
            <mxPoint x="2059" y="971" as="targetPoint" />
          </mxGeometry>
        </mxCell>
        <mxCell id="pUOc-OPtA9ByPZ5m1enT-118" value="..." style="text;html=1;align=center;verticalAlign=middle;whiteSpace=wrap;rounded=0;" vertex="1" parent="1">
          <mxGeometry x="2020" y="980" width="60" height="30" as="geometry" />
        </mxCell>
        <mxCell id="pUOc-OPtA9ByPZ5m1enT-119" value="输出选择各个executor的一个实数" style="text;html=1;align=center;verticalAlign=middle;whiteSpace=wrap;rounded=0;" vertex="1" parent="1">
          <mxGeometry x="1938" y="1030" width="192" height="30" as="geometry" />
        </mxCell>
        <mxCell id="pUOc-OPtA9ByPZ5m1enT-121" value="softmax&lt;div&gt;&amp;amp;sample&lt;/div&gt;" style="rounded=0;whiteSpace=wrap;html=1;" vertex="1" parent="1">
          <mxGeometry x="2060" y="770" width="50" height="110" as="geometry" />
        </mxCell>
        <mxCell id="pUOc-OPtA9ByPZ5m1enT-122" value="" style="endArrow=classic;html=1;rounded=0;exitX=1;exitY=0.25;exitDx=0;exitDy=0;entryX=0;entryY=0.25;entryDx=0;entryDy=0;" edge="1" parent="1" source="pUOc-OPtA9ByPZ5m1enT-112" target="pUOc-OPtA9ByPZ5m1enT-121">
          <mxGeometry width="50" height="50" relative="1" as="geometry">
            <mxPoint x="2060" y="760" as="sourcePoint" />
            <mxPoint x="2110" y="710" as="targetPoint" />
          </mxGeometry>
        </mxCell>
        <mxCell id="pUOc-OPtA9ByPZ5m1enT-123" value="" style="endArrow=classic;html=1;rounded=0;exitX=1;exitY=0.25;exitDx=0;exitDy=0;entryX=0;entryY=0.25;entryDx=0;entryDy=0;" edge="1" parent="1">
          <mxGeometry width="50" height="50" relative="1" as="geometry">
            <mxPoint x="2031" y="812" as="sourcePoint" />
            <mxPoint x="2061" y="812" as="targetPoint" />
          </mxGeometry>
        </mxCell>
        <mxCell id="pUOc-OPtA9ByPZ5m1enT-124" value="" style="endArrow=classic;html=1;rounded=0;exitX=1;exitY=0.25;exitDx=0;exitDy=0;entryX=0;entryY=0.25;entryDx=0;entryDy=0;" edge="1" parent="1">
          <mxGeometry width="50" height="50" relative="1" as="geometry">
            <mxPoint x="2031" y="827" as="sourcePoint" />
            <mxPoint x="2061" y="827" as="targetPoint" />
          </mxGeometry>
        </mxCell>
        <mxCell id="pUOc-OPtA9ByPZ5m1enT-125" value="..." style="text;html=1;align=center;verticalAlign=middle;whiteSpace=wrap;rounded=0;" vertex="1" parent="1">
          <mxGeometry x="2020" y="830" width="60" height="30" as="geometry" />
        </mxCell>
        <mxCell id="pUOc-OPtA9ByPZ5m1enT-126" value="" style="endArrow=classic;html=1;rounded=0;exitX=1.031;exitY=0.421;exitDx=0;exitDy=0;exitPerimeter=0;" edge="1" parent="1" source="pUOc-OPtA9ByPZ5m1enT-115">
          <mxGeometry width="50" height="50" relative="1" as="geometry">
            <mxPoint x="2150" y="980" as="sourcePoint" />
            <mxPoint x="2160" y="966" as="targetPoint" />
          </mxGeometry>
        </mxCell>
        <mxCell id="pUOc-OPtA9ByPZ5m1enT-127" value="executor个数" style="text;html=1;align=center;verticalAlign=middle;whiteSpace=wrap;rounded=0;" vertex="1" parent="1">
          <mxGeometry x="2110" y="930" width="60" height="30" as="geometry" />
        </mxCell>
        <mxCell id="pUOc-OPtA9ByPZ5m1enT-128" value="" style="endArrow=classic;html=1;rounded=0;exitX=1;exitY=0.5;exitDx=0;exitDy=0;" edge="1" parent="1" source="pUOc-OPtA9ByPZ5m1enT-121">
          <mxGeometry width="50" height="50" relative="1" as="geometry">
            <mxPoint x="2130" y="850" as="sourcePoint" />
            <mxPoint x="2150" y="825" as="targetPoint" />
          </mxGeometry>
        </mxCell>
        <mxCell id="pUOc-OPtA9ByPZ5m1enT-129" value="选择哪个stage" style="text;html=1;align=center;verticalAlign=middle;whiteSpace=wrap;rounded=0;" vertex="1" parent="1">
          <mxGeometry x="2110" y="790" width="60" height="30" as="geometry" />
        </mxCell>
        <mxCell id="pUOc-OPtA9ByPZ5m1enT-131" value="" style="endArrow=classic;html=1;rounded=0;entryX=-0.017;entryY=0.46;entryDx=0;entryDy=0;entryPerimeter=0;" edge="1" parent="1" target="pUOc-OPtA9ByPZ5m1enT-113">
          <mxGeometry width="50" height="50" relative="1" as="geometry">
            <mxPoint x="1870" y="930" as="sourcePoint" />
            <mxPoint x="1870" y="980" as="targetPoint" />
            <Array as="points">
              <mxPoint x="1870" y="970" />
            </Array>
          </mxGeometry>
        </mxCell>
        <mxCell id="pUOc-OPtA9ByPZ5m1enT-132" value="" style="endArrow=classic;html=1;rounded=0;entryX=0.01;entryY=0.369;entryDx=0;entryDy=0;entryPerimeter=0;" edge="1" parent="1" target="pUOc-OPtA9ByPZ5m1enT-112">
          <mxGeometry width="50" height="50" relative="1" as="geometry">
            <mxPoint x="1680" y="930" as="sourcePoint" />
            <mxPoint x="1680" y="770" as="targetPoint" />
            <Array as="points">
              <mxPoint x="1680" y="810" />
            </Array>
          </mxGeometry>
        </mxCell>
        <mxCell id="pUOc-OPtA9ByPZ5m1enT-133" value="" style="endArrow=classic;html=1;rounded=0;entryX=-0.023;entryY=0.187;entryDx=0;entryDy=0;entryPerimeter=0;" edge="1" parent="1" target="pUOc-OPtA9ByPZ5m1enT-112">
          <mxGeometry width="50" height="50" relative="1" as="geometry">
            <mxPoint x="1310" y="880" as="sourcePoint" />
            <mxPoint x="1800" y="790" as="targetPoint" />
            <Array as="points">
              <mxPoint x="1310" y="790" />
            </Array>
          </mxGeometry>
        </mxCell>
        <mxCell id="pUOc-OPtA9ByPZ5m1enT-135" value="" style="endArrow=classic;html=1;rounded=0;entryX=-0.023;entryY=0.649;entryDx=0;entryDy=0;entryPerimeter=0;" edge="1" parent="1" target="pUOc-OPtA9ByPZ5m1enT-113">
          <mxGeometry width="50" height="50" relative="1" as="geometry">
            <mxPoint x="1680" y="930" as="sourcePoint" />
            <mxPoint x="1680" y="1010" as="targetPoint" />
            <Array as="points">
              <mxPoint x="1680" y="990" />
            </Array>
          </mxGeometry>
        </mxCell>
        <mxCell id="pUOc-OPtA9ByPZ5m1enT-136" value="" style="endArrow=classic;html=1;rounded=0;entryX=-0.003;entryY=0.831;entryDx=0;entryDy=0;entryPerimeter=0;" edge="1" parent="1" target="pUOc-OPtA9ByPZ5m1enT-113">
          <mxGeometry width="50" height="50" relative="1" as="geometry">
            <mxPoint x="1300" y="960" as="sourcePoint" />
            <mxPoint x="1300" y="1030" as="targetPoint" />
            <Array as="points">
              <mxPoint x="1300" y="1010" />
            </Array>
          </mxGeometry>
        </mxCell>
        <mxCell id="pUOc-OPtA9ByPZ5m1enT-138" value="每个node 里面都包括了所属dag_feature" style="text;html=1;align=center;verticalAlign=middle;whiteSpace=wrap;rounded=0;" vertex="1" parent="1">
          <mxGeometry x="1490" y="1020" width="150" height="30" as="geometry" />
        </mxCell>
        <mxCell id="pUOc-OPtA9ByPZ5m1enT-139" value="" style="endArrow=classic;html=1;rounded=0;entryX=-0.03;entryY=0.933;entryDx=0;entryDy=0;entryPerimeter=0;" edge="1" parent="1" target="pUOc-OPtA9ByPZ5m1enT-113">
          <mxGeometry width="50" height="50" relative="1" as="geometry">
            <mxPoint x="1840" y="1023" as="sourcePoint" />
            <mxPoint x="1850" y="1050" as="targetPoint" />
          </mxGeometry>
        </mxCell>
        <mxCell id="pUOc-OPtA9ByPZ5m1enT-140" value="executor信息" style="text;html=1;align=center;verticalAlign=middle;whiteSpace=wrap;rounded=0;" vertex="1" parent="1">
          <mxGeometry x="1780" y="1020" width="80" height="30" as="geometry" />
        </mxCell>
        <mxCell id="pUOc-OPtA9ByPZ5m1enT-141" value="不固定数量的dag到达" style="text;html=1;align=center;verticalAlign=middle;whiteSpace=wrap;rounded=0;" vertex="1" parent="1">
          <mxGeometry x="1270" y="740" width="90" height="30" as="geometry" />
        </mxCell>
        <mxCell id="pUOc-OPtA9ByPZ5m1enT-142" value="强化学习调度器" style="rounded=0;whiteSpace=wrap;html=1;" vertex="1" parent="1">
          <mxGeometry x="470" y="1120" width="120" height="60" as="geometry" />
        </mxCell>
        <mxCell id="pUOc-OPtA9ByPZ5m1enT-143" value="MLP算法&lt;div&gt;（提前部署）&lt;/div&gt;" style="rounded=0;whiteSpace=wrap;html=1;" vertex="1" parent="1">
          <mxGeometry x="640" y="1120" width="120" height="60" as="geometry" />
        </mxCell>
        <mxCell id="pUOc-OPtA9ByPZ5m1enT-144" value="容器层驱逐算法&lt;div&gt;（根据流行度）&lt;/div&gt;" style="rounded=0;whiteSpace=wrap;html=1;" vertex="1" parent="1">
          <mxGeometry x="833" y="1120" width="120" height="60" as="geometry" />
        </mxCell>
        <mxCell id="pUOc-OPtA9ByPZ5m1enT-147" value="" style="rounded=0;whiteSpace=wrap;html=1;" vertex="1" parent="1">
          <mxGeometry x="525" y="1180" width="10" height="190" as="geometry" />
        </mxCell>
        <mxCell id="pUOc-OPtA9ByPZ5m1enT-148" value="" style="rounded=0;whiteSpace=wrap;html=1;" vertex="1" parent="1">
          <mxGeometry x="695" y="1180" width="10" height="190" as="geometry" />
        </mxCell>
        <mxCell id="pUOc-OPtA9ByPZ5m1enT-150" value="1.request arrival/obs1" style="text;html=1;align=center;verticalAlign=middle;whiteSpace=wrap;rounded=0;" vertex="1" parent="1">
          <mxGeometry x="400" y="1176" width="106" height="30" as="geometry" />
        </mxCell>
        <mxCell id="pUOc-OPtA9ByPZ5m1enT-152" value="" style="endArrow=classic;html=1;rounded=0;entryX=-0.02;entryY=0.142;entryDx=0;entryDy=0;entryPerimeter=0;exitX=0.091;exitY=1.073;exitDx=0;exitDy=0;exitPerimeter=0;" edge="1" parent="1" source="pUOc-OPtA9ByPZ5m1enT-150" target="pUOc-OPtA9ByPZ5m1enT-147">
          <mxGeometry width="50" height="50" relative="1" as="geometry">
            <mxPoint x="410" y="1216" as="sourcePoint" />
            <mxPoint x="490" y="1280" as="targetPoint" />
          </mxGeometry>
        </mxCell>
        <mxCell id="pUOc-OPtA9ByPZ5m1enT-154" value="" style="endArrow=classic;html=1;rounded=0;exitX=0;exitY=0.25;exitDx=0;exitDy=0;" edge="1" parent="1">
          <mxGeometry width="50" height="50" relative="1" as="geometry">
            <mxPoint x="525" y="1233.5" as="sourcePoint" />
            <mxPoint x="410" y="1234" as="targetPoint" />
          </mxGeometry>
        </mxCell>
        <mxCell id="pUOc-OPtA9ByPZ5m1enT-155" value="Cluster" style="shape=umlActor;verticalLabelPosition=bottom;verticalAlign=top;html=1;outlineConnect=0;" vertex="1" parent="1">
          <mxGeometry x="360" y="1180" width="30" height="60" as="geometry" />
        </mxCell>
        <mxCell id="pUOc-OPtA9ByPZ5m1enT-156" value="3. deployment decision" style="text;html=1;align=center;verticalAlign=middle;whiteSpace=wrap;rounded=0;" vertex="1" parent="1">
          <mxGeometry x="385" y="1206" width="140" height="30" as="geometry" />
        </mxCell>
        <mxCell id="pUOc-OPtA9ByPZ5m1enT-157" value="" style="endArrow=classic;html=1;rounded=0;exitX=1;exitY=0.25;exitDx=0;exitDy=0;entryX=0;entryY=0.25;entryDx=0;entryDy=0;" edge="1" parent="1">
          <mxGeometry width="50" height="50" relative="1" as="geometry">
            <mxPoint x="535" y="1213.5" as="sourcePoint" />
            <mxPoint x="695" y="1213.5" as="targetPoint" />
          </mxGeometry>
        </mxCell>
        <mxCell id="pUOc-OPtA9ByPZ5m1enT-158" value="2.new deploy message" style="text;html=1;align=center;verticalAlign=middle;whiteSpace=wrap;rounded=0;" vertex="1" parent="1">
          <mxGeometry x="570" y="1178" width="90" height="30" as="geometry" />
        </mxCell>
        <mxCell id="pUOc-OPtA9ByPZ5m1enT-160" value="" style="endArrow=classic;html=1;rounded=0;exitX=1;exitY=0.25;exitDx=0;exitDy=0;entryX=1.041;entryY=0.318;entryDx=0;entryDy=0;entryPerimeter=0;" edge="1" parent="1" target="pUOc-OPtA9ByPZ5m1enT-148">
          <mxGeometry width="50" height="50" relative="1" as="geometry">
            <mxPoint x="705" y="1219.5" as="sourcePoint" />
            <mxPoint x="708" y="1255.98" as="targetPoint" />
            <Array as="points">
              <mxPoint x="730" y="1220" />
              <mxPoint x="730" y="1240" />
            </Array>
          </mxGeometry>
        </mxCell>
        <mxCell id="pUOc-OPtA9ByPZ5m1enT-161" value="4. which function will be execute next?" style="text;html=1;align=center;verticalAlign=middle;whiteSpace=wrap;rounded=0;" vertex="1" parent="1">
          <mxGeometry x="733" y="1214" width="100" height="30" as="geometry" />
        </mxCell>
        <mxCell id="pUOc-OPtA9ByPZ5m1enT-162" value="" style="endArrow=classic;html=1;rounded=0;entryX=1.02;entryY=0.481;entryDx=0;entryDy=0;entryPerimeter=0;" edge="1" parent="1">
          <mxGeometry width="50" height="50" relative="1" as="geometry">
            <mxPoint x="692" y="1251" as="sourcePoint" />
            <mxPoint x="537.1999999999998" y="1251.39" as="targetPoint" />
          </mxGeometry>
        </mxCell>
        <mxCell id="pUOc-OPtA9ByPZ5m1enT-163" value="5. predeploy request" style="text;html=1;align=center;verticalAlign=middle;whiteSpace=wrap;rounded=0;" vertex="1" parent="1">
          <mxGeometry x="559" y="1230" width="120" height="30" as="geometry" />
        </mxCell>
        <mxCell id="pUOc-OPtA9ByPZ5m1enT-164" value="" style="endArrow=classic;html=1;rounded=0;exitX=1.18;exitY=0.557;exitDx=0;exitDy=0;entryX=-0.22;entryY=0.553;entryDx=0;entryDy=0;entryPerimeter=0;exitPerimeter=0;" edge="1" parent="1">
          <mxGeometry width="50" height="50" relative="1" as="geometry">
            <mxPoint x="536.8" y="1270.83" as="sourcePoint" />
            <mxPoint x="692.8" y="1270.07" as="targetPoint" />
          </mxGeometry>
        </mxCell>
        <mxCell id="pUOc-OPtA9ByPZ5m1enT-167" value="" style="endArrow=classic;html=1;rounded=0;entryX=-0.02;entryY=0.724;entryDx=0;entryDy=0;entryPerimeter=0;" edge="1" parent="1" target="pUOc-OPtA9ByPZ5m1enT-169">
          <mxGeometry width="50" height="50" relative="1" as="geometry">
            <mxPoint x="410" y="1320" as="sourcePoint" />
            <mxPoint x="870" y="1320" as="targetPoint" />
          </mxGeometry>
        </mxCell>
        <mxCell id="pUOc-OPtA9ByPZ5m1enT-168" value="pull layer" style="text;html=1;align=center;verticalAlign=middle;whiteSpace=wrap;rounded=0;" vertex="1" parent="1">
          <mxGeometry x="565" y="1300" width="60" height="30" as="geometry" />
        </mxCell>
        <mxCell id="pUOc-OPtA9ByPZ5m1enT-169" value="" style="rounded=0;whiteSpace=wrap;html=1;" vertex="1" parent="1">
          <mxGeometry x="889" y="1181" width="10" height="190" as="geometry" />
        </mxCell>
        <mxCell id="pUOc-OPtA9ByPZ5m1enT-170" value="" style="endArrow=classic;html=1;rounded=0;exitX=1;exitY=0.25;exitDx=0;exitDy=0;entryX=1.3;entryY=0.442;entryDx=0;entryDy=0;entryPerimeter=0;" edge="1" parent="1">
          <mxGeometry width="50" height="50" relative="1" as="geometry">
            <mxPoint x="898" y="1325" as="sourcePoint" />
            <mxPoint x="901" y="1361" as="targetPoint" />
            <Array as="points">
              <mxPoint x="923" y="1325" />
              <mxPoint x="923" y="1361" />
            </Array>
          </mxGeometry>
        </mxCell>
        <mxCell id="pUOc-OPtA9ByPZ5m1enT-171" value="No space?&lt;div&gt;expel&lt;/div&gt;" style="text;html=1;align=center;verticalAlign=middle;whiteSpace=wrap;rounded=0;" vertex="1" parent="1">
          <mxGeometry x="927" y="1318" width="60" height="30" as="geometry" />
        </mxCell>
        <mxCell id="pUOc-OPtA9ByPZ5m1enT-172" value="" style="endArrow=classic;html=1;rounded=0;exitX=0.986;exitY=0.651;exitDx=0;exitDy=0;entryX=-0.305;entryY=0.649;entryDx=0;entryDy=0;entryPerimeter=0;exitPerimeter=0;" edge="1" parent="1">
          <mxGeometry width="50" height="50" relative="1" as="geometry">
            <mxPoint x="704.8599999999999" y="1295.69" as="sourcePoint" />
            <mxPoint x="885.95" y="1296.31" as="targetPoint" />
          </mxGeometry>
        </mxCell>
        <mxCell id="pUOc-OPtA9ByPZ5m1enT-173" value="6. deploy decision" style="text;html=1;align=center;verticalAlign=middle;whiteSpace=wrap;rounded=0;" vertex="1" parent="1">
          <mxGeometry x="559" y="1266" width="105" height="30" as="geometry" />
        </mxCell>
        <mxCell id="pUOc-OPtA9ByPZ5m1enT-176" value="pull layer" style="text;html=1;align=center;verticalAlign=middle;whiteSpace=wrap;rounded=0;" vertex="1" parent="1">
          <mxGeometry x="753" y="1270" width="60" height="30" as="geometry" />
        </mxCell>
        <mxCell id="pUOc-OPtA9ByPZ5m1enT-179" value="input" style="text;html=1;align=center;verticalAlign=middle;whiteSpace=wrap;rounded=0;" vertex="1" parent="1">
          <mxGeometry x="35" y="1680" width="60" height="30" as="geometry" />
        </mxCell>
        <mxCell id="pUOc-OPtA9ByPZ5m1enT-195" style="edgeStyle=orthogonalEdgeStyle;rounded=0;orthogonalLoop=1;jettySize=auto;html=1;exitX=0.5;exitY=0;exitDx=0;exitDy=0;entryX=0.5;entryY=1;entryDx=0;entryDy=0;" edge="1" parent="1" source="pUOc-OPtA9ByPZ5m1enT-180" target="pUOc-OPtA9ByPZ5m1enT-188">
          <mxGeometry relative="1" as="geometry" />
        </mxCell>
        <mxCell id="pUOc-OPtA9ByPZ5m1enT-180" value="" style="ellipse;whiteSpace=wrap;html=1;aspect=fixed;" vertex="1" parent="1">
          <mxGeometry x="120" y="1680" width="20" height="20" as="geometry" />
        </mxCell>
        <mxCell id="pUOc-OPtA9ByPZ5m1enT-181" value="" style="ellipse;whiteSpace=wrap;html=1;aspect=fixed;" vertex="1" parent="1">
          <mxGeometry x="180" y="1680" width="20" height="20" as="geometry" />
        </mxCell>
        <mxCell id="pUOc-OPtA9ByPZ5m1enT-200" style="rounded=0;orthogonalLoop=1;jettySize=auto;html=1;exitX=0.5;exitY=0;exitDx=0;exitDy=0;" edge="1" parent="1" source="pUOc-OPtA9ByPZ5m1enT-182">
          <mxGeometry relative="1" as="geometry">
            <mxPoint x="420" y="1610" as="targetPoint" />
          </mxGeometry>
        </mxCell>
        <mxCell id="pUOc-OPtA9ByPZ5m1enT-182" value="" style="ellipse;whiteSpace=wrap;html=1;aspect=fixed;" vertex="1" parent="1">
          <mxGeometry x="250" y="1680" width="20" height="20" as="geometry" />
        </mxCell>
        <mxCell id="pUOc-OPtA9ByPZ5m1enT-183" value="sparse1" style="text;html=1;align=center;verticalAlign=middle;whiteSpace=wrap;rounded=0;" vertex="1" parent="1">
          <mxGeometry x="95" y="1700" width="60" height="30" as="geometry" />
        </mxCell>
        <mxCell id="pUOc-OPtA9ByPZ5m1enT-184" value="sparse2" style="text;html=1;align=center;verticalAlign=middle;whiteSpace=wrap;rounded=0;" vertex="1" parent="1">
          <mxGeometry x="160" y="1700" width="60" height="30" as="geometry" />
        </mxCell>
        <mxCell id="pUOc-OPtA9ByPZ5m1enT-185" value="dense1" style="text;html=1;align=center;verticalAlign=middle;whiteSpace=wrap;rounded=0;" vertex="1" parent="1">
          <mxGeometry x="230" y="1700" width="60" height="30" as="geometry" />
        </mxCell>
        <mxCell id="pUOc-OPtA9ByPZ5m1enT-201" style="rounded=0;orthogonalLoop=1;jettySize=auto;html=1;exitX=0.5;exitY=0;exitDx=0;exitDy=0;entryX=0.5;entryY=1;entryDx=0;entryDy=0;" edge="1" parent="1" source="pUOc-OPtA9ByPZ5m1enT-186" target="pUOc-OPtA9ByPZ5m1enT-197">
          <mxGeometry relative="1" as="geometry" />
        </mxCell>
        <mxCell id="pUOc-OPtA9ByPZ5m1enT-186" value="" style="ellipse;whiteSpace=wrap;html=1;aspect=fixed;" vertex="1" parent="1">
          <mxGeometry x="320" y="1680" width="20" height="20" as="geometry" />
        </mxCell>
        <mxCell id="pUOc-OPtA9ByPZ5m1enT-187" value="dense1" style="text;html=1;align=center;verticalAlign=middle;whiteSpace=wrap;rounded=0;" vertex="1" parent="1">
          <mxGeometry x="300" y="1700" width="60" height="30" as="geometry" />
        </mxCell>
        <mxCell id="pUOc-OPtA9ByPZ5m1enT-191" style="rounded=0;orthogonalLoop=1;jettySize=auto;html=1;exitX=0.5;exitY=0;exitDx=0;exitDy=0;" edge="1" parent="1" source="pUOc-OPtA9ByPZ5m1enT-188" target="pUOc-OPtA9ByPZ5m1enT-190">
          <mxGeometry relative="1" as="geometry" />
        </mxCell>
        <mxCell id="pUOc-OPtA9ByPZ5m1enT-188" value="embed" style="rounded=0;whiteSpace=wrap;html=1;" vertex="1" parent="1">
          <mxGeometry x="110" y="1640" width="40" height="20" as="geometry" />
        </mxCell>
        <mxCell id="pUOc-OPtA9ByPZ5m1enT-192" style="rounded=0;orthogonalLoop=1;jettySize=auto;html=1;exitX=0.5;exitY=0;exitDx=0;exitDy=0;entryX=0.5;entryY=1;entryDx=0;entryDy=0;" edge="1" parent="1" source="pUOc-OPtA9ByPZ5m1enT-189" target="pUOc-OPtA9ByPZ5m1enT-190">
          <mxGeometry relative="1" as="geometry" />
        </mxCell>
        <mxCell id="pUOc-OPtA9ByPZ5m1enT-189" value="embed" style="rounded=0;whiteSpace=wrap;html=1;" vertex="1" parent="1">
          <mxGeometry x="165" y="1641" width="40" height="20" as="geometry" />
        </mxCell>
        <mxCell id="pUOc-OPtA9ByPZ5m1enT-190" value="fm" style="rounded=0;whiteSpace=wrap;html=1;" vertex="1" parent="1">
          <mxGeometry x="110" y="1570" width="230" height="40" as="geometry" />
        </mxCell>
        <mxCell id="pUOc-OPtA9ByPZ5m1enT-193" style="edgeStyle=orthogonalEdgeStyle;rounded=0;orthogonalLoop=1;jettySize=auto;html=1;exitX=0.5;exitY=0;exitDx=0;exitDy=0;entryX=0.649;entryY=0.976;entryDx=0;entryDy=0;entryPerimeter=0;" edge="1" parent="1" source="pUOc-OPtA9ByPZ5m1enT-182" target="pUOc-OPtA9ByPZ5m1enT-190">
          <mxGeometry relative="1" as="geometry" />
        </mxCell>
        <mxCell id="pUOc-OPtA9ByPZ5m1enT-194" style="edgeStyle=orthogonalEdgeStyle;rounded=0;orthogonalLoop=1;jettySize=auto;html=1;exitX=0.5;exitY=0;exitDx=0;exitDy=0;entryX=0.957;entryY=0.945;entryDx=0;entryDy=0;entryPerimeter=0;" edge="1" parent="1" source="pUOc-OPtA9ByPZ5m1enT-186" target="pUOc-OPtA9ByPZ5m1enT-190">
          <mxGeometry relative="1" as="geometry" />
        </mxCell>
        <mxCell id="pUOc-OPtA9ByPZ5m1enT-196" style="edgeStyle=orthogonalEdgeStyle;rounded=0;orthogonalLoop=1;jettySize=auto;html=1;exitX=0.5;exitY=0;exitDx=0;exitDy=0;entryX=0.614;entryY=1.002;entryDx=0;entryDy=0;entryPerimeter=0;" edge="1" parent="1" source="pUOc-OPtA9ByPZ5m1enT-181" target="pUOc-OPtA9ByPZ5m1enT-189">
          <mxGeometry relative="1" as="geometry" />
        </mxCell>
        <mxCell id="pUOc-OPtA9ByPZ5m1enT-197" value="deep" style="rounded=0;whiteSpace=wrap;html=1;" vertex="1" parent="1">
          <mxGeometry x="360" y="1570" width="120" height="40" as="geometry" />
        </mxCell>
        <mxCell id="pUOc-OPtA9ByPZ5m1enT-198" style="rounded=0;orthogonalLoop=1;jettySize=auto;html=1;exitX=0.5;exitY=0;exitDx=0;exitDy=0;entryX=0.539;entryY=0.973;entryDx=0;entryDy=0;entryPerimeter=0;" edge="1" parent="1" source="pUOc-OPtA9ByPZ5m1enT-188" target="pUOc-OPtA9ByPZ5m1enT-197">
          <mxGeometry relative="1" as="geometry" />
        </mxCell>
        <mxCell id="pUOc-OPtA9ByPZ5m1enT-199" style="rounded=0;orthogonalLoop=1;jettySize=auto;html=1;exitX=0.5;exitY=0;exitDx=0;exitDy=0;entryX=0.539;entryY=1.003;entryDx=0;entryDy=0;entryPerimeter=0;" edge="1" parent="1" source="pUOc-OPtA9ByPZ5m1enT-189" target="pUOc-OPtA9ByPZ5m1enT-197">
          <mxGeometry relative="1" as="geometry" />
        </mxCell>
        <mxCell id="pUOc-OPtA9ByPZ5m1enT-202" value="+" style="rounded=0;whiteSpace=wrap;html=1;" vertex="1" parent="1">
          <mxGeometry x="300" y="1510" width="80" height="30" as="geometry" />
        </mxCell>
        <mxCell id="pUOc-OPtA9ByPZ5m1enT-203" style="edgeStyle=orthogonalEdgeStyle;rounded=0;orthogonalLoop=1;jettySize=auto;html=1;exitX=0.5;exitY=0;exitDx=0;exitDy=0;entryX=0.551;entryY=0.893;entryDx=0;entryDy=0;entryPerimeter=0;" edge="1" parent="1" source="pUOc-OPtA9ByPZ5m1enT-190" target="pUOc-OPtA9ByPZ5m1enT-202">
          <mxGeometry relative="1" as="geometry" />
        </mxCell>
        <mxCell id="pUOc-OPtA9ByPZ5m1enT-204" style="edgeStyle=orthogonalEdgeStyle;rounded=0;orthogonalLoop=1;jettySize=auto;html=1;exitX=0.5;exitY=0;exitDx=0;exitDy=0;entryX=0.559;entryY=0.954;entryDx=0;entryDy=0;entryPerimeter=0;" edge="1" parent="1" source="pUOc-OPtA9ByPZ5m1enT-197" target="pUOc-OPtA9ByPZ5m1enT-202">
          <mxGeometry relative="1" as="geometry" />
        </mxCell>
      </root>
    </mxGraphModel>
  </diagram>
</mxfile>
